<svg width="524" height="477" viewBox="0 0 524 477" fill="none" xmlns="http://www.w3.org/2000/svg">
<g filter="url(#filter0_d_5_840)">
<g clip-path="url(#clip0_5_840)">
<path d="M38 23C38 17.4771 42.4772 13 48 13H476C481.523 13 486 17.4772 486 23V404C486 409.523 481.523 414 476 414H48C42.4771 414 38 409.523 38 404V23Z" fill="white"/>
<mask id="path-2-inside-1_5_840" fill="white">
<path d="M38 13H486V54H38V13Z"/>
</mask>
<path d="M38 13H486V54H38V13Z" fill="#F3F4F6"/>
<path d="M486 54V53H38V54V55H486V54Z" fill="#E5E7EB" mask="url(#path-2-inside-1_5_840)"/>
<path d="M50 33C50 29.6863 52.6863 27 56 27C59.3137 27 62 29.6863 62 33C62 36.3137 59.3137 39 56 39C52.6863 39 50 36.3137 50 33Z" fill="#FF6467"/>
<path d="M68 33C68 29.6863 70.6863 27 74 27C77.3137 27 80 29.6863 80 33C80 36.3137 77.3137 39 74 39C70.6863 39 68 36.3137 68 33Z" fill="#FDC700"/>
<path d="M86 33C86 29.6863 88.6863 27 92 27C95.3137 27 98 29.6863 98 33C98 36.3137 95.3137 39 92 39C88.6863 39 86 36.3137 86 33Z" fill="#05DF72"/>
<path d="M106 25C106 22.7909 107.791 21 110 21H470C472.209 21 474 22.7909 474 25V41C474 43.2091 472.209 45 470 45H110C107.791 45 106 43.2091 106 41V25Z" fill="white"/>
<path d="M119.926 33.0625V37H118.92V30.4545H119.892V31.4773H119.977C120.131 31.1449 120.364 30.8778 120.676 30.6761C120.989 30.4716 121.392 30.3693 121.886 30.3693C122.33 30.3693 122.717 30.4602 123.05 30.642C123.382 30.821 123.641 31.0938 123.825 31.4602C124.01 31.8239 124.102 32.2841 124.102 32.8409V37H123.097V32.9091C123.097 32.3949 122.963 31.9943 122.696 31.7074C122.429 31.4176 122.063 31.2727 121.597 31.2727C121.276 31.2727 120.989 31.3423 120.736 31.4815C120.486 31.6207 120.288 31.8239 120.143 32.0909C119.999 32.358 119.926 32.6818 119.926 33.0625ZM125.94 37V30.4545H126.946V37H125.94ZM126.451 29.3636C126.255 29.3636 126.086 29.2969 125.944 29.1634C125.805 29.0298 125.735 28.8693 125.735 28.6818C125.735 28.4943 125.805 28.3338 125.944 28.2003C126.086 28.0668 126.255 28 126.451 28C126.647 28 126.815 28.0668 126.954 28.2003C127.096 28.3338 127.167 28.4943 127.167 28.6818C127.167 28.8693 127.096 29.0298 126.954 29.1634C126.815 29.2969 126.647 29.3636 126.451 29.3636ZM131.447 37.1364C130.856 37.1364 130.337 36.9957 129.891 36.7145C129.448 36.4332 129.102 36.0398 128.852 35.5341C128.604 35.0284 128.481 34.4375 128.481 33.7614C128.481 33.0795 128.604 32.4844 128.852 31.9759C129.102 31.4673 129.448 31.0724 129.891 30.7912C130.337 30.5099 130.856 30.3693 131.447 30.3693C132.038 30.3693 132.555 30.5099 132.998 30.7912C133.444 31.0724 133.79 31.4673 134.038 31.9759C134.288 32.4844 134.413 33.0795 134.413 33.7614C134.413 34.4375 134.288 35.0284 134.038 35.5341C133.79 36.0398 133.444 36.4332 132.998 36.7145C132.555 36.9957 132.038 37.1364 131.447 37.1364ZM131.447 36.233C131.896 36.233 132.265 36.1179 132.555 35.8878C132.844 35.6577 133.059 35.3551 133.198 34.9801C133.337 34.6051 133.407 34.1989 133.407 33.7614C133.407 33.3239 133.337 32.9162 133.198 32.5384C133.059 32.1605 132.844 31.8551 132.555 31.6222C132.265 31.3892 131.896 31.2727 131.447 31.2727C130.998 31.2727 130.629 31.3892 130.339 31.6222C130.049 31.8551 129.835 32.1605 129.695 32.5384C129.556 32.9162 129.487 33.3239 129.487 33.7614C129.487 34.1989 129.556 34.6051 129.695 34.9801C129.835 35.3551 130.049 35.6577 130.339 35.8878C130.629 36.1179 130.998 36.233 131.447 36.233ZM135.948 37V30.4545H136.919V31.4432H136.988C137.107 31.1193 137.323 30.8565 137.635 30.6548C137.948 30.4531 138.3 30.3523 138.692 30.3523C138.766 30.3523 138.858 30.3537 138.969 30.3565C139.08 30.3594 139.164 30.3636 139.221 30.3693V31.392C139.186 31.3835 139.108 31.3707 138.986 31.3537C138.867 31.3338 138.74 31.3239 138.607 31.3239C138.289 31.3239 138.005 31.3906 137.755 31.5241C137.507 31.6548 137.311 31.8366 137.167 32.0696C137.025 32.2997 136.953 32.5625 136.953 32.858V37H135.948ZM142.339 37.1534C141.924 37.1534 141.548 37.0753 141.21 36.919C140.871 36.7599 140.603 36.5312 140.404 36.233C140.205 35.9318 140.106 35.5682 140.106 35.142C140.106 34.767 140.18 34.4631 140.327 34.2301C140.475 33.9943 140.673 33.8097 140.92 33.6761C141.167 33.5426 141.44 33.4432 141.738 33.3778C142.039 33.3097 142.342 33.2557 142.646 33.2159C143.043 33.1648 143.366 33.1264 143.613 33.1009C143.863 33.0724 144.045 33.0256 144.158 32.9602C144.275 32.8949 144.333 32.7812 144.333 32.6193V32.5852C144.333 32.1648 144.218 31.8381 143.988 31.6051C143.761 31.3722 143.415 31.2557 142.952 31.2557C142.472 31.2557 142.096 31.3608 141.823 31.571C141.55 31.7812 141.359 32.0057 141.248 32.2443L140.293 31.9034C140.464 31.5057 140.691 31.196 140.975 30.9744C141.262 30.75 141.575 30.5937 141.913 30.5057C142.254 30.4148 142.589 30.3693 142.918 30.3693C143.129 30.3693 143.37 30.3949 143.643 30.446C143.918 30.4943 144.184 30.5952 144.44 30.7486C144.698 30.902 144.913 31.1335 145.083 31.4432C145.254 31.7528 145.339 32.1676 145.339 32.6875V37H144.333V36.1136H144.282C144.214 36.2557 144.1 36.4077 143.941 36.5696C143.782 36.7315 143.57 36.8693 143.306 36.983C143.042 37.0966 142.719 37.1534 142.339 37.1534ZM142.492 36.25C142.89 36.25 143.225 36.1719 143.498 36.0156C143.773 35.8594 143.981 35.6577 144.12 35.4105C144.262 35.1634 144.333 34.9034 144.333 34.6307V33.7102C144.29 33.7614 144.197 33.8082 144.052 33.8509C143.91 33.8906 143.745 33.9261 143.558 33.9574C143.373 33.9858 143.192 34.0114 143.016 34.0341C142.843 34.054 142.702 34.071 142.594 34.0852C142.333 34.1193 142.089 34.1747 141.862 34.2514C141.637 34.3253 141.455 34.4375 141.316 34.5881C141.18 34.7358 141.112 34.9375 141.112 35.1932C141.112 35.5426 141.241 35.8068 141.499 35.9858C141.761 36.1619 142.092 36.25 142.492 36.25ZM147.907 37.0682C147.697 37.0682 147.517 36.9929 147.366 36.8423C147.216 36.6918 147.14 36.5114 147.14 36.3011C147.14 36.0909 147.216 35.9105 147.366 35.7599C147.517 35.6094 147.697 35.5341 147.907 35.5341C148.118 35.5341 148.298 35.6094 148.449 35.7599C148.599 35.9105 148.674 36.0909 148.674 36.3011C148.674 36.4403 148.639 36.5682 148.568 36.6847C148.5 36.8011 148.407 36.8949 148.291 36.9659C148.177 37.0341 148.049 37.0682 147.907 37.0682ZM152.951 37.1364C152.405 37.1364 151.924 36.9986 151.506 36.723C151.088 36.4446 150.762 36.0526 150.526 35.5469C150.29 35.0384 150.172 34.4375 150.172 33.7443C150.172 33.0568 150.29 32.4602 150.526 31.9545C150.762 31.4489 151.09 31.0582 151.51 30.7827C151.931 30.5071 152.417 30.3693 152.968 30.3693C153.394 30.3693 153.73 30.4403 153.978 30.5824C154.228 30.7216 154.418 30.8807 154.549 31.0597C154.682 31.2358 154.786 31.3807 154.86 31.4943H154.945V28.2727H155.951V37H154.979V35.9943H154.86C154.786 36.1136 154.681 36.2642 154.544 36.446C154.408 36.625 154.213 36.7855 153.961 36.9276C153.708 37.0668 153.371 37.1364 152.951 37.1364ZM153.087 36.233C153.49 36.233 153.831 36.1278 154.11 35.9176C154.388 35.7045 154.6 35.4105 154.745 35.0355C154.89 34.6577 154.962 34.2216 154.962 33.7273C154.962 33.2386 154.891 32.8111 154.749 32.4446C154.607 32.0753 154.397 31.7884 154.118 31.5838C153.84 31.3764 153.496 31.2727 153.087 31.2727C152.661 31.2727 152.306 31.3821 152.022 31.6009C151.74 31.8168 151.529 32.1108 151.387 32.483C151.248 32.8523 151.178 33.267 151.178 33.7273C151.178 34.1932 151.249 34.6165 151.391 34.9972C151.536 35.375 151.749 35.6761 152.03 35.9006C152.314 36.1222 152.667 36.233 153.087 36.233ZM160.676 37.1364C160.046 37.1364 159.502 36.9972 159.044 36.7188C158.59 36.4375 158.239 36.0455 157.992 35.5426C157.748 35.0369 157.625 34.4489 157.625 33.7784C157.625 33.108 157.748 32.517 157.992 32.0057C158.239 31.4915 158.583 31.0909 159.023 30.804C159.466 30.5142 159.983 30.3693 160.574 30.3693C160.915 30.3693 161.252 30.4261 161.584 30.5398C161.917 30.6534 162.219 30.8381 162.492 31.0938C162.765 31.3466 162.982 31.6818 163.144 32.0994C163.306 32.517 163.387 33.0312 163.387 33.642V34.0682H158.341V33.1989H162.364C162.364 32.8295 162.29 32.5 162.142 32.2102C161.998 31.9205 161.79 31.6918 161.52 31.5241C161.253 31.3565 160.938 31.2727 160.574 31.2727C160.174 31.2727 159.827 31.3722 159.534 31.571C159.245 31.767 159.022 32.0227 158.865 32.3381C158.709 32.6534 158.631 32.9915 158.631 33.3523V33.9318C158.631 34.4261 158.716 34.8452 158.887 35.1889C159.06 35.5298 159.3 35.7898 159.607 35.9688C159.914 36.1449 160.27 36.233 160.676 36.233C160.941 36.233 161.179 36.196 161.392 36.1222C161.608 36.0455 161.794 35.9318 161.951 35.7812C162.107 35.6278 162.228 35.4375 162.313 35.2102L163.284 35.483C163.182 35.8125 163.01 36.1023 162.769 36.3523C162.527 36.5994 162.229 36.7926 161.874 36.9318C161.519 37.0682 161.12 37.1364 160.676 37.1364ZM169.553 31.9205L168.65 32.1761C168.593 32.0256 168.509 31.8793 168.398 31.7372C168.29 31.5923 168.142 31.473 167.955 31.3793C167.767 31.2855 167.527 31.2386 167.235 31.2386C166.834 31.2386 166.5 31.331 166.233 31.5156C165.969 31.6974 165.837 31.929 165.837 32.2102C165.837 32.4602 165.928 32.6577 166.11 32.8026C166.292 32.9474 166.576 33.0682 166.962 33.1648L167.934 33.4034C168.519 33.5455 168.955 33.7628 169.242 34.0554C169.529 34.3452 169.672 34.7187 169.672 35.1761C169.672 35.5511 169.564 35.8864 169.348 36.1818C169.135 36.4773 168.837 36.7102 168.453 36.8807C168.07 37.0511 167.624 37.1364 167.115 37.1364C166.448 37.1364 165.895 36.9915 165.458 36.7017C165.02 36.4119 164.743 35.9886 164.627 35.4318L165.581 35.1932C165.672 35.5455 165.844 35.8097 166.097 35.9858C166.353 36.1619 166.686 36.25 167.098 36.25C167.567 36.25 167.939 36.1506 168.215 35.9517C168.493 35.75 168.632 35.5085 168.632 35.2273C168.632 35 168.553 34.8097 168.394 34.6562C168.235 34.5 167.99 34.3835 167.661 34.3068L166.57 34.0511C165.971 33.9091 165.53 33.6889 165.249 33.3906C164.971 33.0895 164.831 32.7131 164.831 32.2614C164.831 31.892 164.935 31.5653 165.142 31.2812C165.353 30.9972 165.638 30.7741 165.999 30.6122C166.363 30.4503 166.775 30.3693 167.235 30.3693C167.882 30.3693 168.391 30.5114 168.76 30.7955C169.132 31.0795 169.397 31.4545 169.553 31.9205ZM171.186 37V30.4545H172.192V37H171.186ZM171.697 29.3636C171.501 29.3636 171.332 29.2969 171.19 29.1634C171.051 29.0298 170.982 28.8693 170.982 28.6818C170.982 28.4943 171.051 28.3338 171.19 28.2003C171.332 28.0668 171.501 28 171.697 28C171.893 28 172.061 28.0668 172.2 28.2003C172.342 28.3338 172.413 28.4943 172.413 28.6818C172.413 28.8693 172.342 29.0298 172.2 29.1634C172.061 29.2969 171.893 29.3636 171.697 29.3636ZM176.676 39.5909C176.19 39.5909 175.772 39.5284 175.423 39.4034C175.074 39.2812 174.782 39.1193 174.549 38.9176C174.319 38.7188 174.136 38.5057 174 38.2784L174.801 37.7159C174.892 37.8352 175.007 37.9716 175.146 38.125C175.285 38.2812 175.475 38.4162 175.717 38.5298C175.961 38.6463 176.281 38.7045 176.676 38.7045C177.204 38.7045 177.64 38.5767 177.984 38.321C178.328 38.0653 178.5 37.6648 178.5 37.1193V35.7898H178.414C178.341 35.9091 178.235 36.0568 178.099 36.233C177.966 36.4062 177.772 36.5611 177.52 36.6974C177.27 36.831 176.931 36.8977 176.505 36.8977C175.977 36.8977 175.502 36.7727 175.082 36.5227C174.664 36.2727 174.333 35.9091 174.089 35.4318C173.848 34.9545 173.727 34.375 173.727 33.6932C173.727 33.0227 173.845 32.4389 174.081 31.9418C174.316 31.4418 174.645 31.0554 175.065 30.7827C175.485 30.5071 175.971 30.3693 176.522 30.3693C176.949 30.3693 177.287 30.4403 177.537 30.5824C177.789 30.7216 177.983 30.8807 178.116 31.0597C178.252 31.2358 178.358 31.3807 178.431 31.4943H178.534V30.4545H179.505V37.1875C179.505 37.75 179.377 38.2074 179.122 38.5597C178.869 38.9148 178.528 39.1747 178.099 39.3395C177.673 39.5071 177.199 39.5909 176.676 39.5909ZM176.642 35.9943C177.045 35.9943 177.386 35.902 177.664 35.7173C177.943 35.5327 178.154 35.267 178.299 34.9205C178.444 34.5739 178.517 34.1591 178.517 33.6761C178.517 33.2045 178.446 32.7884 178.304 32.4276C178.162 32.0668 177.951 31.7841 177.673 31.5795C177.395 31.375 177.051 31.2727 176.642 31.2727C176.216 31.2727 175.86 31.3807 175.576 31.5966C175.295 31.8125 175.083 32.1023 174.941 32.4659C174.802 32.8295 174.733 33.233 174.733 33.6761C174.733 34.1307 174.804 34.5327 174.946 34.8821C175.091 35.2287 175.304 35.5014 175.585 35.7003C175.869 35.8963 176.221 35.9943 176.642 35.9943ZM182.352 33.0625V37H181.346V30.4545H182.318V31.4773H182.403C182.556 31.1449 182.789 30.8778 183.102 30.6761C183.414 30.4716 183.818 30.3693 184.312 30.3693C184.755 30.3693 185.143 30.4602 185.475 30.642C185.808 30.821 186.066 31.0938 186.251 31.4602C186.436 31.8239 186.528 32.2841 186.528 32.8409V37H185.522V32.9091C185.522 32.3949 185.389 31.9943 185.122 31.7074C184.855 31.4176 184.488 31.2727 184.022 31.2727C183.701 31.2727 183.414 31.3423 183.162 31.4815C182.912 31.6207 182.714 31.8239 182.569 32.0909C182.424 32.358 182.352 32.6818 182.352 33.0625Z" fill="#99A1AF"/>
<path d="M54 80C54 74.4772 58.4772 70 64 70H460C465.523 70 470 74.4772 470 80V172C470 177.523 465.523 182 460 182H64C58.4771 182 54 177.523 54 172V80Z" fill="#F9FAFB"/>
<path d="M218.909 108.091V143H214.818L195.795 115.591H195.455V143H191.227V108.091H195.318L214.409 135.568H214.75V108.091H218.909ZM231.947 108.091V143H227.719V108.091H231.947ZM270.229 125.545C270.229 129.227 269.564 132.409 268.234 135.091C266.905 137.773 265.081 139.841 262.763 141.295C260.445 142.75 257.797 143.477 254.82 143.477C251.842 143.477 249.195 142.75 246.876 141.295C244.558 139.841 242.734 137.773 241.405 135.091C240.075 132.409 239.411 129.227 239.411 125.545C239.411 121.864 240.075 118.682 241.405 116C242.734 113.318 244.558 111.25 246.876 109.795C249.195 108.341 251.842 107.614 254.82 107.614C257.797 107.614 260.445 108.341 262.763 109.795C265.081 111.25 266.905 113.318 268.234 116C269.564 118.682 270.229 121.864 270.229 125.545ZM266.138 125.545C266.138 122.523 265.632 119.972 264.621 117.892C263.621 115.812 262.263 114.239 260.547 113.17C258.842 112.102 256.933 111.568 254.82 111.568C252.706 111.568 250.791 112.102 249.075 113.17C247.371 114.239 246.013 115.812 245.001 117.892C244.001 119.972 243.501 122.523 243.501 125.545C243.501 128.568 244.001 131.119 245.001 133.199C246.013 135.278 247.371 136.852 249.075 137.92C250.791 138.989 252.706 139.523 254.82 139.523C256.933 139.523 258.842 138.989 260.547 137.92C262.263 136.852 263.621 135.278 264.621 133.199C265.632 131.119 266.138 128.568 266.138 125.545ZM277.688 143V108.091H289.484C292.211 108.091 294.45 108.557 296.2 109.489C297.95 110.409 299.245 111.676 300.086 113.29C300.927 114.903 301.347 116.739 301.347 118.795C301.347 120.852 300.927 122.676 300.086 124.267C299.245 125.858 297.955 127.108 296.217 128.017C294.478 128.915 292.256 129.364 289.552 129.364H280.006V125.545H289.415C291.279 125.545 292.779 125.273 293.915 124.727C295.063 124.182 295.893 123.409 296.404 122.409C296.927 121.398 297.188 120.193 297.188 118.795C297.188 117.398 296.927 116.176 296.404 115.131C295.881 114.085 295.046 113.278 293.898 112.71C292.751 112.131 291.234 111.841 289.347 111.841H281.915V143H277.688ZM294.12 127.318L302.711 143H297.802L289.347 127.318H294.12ZM310.175 143H305.743L318.561 108.091H322.925L335.743 143H331.311L320.879 113.614H320.607L310.175 143ZM311.811 129.364H329.675V133.114H311.811V129.364Z" fill="#0A0A0A"/>
<path d="M54 216C54 210.477 58.4772 206 64 206H108C113.523 206 118 210.477 118 216V260C118 265.523 113.523 270 108 270H64C58.4772 270 54 265.523 54 260V216Z" fill="#FB64B6"/>
<path d="M130 216C130 210.477 134.477 206 140 206H184C189.523 206 194 210.477 194 216V260C194 265.523 189.523 270 184 270H140C134.477 270 130 265.523 130 260V216Z" fill="#C27AFF"/>
<path d="M206 216C206 210.477 210.477 206 216 206H260C265.523 206 270 210.477 270 216V260C270 265.523 265.523 270 260 270H216C210.477 270 206 265.523 206 260V216Z" fill="#51A2FF"/>
<path d="M282 216C282 210.477 286.477 206 292 206H336C341.523 206 346 210.477 346 216V260C346 265.523 341.523 270 336 270H292C286.477 270 282 265.523 282 260V216Z" fill="#1E2939"/>
<path d="M71.9999 291.333C72.3681 291.333 72.6666 291.035 72.6666 290.667C72.6666 290.298 72.3681 290 71.9999 290C71.6317 290 71.3333 290.298 71.3333 290.667C71.3333 291.035 71.6317 291.333 71.9999 291.333Z" fill="#99A1AF" stroke="#99A1AF" stroke-width="2.66667" stroke-linecap="round" stroke-linejoin="round"/>
<path d="M77.3334 296.667C77.7016 296.667 78.0001 296.368 78.0001 296C78.0001 295.632 77.7016 295.333 77.3334 295.333C76.9652 295.333 76.6667 295.632 76.6667 296C76.6667 296.368 76.9652 296.667 77.3334 296.667Z" fill="#99A1AF" stroke="#99A1AF" stroke-width="2.66667" stroke-linecap="round" stroke-linejoin="round"/>
<path d="M65.3334 292.667C65.7016 292.667 66.0001 292.368 66.0001 292C66.0001 291.632 65.7016 291.333 65.3334 291.333C64.9652 291.333 64.6667 291.632 64.6667 292C64.6667 292.368 64.9652 292.667 65.3334 292.667Z" fill="#99A1AF" stroke="#99A1AF" stroke-width="2.66667" stroke-linecap="round" stroke-linejoin="round"/>
<path d="M62.6667 299.333C63.0349 299.333 63.3333 299.035 63.3333 298.667C63.3333 298.298 63.0349 298 62.6667 298C62.2985 298 62 298.298 62 298.667C62 299.035 62.2985 299.333 62.6667 299.333Z" fill="#99A1AF" stroke="#99A1AF" stroke-width="2.66667" stroke-linecap="round" stroke-linejoin="round"/>
<path d="M70.0001 284.667C62.6667 284.667 56.6667 290.667 56.6667 298C56.6667 305.333 62.6667 311.333 70.0001 311.333C71.2347 311.333 72.1974 310.339 72.1974 309.083C72.1974 308.5 71.9574 307.969 71.6147 307.583C71.2281 307.197 71.0307 306.713 71.0307 306.083C71.0257 305.789 71.0798 305.498 71.1897 305.226C71.2997 304.954 71.4634 304.706 71.6709 304.499C71.8784 304.291 72.1256 304.128 72.3977 304.018C72.6698 303.908 72.9613 303.854 73.2547 303.859H75.9161C79.9841 303.859 83.3227 300.521 83.3227 296.453C83.2867 290.016 77.2814 284.667 70.0001 284.667Z" stroke="#99A1AF" stroke-width="2.66667" stroke-linecap="round" stroke-linejoin="round"/>
<path d="M56.8295 363H54.6136L61.0227 345.545H63.2045L69.6136 363H67.3977L62.1818 348.307H62.0455L56.8295 363ZM57.6477 356.182H66.5795V358.057H57.6477V356.182ZM75.9822 363.307C75.1527 363.307 74.3999 363.151 73.7237 362.838C73.0476 362.52 72.5107 362.062 72.1129 361.466C71.7152 360.864 71.5163 360.136 71.5163 359.284C71.5163 358.534 71.6641 357.926 71.9595 357.46C72.255 356.989 72.6499 356.619 73.1442 356.352C73.6385 356.085 74.1839 355.886 74.7805 355.756C75.3828 355.619 75.9879 355.511 76.5959 355.432C77.3913 355.33 78.0362 355.253 78.5305 355.202C79.0305 355.145 79.3942 355.051 79.6214 354.92C79.8544 354.79 79.9709 354.562 79.9709 354.239V354.17C79.9709 353.33 79.7408 352.676 79.2805 352.21C78.826 351.744 78.1357 351.511 77.2095 351.511C76.2493 351.511 75.4964 351.722 74.951 352.142C74.4055 352.562 74.022 353.011 73.8004 353.489L71.8913 352.807C72.2322 352.011 72.6868 351.392 73.255 350.949C73.8288 350.5 74.4538 350.187 75.13 350.011C75.8118 349.83 76.4822 349.739 77.1413 349.739C77.5618 349.739 78.0447 349.79 78.5902 349.892C79.1413 349.989 79.6726 350.19 80.1839 350.497C80.701 350.804 81.13 351.267 81.4709 351.886C81.8118 352.506 81.9822 353.335 81.9822 354.375V363H79.9709V361.227H79.8686C79.7322 361.511 79.505 361.815 79.1868 362.139C78.8686 362.463 78.4453 362.739 77.9169 362.966C77.3885 363.193 76.7436 363.307 75.9822 363.307ZM76.2891 361.5C77.0845 361.5 77.755 361.344 78.3004 361.031C78.8516 360.719 79.2663 360.315 79.5447 359.821C79.8288 359.327 79.9709 358.807 79.9709 358.261V356.42C79.8857 356.523 79.6982 356.616 79.4084 356.702C79.1243 356.781 78.7947 356.852 78.4197 356.915C78.0504 356.972 77.6896 357.023 77.3374 357.068C76.9908 357.108 76.7095 357.142 76.4936 357.17C75.9709 357.239 75.4822 357.349 75.0277 357.503C74.5788 357.651 74.2152 357.875 73.9368 358.176C73.6641 358.472 73.5277 358.875 73.5277 359.386C73.5277 360.085 73.7862 360.614 74.3033 360.972C74.826 361.324 75.4879 361.5 76.2891 361.5ZM92.8168 363V345.545H98.919C100.135 345.545 101.138 345.756 101.928 346.176C102.717 346.591 103.305 347.151 103.692 347.855C104.078 348.554 104.271 349.33 104.271 350.182C104.271 350.932 104.138 351.551 103.871 352.04C103.609 352.528 103.263 352.915 102.831 353.199C102.405 353.483 101.942 353.693 101.442 353.83V354C101.976 354.034 102.513 354.222 103.053 354.562C103.592 354.903 104.044 355.392 104.408 356.028C104.771 356.665 104.953 357.443 104.953 358.364C104.953 359.239 104.754 360.026 104.357 360.724C103.959 361.423 103.331 361.977 102.473 362.386C101.615 362.795 100.499 363 99.1236 363H92.8168ZM94.9304 361.125H99.1236C100.504 361.125 101.484 360.858 102.064 360.324C102.649 359.784 102.942 359.131 102.942 358.364C102.942 357.773 102.791 357.227 102.49 356.727C102.189 356.222 101.76 355.818 101.203 355.517C100.646 355.21 99.9872 355.057 99.2259 355.057H94.9304V361.125ZM94.9304 353.216H98.8509C99.4872 353.216 100.061 353.091 100.572 352.841C101.089 352.591 101.499 352.239 101.8 351.784C102.107 351.33 102.26 350.795 102.26 350.182C102.26 349.415 101.993 348.764 101.459 348.23C100.925 347.69 100.078 347.42 98.919 347.42H94.9304V353.216ZM108.496 363V345.545H110.508V351.989H110.678C110.826 351.761 111.031 351.472 111.292 351.119C111.559 350.761 111.94 350.443 112.434 350.165C112.934 349.881 113.61 349.739 114.462 349.739C115.565 349.739 116.536 350.014 117.377 350.565C118.218 351.116 118.874 351.898 119.346 352.909C119.817 353.92 120.053 355.114 120.053 356.489C120.053 357.875 119.817 359.077 119.346 360.094C118.874 361.105 118.221 361.889 117.386 362.446C116.55 362.997 115.587 363.273 114.496 363.273C113.656 363.273 112.982 363.134 112.477 362.855C111.971 362.571 111.582 362.25 111.309 361.892C111.036 361.528 110.826 361.227 110.678 360.989H110.44V363H108.496ZM110.474 356.455C110.474 357.443 110.619 358.315 110.908 359.071C111.198 359.821 111.621 360.409 112.178 360.835C112.735 361.256 113.417 361.466 114.224 361.466C115.065 361.466 115.766 361.244 116.329 360.801C116.897 360.352 117.323 359.75 117.607 358.994C117.897 358.233 118.042 357.386 118.042 356.455C118.042 355.534 117.9 354.705 117.616 353.966C117.337 353.222 116.914 352.634 116.346 352.202C115.783 351.764 115.076 351.545 114.224 351.545C113.406 351.545 112.718 351.753 112.161 352.168C111.604 352.577 111.184 353.151 110.9 353.889C110.616 354.622 110.474 355.477 110.474 356.455ZM144.339 351H142.225C142.1 350.392 141.881 349.858 141.569 349.398C141.262 348.938 140.887 348.551 140.444 348.239C140.006 347.92 139.521 347.682 138.987 347.523C138.452 347.364 137.896 347.284 137.316 347.284C136.259 347.284 135.302 347.551 134.444 348.085C133.592 348.619 132.913 349.406 132.407 350.446C131.907 351.486 131.657 352.761 131.657 354.273C131.657 355.784 131.907 357.06 132.407 358.099C132.913 359.139 133.592 359.926 134.444 360.46C135.302 360.994 136.259 361.261 137.316 361.261C137.896 361.261 138.452 361.182 138.987 361.023C139.521 360.864 140.006 360.628 140.444 360.315C140.887 359.997 141.262 359.608 141.569 359.148C141.881 358.682 142.1 358.148 142.225 357.545H144.339C144.18 358.437 143.89 359.236 143.469 359.94C143.049 360.645 142.526 361.244 141.901 361.739C141.276 362.227 140.575 362.599 139.796 362.855C139.023 363.111 138.197 363.239 137.316 363.239C135.827 363.239 134.504 362.875 133.344 362.148C132.185 361.42 131.273 360.386 130.609 359.045C129.944 357.705 129.612 356.114 129.612 354.273C129.612 352.432 129.944 350.841 130.609 349.5C131.273 348.159 132.185 347.125 133.344 346.398C134.504 345.67 135.827 345.307 137.316 345.307C138.197 345.307 139.023 345.435 139.796 345.69C140.575 345.946 141.276 346.321 141.901 346.815C142.526 347.304 143.049 347.901 143.469 348.605C143.89 349.304 144.18 350.102 144.339 351ZM152.87 363.273C151.643 363.273 150.586 362.983 149.7 362.403C148.813 361.824 148.131 361.026 147.654 360.009C147.177 358.991 146.938 357.83 146.938 356.523C146.938 355.193 147.183 354.02 147.671 353.003C148.165 351.98 148.853 351.182 149.734 350.608C150.62 350.028 151.654 349.739 152.836 349.739C153.756 349.739 154.586 349.909 155.325 350.25C156.063 350.591 156.668 351.068 157.14 351.682C157.612 352.295 157.904 353.011 158.018 353.83H156.006C155.853 353.233 155.512 352.705 154.984 352.244C154.461 351.778 153.756 351.545 152.87 351.545C152.086 351.545 151.398 351.75 150.808 352.159C150.222 352.562 149.765 353.134 149.435 353.872C149.112 354.605 148.95 355.466 148.95 356.455C148.95 357.466 149.109 358.347 149.427 359.097C149.751 359.847 150.205 360.429 150.79 360.844C151.381 361.259 152.075 361.466 152.87 361.466C153.393 361.466 153.867 361.375 154.293 361.193C154.719 361.011 155.08 360.75 155.376 360.409C155.671 360.068 155.881 359.659 156.006 359.182H158.018C157.904 359.955 157.623 360.651 157.174 361.27C156.731 361.884 156.143 362.372 155.41 362.736C154.683 363.094 153.836 363.273 152.87 363.273Z" fill="#0A0A0A"/>
<path d="M56.4659 382.818V393H55.233V382.818H56.4659ZM59.8018 388.406V393H58.6286V385.364H59.7621V386.557H59.8615C60.0405 386.169 60.3123 385.857 60.6768 385.622C61.0414 385.384 61.5121 385.264 62.0888 385.264C62.6058 385.264 63.0582 385.37 63.446 385.582C63.8338 385.791 64.1354 386.109 64.3509 386.537C64.5663 386.961 64.674 387.498 64.674 388.148V393H63.5007V388.227C63.5007 387.627 63.3449 387.16 63.0334 386.825C62.7218 386.487 62.2943 386.318 61.7507 386.318C61.3762 386.318 61.0414 386.399 60.7464 386.562C60.4548 386.724 60.2244 386.961 60.0554 387.273C59.8864 387.584 59.8018 387.962 59.8018 388.406ZM69.9886 385.364V386.358H66.0312V385.364H69.9886ZM67.1847 383.534H68.358V390.812C68.358 391.144 68.406 391.393 68.5021 391.558C68.6016 391.721 68.7275 391.83 68.88 391.886C69.0357 391.939 69.1998 391.966 69.3722 391.966C69.5014 391.966 69.6075 391.959 69.6903 391.946C69.7732 391.929 69.8395 391.916 69.8892 391.906L70.1278 392.96C70.0483 392.99 69.9373 393.02 69.7947 393.05C69.6522 393.083 69.4716 393.099 69.2528 393.099C68.9214 393.099 68.5966 393.028 68.2784 392.886C67.9635 392.743 67.7017 392.526 67.4929 392.234C67.2874 391.943 67.1847 391.575 67.1847 391.131V383.534ZM74.7228 393.159C73.987 393.159 73.3523 392.997 72.8187 392.672C72.2884 392.344 71.8791 391.886 71.5907 391.3C71.3057 390.71 71.1632 390.024 71.1632 389.241C71.1632 388.459 71.3057 387.77 71.5907 387.173C71.8791 386.573 72.2801 386.106 72.7939 385.771C73.3109 385.433 73.9141 385.264 74.6035 385.264C75.0012 385.264 75.394 385.33 75.7818 385.463C76.1696 385.596 76.5226 385.811 76.8407 386.109C77.1589 386.404 77.4125 386.795 77.6014 387.283C77.7903 387.77 77.8848 388.37 77.8848 389.082V389.58H71.9984V388.565H76.6916C76.6916 388.134 76.6054 387.75 76.4331 387.412C76.264 387.074 76.0221 386.807 75.7072 386.612C75.3957 386.416 75.0278 386.318 74.6035 386.318C74.1362 386.318 73.7318 386.434 73.3904 386.666C73.0524 386.895 72.7922 387.193 72.6099 387.561C72.4276 387.929 72.3365 388.323 72.3365 388.744V389.42C72.3365 389.997 72.4359 390.486 72.6348 390.887C72.8369 391.285 73.117 391.588 73.475 391.797C73.8329 392.002 74.2489 392.105 74.7228 392.105C75.0311 392.105 75.3095 392.062 75.5581 391.976C75.81 391.886 76.027 391.754 76.2093 391.578C76.3916 391.399 76.5325 391.177 76.6319 390.912L77.7654 391.23C77.6461 391.615 77.4456 391.953 77.1639 392.244C76.8822 392.533 76.5342 392.758 76.1199 392.92C75.7056 393.08 75.2399 393.159 74.7228 393.159ZM79.5192 393V385.364H80.6527V386.517H80.7322C80.8714 386.139 81.1233 385.833 81.4879 385.597C81.8525 385.362 82.2635 385.244 82.7209 385.244C82.8071 385.244 82.9148 385.246 83.044 385.249C83.1733 385.253 83.2711 385.258 83.3374 385.264V386.457C83.2976 386.447 83.2064 386.433 83.0639 386.413C82.9247 386.389 82.7772 386.378 82.6214 386.378C82.2502 386.378 81.9188 386.456 81.6271 386.612C81.3388 386.764 81.1101 386.976 80.9411 387.248C80.7753 387.516 80.6925 387.823 80.6925 388.168V393H79.5192ZM89.22 389.44C88.9747 389.44 88.7643 389.353 88.5886 389.177C88.4129 389.001 88.3251 388.791 88.3251 388.545C88.3251 388.3 88.4129 388.09 88.5886 387.914C88.7643 387.738 88.9747 387.651 89.22 387.651C89.4653 387.651 89.6757 387.738 89.8514 387.914C90.027 388.09 90.1149 388.3 90.1149 388.545C90.1149 388.708 90.0734 388.857 89.9906 388.993C89.911 389.129 89.8033 389.238 89.6674 389.321C89.5349 389.401 89.3857 389.44 89.22 389.44ZM95.5985 390.912V389.898L100.073 382.818H100.809V384.389H100.312L96.9309 389.739V389.818H102.956V390.912H95.5985ZM100.391 393V390.604V390.131V382.818H101.564V393H100.391ZM107.99 393.139C107.241 393.139 106.603 392.935 106.076 392.528C105.549 392.117 105.146 391.522 104.868 390.743C104.59 389.961 104.45 389.016 104.45 387.909C104.45 386.809 104.59 385.869 104.868 385.09C105.15 384.308 105.554 383.711 106.081 383.3C106.611 382.886 107.248 382.679 107.99 382.679C108.733 382.679 109.367 382.886 109.894 383.3C110.425 383.711 110.829 384.308 111.107 385.09C111.389 385.869 111.53 386.809 111.53 387.909C111.53 389.016 111.391 389.961 111.112 390.743C110.834 391.522 110.431 392.117 109.904 392.528C109.377 392.935 108.739 393.139 107.99 393.139ZM107.99 392.045C108.733 392.045 109.309 391.687 109.72 390.972C110.131 390.256 110.337 389.235 110.337 387.909C110.337 387.027 110.242 386.277 110.053 385.657C109.868 385.037 109.599 384.565 109.248 384.24C108.9 383.915 108.481 383.753 107.99 383.753C107.254 383.753 106.679 384.116 106.265 384.842C105.851 385.564 105.644 386.587 105.644 387.909C105.644 388.791 105.736 389.54 105.922 390.156C106.108 390.773 106.374 391.242 106.722 391.563C107.074 391.885 107.496 392.045 107.99 392.045ZM116.59 393.139C115.841 393.139 115.203 392.935 114.676 392.528C114.149 392.117 113.746 391.522 113.468 390.743C113.189 389.961 113.05 389.016 113.05 387.909C113.05 386.809 113.189 385.869 113.468 385.09C113.749 384.308 114.154 383.711 114.681 383.3C115.211 382.886 115.847 382.679 116.59 382.679C117.332 382.679 117.967 382.886 118.494 383.3C119.024 383.711 119.429 384.308 119.707 385.09C119.989 385.869 120.13 386.809 120.13 387.909C120.13 389.016 119.99 389.961 119.712 390.743C119.434 391.522 119.031 392.117 118.504 392.528C117.977 392.935 117.339 393.139 116.59 393.139ZM116.59 392.045C117.332 392.045 117.909 391.687 118.32 390.972C118.731 390.256 118.936 389.235 118.936 387.909C118.936 387.027 118.842 386.277 118.653 385.657C118.467 385.037 118.199 384.565 117.848 384.24C117.5 383.915 117.08 383.753 116.59 383.753C115.854 383.753 115.279 384.116 114.865 384.842C114.45 385.564 114.243 386.587 114.243 387.909C114.243 388.791 114.336 389.54 114.522 390.156C114.707 390.773 114.974 391.242 115.322 391.563C115.673 391.885 116.096 392.045 116.59 392.045ZM123.283 391.608L123.203 392.145C123.147 392.523 123.061 392.927 122.945 393.358C122.832 393.789 122.714 394.195 122.592 394.576C122.469 394.957 122.368 395.26 122.289 395.486H121.394C121.437 395.274 121.493 394.994 121.563 394.646C121.632 394.298 121.702 393.908 121.771 393.477C121.844 393.05 121.904 392.612 121.95 392.165L122.01 391.608H123.283ZM132.255 393.139C131.672 393.139 131.147 393.023 130.679 392.791C130.212 392.559 129.837 392.241 129.556 391.837C129.274 391.432 129.12 390.972 129.093 390.455H130.287C130.333 390.915 130.542 391.296 130.913 391.598C131.288 391.896 131.735 392.045 132.255 392.045C132.673 392.045 133.044 391.948 133.369 391.752C133.697 391.557 133.954 391.288 134.14 390.947C134.328 390.602 134.423 390.213 134.423 389.778C134.423 389.334 134.325 388.938 134.13 388.59C133.937 388.239 133.672 387.962 133.334 387.76C132.996 387.558 132.61 387.455 132.176 387.452C131.864 387.448 131.544 387.496 131.216 387.596C130.888 387.692 130.618 387.816 130.406 387.969L129.252 387.83L129.869 382.818H135.159V383.912H130.903L130.545 386.915H130.605C130.814 386.749 131.075 386.612 131.39 386.502C131.705 386.393 132.033 386.338 132.375 386.338C132.998 386.338 133.553 386.487 134.04 386.786C134.531 387.08 134.915 387.485 135.194 387.999C135.475 388.512 135.616 389.099 135.616 389.759C135.616 390.408 135.47 390.988 135.179 391.499C134.89 392.006 134.493 392.407 133.985 392.702C133.478 392.993 132.902 393.139 132.255 393.139ZM140.762 393.139C140.013 393.139 139.375 392.935 138.848 392.528C138.321 392.117 137.918 391.522 137.64 390.743C137.361 389.961 137.222 389.016 137.222 387.909C137.222 386.809 137.361 385.869 137.64 385.09C137.921 384.308 138.326 383.711 138.853 383.3C139.383 382.886 140.019 382.679 140.762 382.679C141.504 382.679 142.139 382.886 142.666 383.3C143.196 383.711 143.6 384.308 143.879 385.09C144.161 385.869 144.301 386.809 144.301 387.909C144.301 389.016 144.162 389.961 143.884 390.743C143.605 391.522 143.203 392.117 142.676 392.528C142.149 392.935 141.511 393.139 140.762 393.139ZM140.762 392.045C141.504 392.045 142.081 391.687 142.492 390.972C142.903 390.256 143.108 389.235 143.108 387.909C143.108 387.027 143.014 386.277 142.825 385.657C142.639 385.037 142.371 384.565 142.02 384.24C141.672 383.915 141.252 383.753 140.762 383.753C140.026 383.753 139.451 384.116 139.037 384.842C138.622 385.564 138.415 386.587 138.415 387.909C138.415 388.791 138.508 389.54 138.694 390.156C138.879 390.773 139.146 391.242 139.494 391.563C139.845 391.885 140.268 392.045 140.762 392.045ZM149.361 393.139C148.612 393.139 147.974 392.935 147.447 392.528C146.92 392.117 146.518 391.522 146.239 390.743C145.961 389.961 145.822 389.016 145.822 387.909C145.822 386.809 145.961 385.869 146.239 385.09C146.521 384.308 146.925 383.711 147.452 383.3C147.983 382.886 148.619 382.679 149.361 382.679C150.104 382.679 150.738 382.886 151.265 383.3C151.796 383.711 152.2 384.308 152.479 385.09C152.76 385.869 152.901 386.809 152.901 387.909C152.901 389.016 152.762 389.961 152.483 390.743C152.205 391.522 151.802 392.117 151.275 392.528C150.748 392.935 150.11 393.139 149.361 393.139ZM149.361 392.045C150.104 392.045 150.68 391.687 151.091 390.972C151.502 390.256 151.708 389.235 151.708 387.909C151.708 387.027 151.613 386.277 151.425 385.657C151.239 385.037 150.97 384.565 150.619 384.24C150.271 383.915 149.852 383.753 149.361 383.753C148.626 383.753 148.05 384.116 147.636 384.842C147.222 385.564 147.015 386.587 147.015 387.909C147.015 388.791 147.108 389.54 147.293 390.156C147.479 390.773 147.746 391.242 148.094 391.563C148.445 391.885 148.867 392.045 149.361 392.045ZM156.054 391.608L155.975 392.145C155.918 392.523 155.832 392.927 155.716 393.358C155.604 393.789 155.486 394.195 155.363 394.576C155.241 394.957 155.14 395.26 155.06 395.486H154.165C154.208 395.274 154.265 394.994 154.334 394.646C154.404 394.298 154.473 393.908 154.543 393.477C154.616 393.05 154.676 392.612 154.722 392.165L154.782 391.608H156.054ZM165.226 393.139C164.808 393.133 164.39 393.053 163.973 392.901C163.555 392.748 163.174 392.491 162.829 392.13C162.485 391.765 162.208 391.273 161.999 390.653C161.79 390.03 161.686 389.248 161.686 388.307C161.686 387.405 161.77 386.607 161.939 385.911C162.108 385.211 162.354 384.623 162.675 384.146C162.997 383.665 163.385 383.3 163.839 383.052C164.296 382.803 164.811 382.679 165.385 382.679C165.955 382.679 166.462 382.793 166.906 383.022C167.354 383.247 167.718 383.562 168 383.967C168.282 384.371 168.464 384.837 168.547 385.364H167.334C167.221 384.906 167.002 384.527 166.677 384.225C166.353 383.924 165.922 383.773 165.385 383.773C164.596 383.773 163.974 384.116 163.52 384.802C163.07 385.488 162.843 386.451 162.839 387.69H162.919C163.104 387.409 163.325 387.168 163.58 386.969C163.839 386.767 164.124 386.612 164.435 386.502C164.747 386.393 165.077 386.338 165.425 386.338C166.008 386.338 166.541 386.484 167.025 386.776C167.509 387.064 167.897 387.463 168.189 387.974C168.48 388.481 168.626 389.062 168.626 389.719C168.626 390.348 168.485 390.925 168.204 391.449C167.922 391.969 167.526 392.384 167.015 392.692C166.508 392.997 165.912 393.146 165.226 393.139ZM165.226 392.045C165.643 392.045 166.018 391.941 166.349 391.732C166.684 391.523 166.948 391.243 167.14 390.892C167.335 390.541 167.433 390.15 167.433 389.719C167.433 389.298 167.339 388.915 167.15 388.57C166.964 388.222 166.707 387.946 166.379 387.74C166.054 387.535 165.683 387.432 165.265 387.432C164.951 387.432 164.657 387.495 164.385 387.621C164.114 387.743 163.875 387.912 163.67 388.128C163.467 388.343 163.308 388.59 163.192 388.869C163.076 389.144 163.018 389.434 163.018 389.739C163.018 390.143 163.113 390.521 163.302 390.872C163.494 391.223 163.756 391.507 164.087 391.722C164.422 391.938 164.801 392.045 165.226 392.045ZM173.752 393.139C173.003 393.139 172.365 392.935 171.838 392.528C171.311 392.117 170.908 391.522 170.63 390.743C170.351 389.961 170.212 389.016 170.212 387.909C170.212 386.809 170.351 385.869 170.63 385.09C170.912 384.308 171.316 383.711 171.843 383.3C172.373 382.886 173.01 382.679 173.752 382.679C174.494 382.679 175.129 382.886 175.656 383.3C176.186 383.711 176.591 384.308 176.869 385.09C177.151 385.869 177.292 386.809 177.292 387.909C177.292 389.016 177.153 389.961 176.874 390.743C176.596 391.522 176.193 392.117 175.666 392.528C175.139 392.935 174.501 393.139 173.752 393.139ZM173.752 392.045C174.494 392.045 175.071 391.687 175.482 390.972C175.893 390.256 176.099 389.235 176.099 387.909C176.099 387.027 176.004 386.277 175.815 385.657C175.63 385.037 175.361 384.565 175.01 384.24C174.662 383.915 174.242 383.753 173.752 383.753C173.016 383.753 172.441 384.116 172.027 384.842C171.613 385.564 171.405 386.587 171.405 387.909C171.405 388.791 171.498 389.54 171.684 390.156C171.869 390.773 172.136 391.242 172.484 391.563C172.836 391.885 173.258 392.045 173.752 392.045ZM182.352 393.139C181.603 393.139 180.964 392.935 180.438 392.528C179.911 392.117 179.508 391.522 179.229 390.743C178.951 389.961 178.812 389.016 178.812 387.909C178.812 386.809 178.951 385.869 179.229 385.09C179.511 384.308 179.915 383.711 180.442 383.3C180.973 382.886 181.609 382.679 182.352 382.679C183.094 382.679 183.729 382.886 184.256 383.3C184.786 383.711 185.19 384.308 185.469 385.09C185.75 385.869 185.891 386.809 185.891 387.909C185.891 389.016 185.752 389.961 185.474 390.743C185.195 391.522 184.793 392.117 184.266 392.528C183.739 392.935 183.101 393.139 182.352 393.139ZM182.352 392.045C183.094 392.045 183.671 391.687 184.082 390.972C184.493 390.256 184.698 389.235 184.698 387.909C184.698 387.027 184.604 386.277 184.415 385.657C184.229 385.037 183.961 384.565 183.609 384.24C183.261 383.915 182.842 383.753 182.352 383.753C181.616 383.753 181.041 384.116 180.626 384.842C180.212 385.564 180.005 386.587 180.005 387.909C180.005 388.791 180.098 389.54 180.283 390.156C180.469 390.773 180.736 391.242 181.084 391.563C181.435 391.885 181.858 392.045 182.352 392.045Z" fill="#6A7282"/>
</g>
</g>
<defs>
<filter id="filter0_d_5_840" x="0" y="0" width="524" height="477" filterUnits="userSpaceOnUse" color-interpolation-filters="sRGB">
<feFlood flood-opacity="0" result="BackgroundImageFix"/>
<feColorMatrix in="SourceAlpha" type="matrix" values="0 0 0 0 0 0 0 0 0 0 0 0 0 0 0 0 0 0 127 0" result="hardAlpha"/>
<feMorphology radius="12" operator="erode" in="SourceAlpha" result="effect1_dropShadow_5_840"/>
<feOffset dy="25"/>
<feGaussianBlur stdDeviation="25"/>
<feComposite in2="hardAlpha" operator="out"/>
<feColorMatrix type="matrix" values="0 0 0 0 0 0 0 0 0 0 0 0 0 0 0 0 0 0 0.25 0"/>
<feBlend mode="normal" in2="BackgroundImageFix" result="effect1_dropShadow_5_840"/>
<feBlend mode="normal" in="SourceGraphic" in2="effect1_dropShadow_5_840" result="shape"/>
</filter>
<clipPath id="clip0_5_840">
<path d="M38 23C38 17.4771 42.4772 13 48 13H476C481.523 13 486 17.4772 486 23V404C486 409.523 481.523 414 476 414H48C42.4771 414 38 409.523 38 404V23Z" fill="white"/>
</clipPath>
</defs>
</svg>
