<svg width="524" height="433" viewBox="0 0 524 433" fill="none" xmlns="http://www.w3.org/2000/svg">
<g filter="url(#filter0_d_5_893)">
<g clip-path="url(#clip0_5_893)">
<path d="M38 23C38 17.4772 42.4772 13 48 13H476C481.523 13 486 17.4772 486 23V360C486 365.523 481.523 370 476 370H48C42.4771 370 38 365.523 38 360V23Z" fill="white"/>
<mask id="path-2-inside-1_5_893" fill="white">
<path d="M38 13H486V54H38V13Z"/>
</mask>
<path d="M38 13H486V54H38V13Z" fill="#F3F4F6"/>
<path d="M486 54V53H38V54V55H486V54Z" fill="#E5E7EB" mask="url(#path-2-inside-1_5_893)"/>
<path d="M50 33C50 29.6863 52.6863 27 56 27C59.3137 27 62 29.6863 62 33C62 36.3137 59.3137 39 56 39C52.6863 39 50 36.3137 50 33Z" fill="#FF6467"/>
<path d="M68 33C68 29.6863 70.6863 27 74 27C77.3137 27 80 29.6863 80 33C80 36.3137 77.3137 39 74 39C70.6863 39 68 36.3137 68 33Z" fill="#FDC700"/>
<path d="M86 33C86 29.6863 88.6863 27 92 27C95.3137 27 98 29.6863 98 33C98 36.3137 95.3137 39 92 39C88.6863 39 86 36.3137 86 33Z" fill="#05DF72"/>
<path d="M106 25C106 22.7909 107.791 21 110 21H470C472.209 21 474 22.7909 474 25V41C474 43.2091 472.209 45 470 45H110C107.791 45 106 43.2091 106 41V25Z" fill="white"/>
<path d="M119.926 33.0625V37H118.92V30.4545H119.892V31.4773H119.977C120.131 31.1449 120.364 30.8778 120.676 30.6761C120.989 30.4716 121.392 30.3693 121.886 30.3693C122.33 30.3693 122.717 30.4602 123.05 30.642C123.382 30.821 123.641 31.0938 123.825 31.4602C124.01 31.8239 124.102 32.2841 124.102 32.8409V37H123.097V32.9091C123.097 32.3949 122.963 31.9943 122.696 31.7074C122.429 31.4176 122.063 31.2727 121.597 31.2727C121.276 31.2727 120.989 31.3423 120.736 31.4815C120.486 31.6207 120.288 31.8239 120.143 32.0909C119.999 32.358 119.926 32.6818 119.926 33.0625ZM125.94 37V30.4545H126.946V37H125.94ZM126.451 29.3636C126.255 29.3636 126.086 29.2969 125.944 29.1634C125.805 29.0298 125.735 28.8693 125.735 28.6818C125.735 28.4943 125.805 28.3338 125.944 28.2003C126.086 28.0668 126.255 28 126.451 28C126.647 28 126.815 28.0668 126.954 28.2003C127.096 28.3338 127.167 28.4943 127.167 28.6818C127.167 28.8693 127.096 29.0298 126.954 29.1634C126.815 29.2969 126.647 29.3636 126.451 29.3636ZM131.447 37.1364C130.856 37.1364 130.337 36.9957 129.891 36.7145C129.448 36.4332 129.102 36.0398 128.852 35.5341C128.604 35.0284 128.481 34.4375 128.481 33.7614C128.481 33.0795 128.604 32.4844 128.852 31.9759C129.102 31.4673 129.448 31.0724 129.891 30.7912C130.337 30.5099 130.856 30.3693 131.447 30.3693C132.038 30.3693 132.555 30.5099 132.998 30.7912C133.444 31.0724 133.79 31.4673 134.038 31.9759C134.288 32.4844 134.413 33.0795 134.413 33.7614C134.413 34.4375 134.288 35.0284 134.038 35.5341C133.79 36.0398 133.444 36.4332 132.998 36.7145C132.555 36.9957 132.038 37.1364 131.447 37.1364ZM131.447 36.233C131.896 36.233 132.265 36.1179 132.555 35.8878C132.844 35.6577 133.059 35.3551 133.198 34.9801C133.337 34.6051 133.407 34.1989 133.407 33.7614C133.407 33.3239 133.337 32.9162 133.198 32.5384C133.059 32.1605 132.844 31.8551 132.555 31.6222C132.265 31.3892 131.896 31.2727 131.447 31.2727C130.998 31.2727 130.629 31.3892 130.339 31.6222C130.049 31.8551 129.835 32.1605 129.695 32.5384C129.556 32.9162 129.487 33.3239 129.487 33.7614C129.487 34.1989 129.556 34.6051 129.695 34.9801C129.835 35.3551 130.049 35.6577 130.339 35.8878C130.629 36.1179 130.998 36.233 131.447 36.233ZM135.948 37V30.4545H136.919V31.4432H136.988C137.107 31.1193 137.323 30.8565 137.635 30.6548C137.948 30.4531 138.3 30.3523 138.692 30.3523C138.766 30.3523 138.858 30.3537 138.969 30.3565C139.08 30.3594 139.164 30.3636 139.221 30.3693V31.392C139.186 31.3835 139.108 31.3707 138.986 31.3537C138.867 31.3338 138.74 31.3239 138.607 31.3239C138.289 31.3239 138.005 31.3906 137.755 31.5241C137.507 31.6548 137.311 31.8366 137.167 32.0696C137.025 32.2997 136.953 32.5625 136.953 32.858V37H135.948ZM142.339 37.1534C141.924 37.1534 141.548 37.0753 141.21 36.919C140.871 36.7599 140.603 36.5312 140.404 36.233C140.205 35.9318 140.106 35.5682 140.106 35.142C140.106 34.767 140.18 34.4631 140.327 34.2301C140.475 33.9943 140.673 33.8097 140.92 33.6761C141.167 33.5426 141.44 33.4432 141.738 33.3778C142.039 33.3097 142.342 33.2557 142.646 33.2159C143.043 33.1648 143.366 33.1264 143.613 33.1009C143.863 33.0724 144.045 33.0256 144.158 32.9602C144.275 32.8949 144.333 32.7812 144.333 32.6193V32.5852C144.333 32.1648 144.218 31.8381 143.988 31.6051C143.761 31.3722 143.415 31.2557 142.952 31.2557C142.472 31.2557 142.096 31.3608 141.823 31.571C141.55 31.7812 141.359 32.0057 141.248 32.2443L140.293 31.9034C140.464 31.5057 140.691 31.196 140.975 30.9744C141.262 30.75 141.575 30.5937 141.913 30.5057C142.254 30.4148 142.589 30.3693 142.918 30.3693C143.129 30.3693 143.37 30.3949 143.643 30.446C143.918 30.4943 144.184 30.5952 144.44 30.7486C144.698 30.902 144.913 31.1335 145.083 31.4432C145.254 31.7528 145.339 32.1676 145.339 32.6875V37H144.333V36.1136H144.282C144.214 36.2557 144.1 36.4077 143.941 36.5696C143.782 36.7315 143.57 36.8693 143.306 36.983C143.042 37.0966 142.719 37.1534 142.339 37.1534ZM142.492 36.25C142.89 36.25 143.225 36.1719 143.498 36.0156C143.773 35.8594 143.981 35.6577 144.12 35.4105C144.262 35.1634 144.333 34.9034 144.333 34.6307V33.7102C144.29 33.7614 144.197 33.8082 144.052 33.8509C143.91 33.8906 143.745 33.9261 143.558 33.9574C143.373 33.9858 143.192 34.0114 143.016 34.0341C142.843 34.054 142.702 34.071 142.594 34.0852C142.333 34.1193 142.089 34.1747 141.862 34.2514C141.637 34.3253 141.455 34.4375 141.316 34.5881C141.18 34.7358 141.112 34.9375 141.112 35.1932C141.112 35.5426 141.241 35.8068 141.499 35.9858C141.761 36.1619 142.092 36.25 142.492 36.25ZM147.907 37.0682C147.697 37.0682 147.517 36.9929 147.366 36.8423C147.216 36.6918 147.14 36.5114 147.14 36.3011C147.14 36.0909 147.216 35.9105 147.366 35.7599C147.517 35.6094 147.697 35.5341 147.907 35.5341C148.118 35.5341 148.298 35.6094 148.449 35.7599C148.599 35.9105 148.674 36.0909 148.674 36.3011C148.674 36.4403 148.639 36.5682 148.568 36.6847C148.5 36.8011 148.407 36.8949 148.291 36.9659C148.177 37.0341 148.049 37.0682 147.907 37.0682ZM152.951 37.1364C152.405 37.1364 151.924 36.9986 151.506 36.723C151.088 36.4446 150.762 36.0526 150.526 35.5469C150.29 35.0384 150.172 34.4375 150.172 33.7443C150.172 33.0568 150.29 32.4602 150.526 31.9545C150.762 31.4489 151.09 31.0582 151.51 30.7827C151.931 30.5071 152.417 30.3693 152.968 30.3693C153.394 30.3693 153.73 30.4403 153.978 30.5824C154.228 30.7216 154.418 30.8807 154.549 31.0597C154.682 31.2358 154.786 31.3807 154.86 31.4943H154.945V28.2727H155.951V37H154.979V35.9943H154.86C154.786 36.1136 154.681 36.2642 154.544 36.446C154.408 36.625 154.213 36.7855 153.961 36.9276C153.708 37.0668 153.371 37.1364 152.951 37.1364ZM153.087 36.233C153.49 36.233 153.831 36.1278 154.11 35.9176C154.388 35.7045 154.6 35.4105 154.745 35.0355C154.89 34.6577 154.962 34.2216 154.962 33.7273C154.962 33.2386 154.891 32.8111 154.749 32.4446C154.607 32.0753 154.397 31.7884 154.118 31.5838C153.84 31.3764 153.496 31.2727 153.087 31.2727C152.661 31.2727 152.306 31.3821 152.022 31.6009C151.74 31.8168 151.529 32.1108 151.387 32.483C151.248 32.8523 151.178 33.267 151.178 33.7273C151.178 34.1932 151.249 34.6165 151.391 34.9972C151.536 35.375 151.749 35.6761 152.03 35.9006C152.314 36.1222 152.667 36.233 153.087 36.233ZM160.676 37.1364C160.046 37.1364 159.502 36.9972 159.044 36.7188C158.59 36.4375 158.239 36.0455 157.992 35.5426C157.748 35.0369 157.625 34.4489 157.625 33.7784C157.625 33.108 157.748 32.517 157.992 32.0057C158.239 31.4915 158.583 31.0909 159.023 30.804C159.466 30.5142 159.983 30.3693 160.574 30.3693C160.915 30.3693 161.252 30.4261 161.584 30.5398C161.917 30.6534 162.219 30.8381 162.492 31.0938C162.765 31.3466 162.982 31.6818 163.144 32.0994C163.306 32.517 163.387 33.0312 163.387 33.642V34.0682H158.341V33.1989H162.364C162.364 32.8295 162.29 32.5 162.142 32.2102C161.998 31.9205 161.79 31.6918 161.52 31.5241C161.253 31.3565 160.938 31.2727 160.574 31.2727C160.174 31.2727 159.827 31.3722 159.534 31.571C159.245 31.767 159.022 32.0227 158.865 32.3381C158.709 32.6534 158.631 32.9915 158.631 33.3523V33.9318C158.631 34.4261 158.716 34.8452 158.887 35.1889C159.06 35.5298 159.3 35.7898 159.607 35.9688C159.914 36.1449 160.27 36.233 160.676 36.233C160.941 36.233 161.179 36.196 161.392 36.1222C161.608 36.0455 161.794 35.9318 161.951 35.7812C162.107 35.6278 162.228 35.4375 162.313 35.2102L163.284 35.483C163.182 35.8125 163.01 36.1023 162.769 36.3523C162.527 36.5994 162.229 36.7926 161.874 36.9318C161.519 37.0682 161.12 37.1364 160.676 37.1364ZM169.553 31.9205L168.65 32.1761C168.593 32.0256 168.509 31.8793 168.398 31.7372C168.29 31.5923 168.142 31.473 167.955 31.3793C167.767 31.2855 167.527 31.2386 167.235 31.2386C166.834 31.2386 166.5 31.331 166.233 31.5156C165.969 31.6974 165.837 31.929 165.837 32.2102C165.837 32.4602 165.928 32.6577 166.11 32.8026C166.292 32.9474 166.576 33.0682 166.962 33.1648L167.934 33.4034C168.519 33.5455 168.955 33.7628 169.242 34.0554C169.529 34.3452 169.672 34.7187 169.672 35.1761C169.672 35.5511 169.564 35.8864 169.348 36.1818C169.135 36.4773 168.837 36.7102 168.453 36.8807C168.07 37.0511 167.624 37.1364 167.115 37.1364C166.448 37.1364 165.895 36.9915 165.458 36.7017C165.02 36.4119 164.743 35.9886 164.627 35.4318L165.581 35.1932C165.672 35.5455 165.844 35.8097 166.097 35.9858C166.353 36.1619 166.686 36.25 167.098 36.25C167.567 36.25 167.939 36.1506 168.215 35.9517C168.493 35.75 168.632 35.5085 168.632 35.2273C168.632 35 168.553 34.8097 168.394 34.6562C168.235 34.5 167.99 34.3835 167.661 34.3068L166.57 34.0511C165.971 33.9091 165.53 33.6889 165.249 33.3906C164.971 33.0895 164.831 32.7131 164.831 32.2614C164.831 31.892 164.935 31.5653 165.142 31.2812C165.353 30.9972 165.638 30.7741 165.999 30.6122C166.363 30.4503 166.775 30.3693 167.235 30.3693C167.882 30.3693 168.391 30.5114 168.76 30.7955C169.132 31.0795 169.397 31.4545 169.553 31.9205ZM171.186 37V30.4545H172.192V37H171.186ZM171.697 29.3636C171.501 29.3636 171.332 29.2969 171.19 29.1634C171.051 29.0298 170.982 28.8693 170.982 28.6818C170.982 28.4943 171.051 28.3338 171.19 28.2003C171.332 28.0668 171.501 28 171.697 28C171.893 28 172.061 28.0668 172.2 28.2003C172.342 28.3338 172.413 28.4943 172.413 28.6818C172.413 28.8693 172.342 29.0298 172.2 29.1634C172.061 29.2969 171.893 29.3636 171.697 29.3636ZM176.676 39.5909C176.19 39.5909 175.772 39.5284 175.423 39.4034C175.074 39.2812 174.782 39.1193 174.549 38.9176C174.319 38.7188 174.136 38.5057 174 38.2784L174.801 37.7159C174.892 37.8352 175.007 37.9716 175.146 38.125C175.285 38.2812 175.475 38.4162 175.717 38.5298C175.961 38.6463 176.281 38.7045 176.676 38.7045C177.204 38.7045 177.64 38.5767 177.984 38.321C178.328 38.0653 178.5 37.6648 178.5 37.1193V35.7898H178.414C178.341 35.9091 178.235 36.0568 178.099 36.233C177.966 36.4062 177.772 36.5611 177.52 36.6974C177.27 36.831 176.931 36.8977 176.505 36.8977C175.977 36.8977 175.502 36.7727 175.082 36.5227C174.664 36.2727 174.333 35.9091 174.089 35.4318C173.848 34.9545 173.727 34.375 173.727 33.6932C173.727 33.0227 173.845 32.4389 174.081 31.9418C174.316 31.4418 174.645 31.0554 175.065 30.7827C175.485 30.5071 175.971 30.3693 176.522 30.3693C176.949 30.3693 177.287 30.4403 177.537 30.5824C177.789 30.7216 177.983 30.8807 178.116 31.0597C178.252 31.2358 178.358 31.3807 178.431 31.4943H178.534V30.4545H179.505V37.1875C179.505 37.75 179.377 38.2074 179.122 38.5597C178.869 38.9148 178.528 39.1747 178.099 39.3395C177.673 39.5071 177.199 39.5909 176.676 39.5909ZM176.642 35.9943C177.045 35.9943 177.386 35.902 177.664 35.7173C177.943 35.5327 178.154 35.267 178.299 34.9205C178.444 34.5739 178.517 34.1591 178.517 33.6761C178.517 33.2045 178.446 32.7884 178.304 32.4276C178.162 32.0668 177.951 31.7841 177.673 31.5795C177.395 31.375 177.051 31.2727 176.642 31.2727C176.216 31.2727 175.86 31.3807 175.576 31.5966C175.295 31.8125 175.083 32.1023 174.941 32.4659C174.802 32.8295 174.733 33.233 174.733 33.6761C174.733 34.1307 174.804 34.5327 174.946 34.8821C175.091 35.2287 175.304 35.5014 175.585 35.7003C175.869 35.8963 176.221 35.9943 176.642 35.9943ZM182.352 33.0625V37H181.346V30.4545H182.318V31.4773H182.403C182.556 31.1449 182.789 30.8778 183.102 30.6761C183.414 30.4716 183.818 30.3693 184.312 30.3693C184.755 30.3693 185.143 30.4602 185.475 30.642C185.808 30.821 186.066 31.0938 186.251 31.4602C186.436 31.8239 186.528 32.2841 186.528 32.8409V37H185.522V32.9091C185.522 32.3949 185.389 31.9943 185.122 31.7074C184.855 31.4176 184.488 31.2727 184.022 31.2727C183.701 31.2727 183.414 31.3423 183.162 31.4815C182.912 31.6207 182.714 31.8239 182.569 32.0909C182.424 32.358 182.352 32.6818 182.352 33.0625Z" fill="#99A1AF"/>
<path d="M54 80C54 74.4772 58.4772 70 64 70H460C465.523 70 470 74.4772 470 80V344C470 349.523 465.523 354 460 354H64C58.4771 354 54 349.523 54 344V80Z" fill="#101828"/>
<path d="M85.8271 102.431L80.0166 104.618L85.8271 106.785V108.036L78.6016 105.179V104.044L85.8271 101.187V102.431ZM92.3008 102.321V98.3633H93.5586V109H92.3008V108.036C92.0911 108.414 91.8109 108.704 91.46 108.904C91.1136 109.1 90.7126 109.198 90.2568 109.198C89.3317 109.198 88.6025 108.84 88.0693 108.125C87.5407 107.405 87.2764 106.414 87.2764 105.151C87.2764 103.907 87.543 102.932 88.0762 102.226C88.6094 101.515 89.3363 101.159 90.2568 101.159C90.7171 101.159 91.1227 101.259 91.4736 101.46C91.8245 101.656 92.1003 101.943 92.3008 102.321ZM88.6025 105.179C88.6025 106.154 88.7575 106.89 89.0674 107.387C89.3773 107.883 89.8353 108.132 90.4414 108.132C91.0475 108.132 91.5078 107.881 91.8223 107.38C92.1413 106.879 92.3008 106.145 92.3008 105.179C92.3008 104.208 92.1413 103.474 91.8223 102.978C91.5078 102.476 91.0475 102.226 90.4414 102.226C89.8353 102.226 89.3773 102.474 89.0674 102.971C88.7575 103.467 88.6025 104.203 88.6025 105.179ZM97.0312 101.371H100.251V108.022H102.746V109H96.498V108.022H98.9932V102.349H97.0312V101.371ZM98.9932 98.3975H100.251V99.9834H98.9932V98.3975ZM103.99 101.344H105.296L107.518 107.77L109.746 101.344H111.052L108.331 109H106.711L103.99 101.344ZM127.431 108.61C127.093 108.806 126.745 108.952 126.385 109.048C126.029 109.148 125.665 109.198 125.291 109.198C124.106 109.198 123.179 108.843 122.509 108.132C121.843 107.421 121.511 106.437 121.511 105.179C121.511 103.921 121.843 102.937 122.509 102.226C123.179 101.515 124.106 101.159 125.291 101.159C125.66 101.159 126.02 101.207 126.371 101.303C126.722 101.398 127.075 101.547 127.431 101.747V103.066C127.098 102.77 126.763 102.556 126.426 102.424C126.093 102.292 125.715 102.226 125.291 102.226C124.503 102.226 123.896 102.481 123.473 102.991C123.049 103.502 122.837 104.231 122.837 105.179C122.837 106.122 123.049 106.851 123.473 107.366C123.901 107.877 124.507 108.132 125.291 108.132C125.729 108.132 126.12 108.066 126.467 107.934C126.813 107.797 127.134 107.587 127.431 107.305V108.61ZM133.528 106.231C133.528 106.797 133.631 107.223 133.836 107.51C134.046 107.797 134.353 107.94 134.759 107.94H136.229V109H134.636C133.884 109 133.3 108.761 132.886 108.282C132.476 107.799 132.271 107.116 132.271 106.231V99.3066H130.254V98.3223H133.528V106.231ZM141.848 105.151H141.431C140.697 105.151 140.143 105.281 139.77 105.541C139.4 105.796 139.216 106.179 139.216 106.689C139.216 107.15 139.355 107.507 139.633 107.763C139.911 108.018 140.296 108.146 140.788 108.146C141.481 108.146 142.025 107.906 142.422 107.428C142.818 106.945 143.019 106.279 143.023 105.432V105.151H141.848ZM144.288 104.632V109H143.023V107.865C142.755 108.321 142.415 108.658 142.005 108.877C141.599 109.091 141.105 109.198 140.521 109.198C139.742 109.198 139.12 108.979 138.655 108.542C138.19 108.1 137.958 107.51 137.958 106.771C137.958 105.919 138.243 105.272 138.812 104.83C139.387 104.388 140.228 104.167 141.335 104.167H143.023V103.969C143.019 103.358 142.864 102.916 142.559 102.643C142.253 102.365 141.766 102.226 141.096 102.226C140.667 102.226 140.234 102.287 139.797 102.41C139.359 102.533 138.933 102.713 138.519 102.95V101.692C138.983 101.515 139.428 101.382 139.852 101.296C140.28 101.205 140.695 101.159 141.096 101.159C141.729 101.159 142.269 101.253 142.716 101.439C143.167 101.626 143.532 101.907 143.81 102.28C143.983 102.508 144.106 102.791 144.179 103.128C144.252 103.461 144.288 103.962 144.288 104.632ZM152.136 101.61V102.841C151.776 102.631 151.413 102.474 151.049 102.369C150.684 102.264 150.313 102.212 149.935 102.212C149.365 102.212 148.939 102.305 148.656 102.492C148.378 102.674 148.239 102.955 148.239 103.333C148.239 103.675 148.344 103.93 148.554 104.099C148.763 104.267 149.285 104.431 150.119 104.591L150.625 104.687C151.249 104.805 151.721 105.042 152.04 105.397C152.364 105.753 152.525 106.215 152.525 106.785C152.525 107.542 152.257 108.134 151.719 108.562C151.181 108.986 150.434 109.198 149.477 109.198C149.098 109.198 148.702 109.157 148.287 109.075C147.872 108.998 147.424 108.879 146.94 108.72V107.421C147.41 107.662 147.859 107.845 148.287 107.968C148.715 108.086 149.121 108.146 149.504 108.146C150.06 108.146 150.491 108.034 150.796 107.811C151.101 107.583 151.254 107.266 151.254 106.86C151.254 106.277 150.696 105.874 149.579 105.65L149.524 105.637L149.053 105.541C148.328 105.4 147.799 105.163 147.467 104.83C147.134 104.493 146.968 104.035 146.968 103.456C146.968 102.722 147.216 102.157 147.713 101.761C148.21 101.36 148.918 101.159 149.839 101.159C150.249 101.159 150.643 101.198 151.021 101.275C151.4 101.348 151.771 101.46 152.136 101.61ZM160.571 101.61V102.841C160.211 102.631 159.849 102.474 159.484 102.369C159.12 102.264 158.748 102.212 158.37 102.212C157.8 102.212 157.374 102.305 157.092 102.492C156.814 102.674 156.675 102.955 156.675 103.333C156.675 103.675 156.78 103.93 156.989 104.099C157.199 104.267 157.721 104.431 158.555 104.591L159.061 104.687C159.685 104.805 160.157 105.042 160.476 105.397C160.799 105.753 160.961 106.215 160.961 106.785C160.961 107.542 160.692 108.134 160.154 108.562C159.617 108.986 158.869 109.198 157.912 109.198C157.534 109.198 157.137 109.157 156.723 109.075C156.308 108.998 155.859 108.879 155.376 108.72V107.421C155.845 107.662 156.294 107.845 156.723 107.968C157.151 108.086 157.557 108.146 157.939 108.146C158.495 108.146 158.926 108.034 159.231 107.811C159.537 107.583 159.689 107.266 159.689 106.86C159.689 106.277 159.131 105.874 158.015 105.65L157.96 105.637L157.488 105.541C156.764 105.4 156.235 105.163 155.902 104.83C155.57 104.493 155.403 104.035 155.403 103.456C155.403 102.722 155.652 102.157 156.148 101.761C156.645 101.36 157.354 101.159 158.274 101.159C158.685 101.159 159.079 101.198 159.457 101.275C159.835 101.348 160.207 101.46 160.571 101.61ZM162.485 98.8281H164.372L168.364 107.202V98.8281H169.834V109H167.947L163.955 100.626V109H162.485V98.8281ZM175.59 105.151H175.173C174.439 105.151 173.885 105.281 173.512 105.541C173.143 105.796 172.958 106.179 172.958 106.689C172.958 107.15 173.097 107.507 173.375 107.763C173.653 108.018 174.038 108.146 174.53 108.146C175.223 108.146 175.768 107.906 176.164 107.428C176.561 106.945 176.761 106.279 176.766 105.432V105.151H175.59ZM178.03 104.632V109H176.766V107.865C176.497 108.321 176.157 108.658 175.747 108.877C175.341 109.091 174.847 109.198 174.264 109.198C173.484 109.198 172.862 108.979 172.397 108.542C171.933 108.1 171.7 107.51 171.7 106.771C171.7 105.919 171.985 105.272 172.555 104.83C173.129 104.388 173.97 104.167 175.077 104.167H176.766V103.969C176.761 103.358 176.606 102.916 176.301 102.643C175.995 102.365 175.508 102.226 174.838 102.226C174.41 102.226 173.977 102.287 173.539 102.41C173.102 102.533 172.675 102.713 172.261 102.95V101.692C172.726 101.515 173.17 101.382 173.594 101.296C174.022 101.205 174.437 101.159 174.838 101.159C175.471 101.159 176.011 101.253 176.458 101.439C176.909 101.626 177.274 101.907 177.552 102.28C177.725 102.508 177.848 102.791 177.921 103.128C177.994 103.461 178.03 103.962 178.03 104.632ZM183.848 102.123C184.003 101.795 184.199 101.553 184.436 101.398C184.677 101.239 184.966 101.159 185.304 101.159C185.919 101.159 186.352 101.398 186.603 101.877C186.858 102.351 186.985 103.246 186.985 104.563V109H185.837V104.618C185.837 103.538 185.775 102.868 185.652 102.608C185.534 102.344 185.315 102.212 184.996 102.212C184.632 102.212 184.381 102.353 184.244 102.636C184.112 102.914 184.046 103.575 184.046 104.618V109H182.897V104.618C182.897 103.524 182.831 102.85 182.699 102.595C182.572 102.34 182.339 102.212 182.002 102.212C181.669 102.212 181.437 102.353 181.305 102.636C181.177 102.914 181.113 103.575 181.113 104.618V109H179.972V101.344H181.113V102C181.264 101.727 181.451 101.519 181.674 101.378C181.902 101.232 182.159 101.159 182.446 101.159C182.793 101.159 183.08 101.239 183.308 101.398C183.54 101.558 183.72 101.799 183.848 102.123ZM195.318 104.543V105.158H189.87V105.199C189.834 106.243 190.032 106.993 190.465 107.448C190.902 107.904 191.518 108.132 192.311 108.132C192.712 108.132 193.131 108.068 193.568 107.94C194.006 107.813 194.473 107.619 194.97 107.359V108.61C194.491 108.806 194.029 108.952 193.582 109.048C193.14 109.148 192.712 109.198 192.297 109.198C191.107 109.198 190.178 108.843 189.508 108.132C188.838 107.416 188.503 106.432 188.503 105.179C188.503 103.957 188.831 102.982 189.487 102.253C190.144 101.524 191.019 101.159 192.112 101.159C193.088 101.159 193.855 101.49 194.416 102.15C194.981 102.811 195.282 103.609 195.318 104.543ZM194.061 104.174C194.006 103.645 193.812 103.189 193.479 102.807C193.151 102.419 192.677 102.226 192.058 102.226C191.451 102.226 190.952 102.426 190.561 102.827C190.169 103.228 189.954 103.679 189.918 104.181L194.061 104.174ZM196.699 105.582H203.925V106.737H196.699V105.582ZM196.699 102.362H203.925V103.518H196.699V102.362ZM210.993 98.4248V102.608H209.462V98.4248H210.993ZM207.35 98.4248V102.608H205.818V98.4248H207.35ZM220.222 108.61C219.884 108.806 219.536 108.952 219.176 109.048C218.82 109.148 218.456 109.198 218.082 109.198C216.897 109.198 215.97 108.843 215.3 108.132C214.634 107.421 214.302 106.437 214.302 105.179C214.302 103.921 214.634 102.937 215.3 102.226C215.97 101.515 216.897 101.159 218.082 101.159C218.451 101.159 218.811 101.207 219.162 101.303C219.513 101.398 219.866 101.547 220.222 101.747V103.066C219.889 102.77 219.554 102.556 219.217 102.424C218.884 102.292 218.506 102.226 218.082 102.226C217.294 102.226 216.688 102.481 216.264 102.991C215.84 103.502 215.628 104.231 215.628 105.179C215.628 106.122 215.84 106.851 216.264 107.366C216.692 107.877 217.298 108.132 218.082 108.132C218.52 108.132 218.911 108.066 219.258 107.934C219.604 107.797 219.925 107.587 220.222 107.305V108.61ZM225.615 102.226C224.977 102.226 224.494 102.474 224.166 102.971C223.838 103.467 223.674 104.203 223.674 105.179C223.674 106.149 223.838 106.885 224.166 107.387C224.494 107.883 224.977 108.132 225.615 108.132C226.258 108.132 226.743 107.883 227.071 107.387C227.399 106.885 227.563 106.149 227.563 105.179C227.563 104.203 227.399 103.467 227.071 102.971C226.743 102.474 226.258 102.226 225.615 102.226ZM225.615 101.159C226.677 101.159 227.488 101.503 228.049 102.191C228.614 102.88 228.896 103.875 228.896 105.179C228.896 106.487 228.616 107.485 228.056 108.173C227.495 108.856 226.682 109.198 225.615 109.198C224.553 109.198 223.742 108.856 223.182 108.173C222.621 107.485 222.341 106.487 222.341 105.179C222.341 103.875 222.621 102.88 223.182 102.191C223.742 101.503 224.553 101.159 225.615 101.159ZM237.024 104.256V109H235.76V104.256C235.76 103.568 235.639 103.062 235.397 102.738C235.156 102.415 234.778 102.253 234.263 102.253C233.675 102.253 233.221 102.463 232.902 102.882C232.588 103.297 232.431 103.894 232.431 104.673V109H231.173V101.344H232.431V102.492C232.654 102.055 232.957 101.724 233.34 101.501C233.723 101.273 234.176 101.159 234.7 101.159C235.479 101.159 236.061 101.417 236.443 101.932C236.831 102.442 237.024 103.217 237.024 104.256ZM242.473 99.1699V101.344H245.33V102.321H242.473V106.478C242.473 107.043 242.58 107.437 242.794 107.66C243.008 107.883 243.382 107.995 243.915 107.995H245.33V109H243.792C242.849 109 242.183 108.811 241.796 108.433C241.409 108.054 241.215 107.403 241.215 106.478V102.321H239.171V101.344H241.215V99.1699H242.473ZM251.51 105.151H251.093C250.359 105.151 249.805 105.281 249.432 105.541C249.062 105.796 248.878 106.179 248.878 106.689C248.878 107.15 249.017 107.507 249.295 107.763C249.573 108.018 249.958 108.146 250.45 108.146C251.143 108.146 251.688 107.906 252.084 107.428C252.48 106.945 252.681 106.279 252.686 105.432V105.151H251.51ZM253.95 104.632V109H252.686V107.865C252.417 108.321 252.077 108.658 251.667 108.877C251.261 109.091 250.767 109.198 250.184 109.198C249.404 109.198 248.782 108.979 248.317 108.542C247.853 108.1 247.62 107.51 247.62 106.771C247.62 105.919 247.905 105.272 248.475 104.83C249.049 104.388 249.89 104.167 250.997 104.167H252.686V103.969C252.681 103.358 252.526 102.916 252.221 102.643C251.915 102.365 251.428 102.226 250.758 102.226C250.329 102.226 249.896 102.287 249.459 102.41C249.021 102.533 248.595 102.713 248.181 102.95V101.692C248.646 101.515 249.09 101.382 249.514 101.296C249.942 101.205 250.357 101.159 250.758 101.159C251.391 101.159 251.931 101.253 252.378 101.439C252.829 101.626 253.194 101.907 253.472 102.28C253.645 102.508 253.768 102.791 253.841 103.128C253.914 103.461 253.95 103.962 253.95 104.632ZM257.307 101.371H260.526V108.022H263.021V109H256.773V108.022H259.269V102.349H257.307V101.371ZM259.269 98.3975H260.526V99.9834H259.269V98.3975ZM270.767 104.256V109H269.502V104.256C269.502 103.568 269.381 103.062 269.14 102.738C268.898 102.415 268.52 102.253 268.005 102.253C267.417 102.253 266.964 102.463 266.645 102.882C266.33 103.297 266.173 103.894 266.173 104.673V109H264.915V101.344H266.173V102.492C266.396 102.055 266.699 101.724 267.082 101.501C267.465 101.273 267.918 101.159 268.442 101.159C269.222 101.159 269.803 101.417 270.186 101.932C270.573 102.442 270.767 103.217 270.767 104.256ZM279.674 104.543V105.158H274.226V105.199C274.189 106.243 274.387 106.993 274.82 107.448C275.258 107.904 275.873 108.132 276.666 108.132C277.067 108.132 277.486 108.068 277.924 107.94C278.361 107.813 278.828 107.619 279.325 107.359V108.61C278.847 108.806 278.384 108.952 277.938 109.048C277.495 109.148 277.067 109.198 276.652 109.198C275.463 109.198 274.533 108.843 273.863 108.132C273.193 107.416 272.858 106.432 272.858 105.179C272.858 103.957 273.187 102.982 273.843 102.253C274.499 101.524 275.374 101.159 276.468 101.159C277.443 101.159 278.211 101.49 278.771 102.15C279.337 102.811 279.637 103.609 279.674 104.543ZM278.416 104.174C278.361 103.645 278.168 103.189 277.835 102.807C277.507 102.419 277.033 102.226 276.413 102.226C275.807 102.226 275.308 102.426 274.916 102.827C274.524 103.228 274.31 103.679 274.273 104.181L278.416 104.174ZM288.349 102.923C288.08 102.713 287.806 102.561 287.528 102.465C287.25 102.369 286.945 102.321 286.612 102.321C285.828 102.321 285.229 102.567 284.814 103.06C284.4 103.552 284.192 104.263 284.192 105.192V109H282.928V101.344H284.192V102.841C284.402 102.299 284.723 101.884 285.156 101.597C285.594 101.305 286.111 101.159 286.708 101.159C287.018 101.159 287.307 101.198 287.576 101.275C287.845 101.353 288.103 101.474 288.349 101.638V102.923ZM295.349 98.4248V102.608H293.817V98.4248H295.349ZM291.705 98.4248V102.608H290.174V98.4248H291.705ZM297.926 102.431V101.187L305.151 104.044V105.179L297.926 108.036V106.785L303.736 104.618L297.926 102.431Z" fill="#C27AFF"/>
<path d="M101.827 130.431L96.0166 132.618L101.827 134.785V136.036L94.6016 133.179V132.044L101.827 129.187V130.431ZM103.372 126.794H104.76V130.704H108.54V126.794H109.928V137H108.54V131.866H104.76V137H103.372V126.794ZM118.527 132.543V133.158H113.079V133.199C113.043 134.243 113.241 134.993 113.674 135.448C114.111 135.904 114.727 136.132 115.52 136.132C115.921 136.132 116.34 136.068 116.777 135.94C117.215 135.813 117.682 135.619 118.179 135.359V136.61C117.7 136.806 117.238 136.952 116.791 137.048C116.349 137.148 115.921 137.198 115.506 137.198C114.316 137.198 113.387 136.843 112.717 136.132C112.047 135.416 111.712 134.432 111.712 133.179C111.712 131.957 112.04 130.982 112.696 130.253C113.353 129.524 114.228 129.159 115.321 129.159C116.297 129.159 117.064 129.49 117.625 130.15C118.19 130.811 118.491 131.609 118.527 132.543ZM117.27 132.174C117.215 131.645 117.021 131.189 116.688 130.807C116.36 130.419 115.886 130.226 115.267 130.226C114.66 130.226 114.161 130.426 113.77 130.827C113.378 131.228 113.163 131.679 113.127 132.181L117.27 132.174ZM124.105 133.151H123.688C122.955 133.151 122.401 133.281 122.027 133.541C121.658 133.796 121.474 134.179 121.474 134.689C121.474 135.15 121.613 135.507 121.891 135.763C122.169 136.018 122.554 136.146 123.046 136.146C123.739 136.146 124.283 135.906 124.68 135.428C125.076 134.945 125.277 134.279 125.281 133.432V133.151H124.105ZM126.546 132.632V137H125.281V135.865C125.012 136.321 124.673 136.658 124.263 136.877C123.857 137.091 123.363 137.198 122.779 137.198C122 137.198 121.378 136.979 120.913 136.542C120.448 136.1 120.216 135.51 120.216 134.771C120.216 133.919 120.501 133.272 121.07 132.83C121.645 132.388 122.485 132.167 123.593 132.167H125.281V131.969C125.277 131.358 125.122 130.916 124.816 130.643C124.511 130.365 124.023 130.226 123.354 130.226C122.925 130.226 122.492 130.287 122.055 130.41C121.617 130.533 121.191 130.713 120.776 130.95V129.692C121.241 129.515 121.686 129.382 122.109 129.296C122.538 129.205 122.952 129.159 123.354 129.159C123.987 129.159 124.527 129.253 124.974 129.439C125.425 129.626 125.789 129.907 126.067 130.28C126.241 130.508 126.364 130.791 126.437 131.128C126.509 131.461 126.546 131.962 126.546 132.632ZM133.607 130.321V126.363H134.865V137H133.607V136.036C133.398 136.414 133.118 136.704 132.767 136.904C132.42 137.1 132.019 137.198 131.563 137.198C130.638 137.198 129.909 136.84 129.376 136.125C128.847 135.405 128.583 134.414 128.583 133.151C128.583 131.907 128.85 130.932 129.383 130.226C129.916 129.515 130.643 129.159 131.563 129.159C132.024 129.159 132.429 129.259 132.78 129.46C133.131 129.656 133.407 129.943 133.607 130.321ZM129.909 133.179C129.909 134.154 130.064 134.89 130.374 135.387C130.684 135.883 131.142 136.132 131.748 136.132C132.354 136.132 132.814 135.881 133.129 135.38C133.448 134.879 133.607 134.145 133.607 133.179C133.607 132.208 133.448 131.474 133.129 130.978C132.814 130.476 132.354 130.226 131.748 130.226C131.142 130.226 130.684 130.474 130.374 130.971C130.064 131.467 129.909 132.203 129.909 133.179ZM143.834 132.543V133.158H138.386V133.199C138.349 134.243 138.548 134.993 138.98 135.448C139.418 135.904 140.033 136.132 140.826 136.132C141.227 136.132 141.646 136.068 142.084 135.94C142.521 135.813 142.989 135.619 143.485 135.359V136.61C143.007 136.806 142.544 136.952 142.098 137.048C141.656 137.148 141.227 137.198 140.812 137.198C139.623 137.198 138.693 136.843 138.023 136.132C137.354 135.416 137.019 134.432 137.019 133.179C137.019 131.957 137.347 130.982 138.003 130.253C138.659 129.524 139.534 129.159 140.628 129.159C141.603 129.159 142.371 129.49 142.932 130.15C143.497 130.811 143.798 131.609 143.834 132.543ZM142.576 132.174C142.521 131.645 142.328 131.189 141.995 130.807C141.667 130.419 141.193 130.226 140.573 130.226C139.967 130.226 139.468 130.426 139.076 130.827C138.684 131.228 138.47 131.679 138.434 132.181L142.576 132.174ZM152.509 130.923C152.24 130.713 151.966 130.561 151.688 130.465C151.41 130.369 151.105 130.321 150.772 130.321C149.989 130.321 149.389 130.567 148.975 131.06C148.56 131.552 148.353 132.263 148.353 133.192V137H147.088V129.344H148.353V130.841C148.562 130.299 148.883 129.884 149.316 129.597C149.754 129.305 150.271 129.159 150.868 129.159C151.178 129.159 151.467 129.198 151.736 129.275C152.005 129.353 152.263 129.474 152.509 129.638V130.923ZM167.562 126.794H168.86L163.487 138.299H162.182L167.562 126.794ZM170.521 130.431V129.187L177.747 132.044V133.179L170.521 136.036V134.785L176.332 132.618L170.521 130.431Z" fill="#51A2FF"/>
<path d="M101.827 158.431L96.0166 160.618L101.827 162.785V164.036L94.6016 161.179V160.044L101.827 157.187V158.431ZM102.682 154.828H104.527L106.291 160.01L108.068 154.828H109.921V165H108.643V156.011L106.824 161.37H105.778L103.953 156.011V165H102.682V154.828ZM115.67 161.151H115.253C114.519 161.151 113.965 161.281 113.592 161.541C113.223 161.796 113.038 162.179 113.038 162.689C113.038 163.15 113.177 163.507 113.455 163.763C113.733 164.018 114.118 164.146 114.61 164.146C115.303 164.146 115.848 163.906 116.244 163.428C116.641 162.945 116.841 162.279 116.846 161.432V161.151H115.67ZM118.11 160.632V165H116.846V163.865C116.577 164.321 116.237 164.658 115.827 164.877C115.422 165.091 114.927 165.198 114.344 165.198C113.564 165.198 112.942 164.979 112.478 164.542C112.013 164.1 111.78 163.51 111.78 162.771C111.78 161.919 112.065 161.272 112.635 160.83C113.209 160.388 114.05 160.167 115.157 160.167H116.846V159.969C116.841 159.358 116.686 158.916 116.381 158.643C116.076 158.365 115.588 158.226 114.918 158.226C114.49 158.226 114.057 158.287 113.619 158.41C113.182 158.533 112.756 158.713 112.341 158.95V157.692C112.806 157.515 113.25 157.382 113.674 157.296C114.102 157.205 114.517 157.159 114.918 157.159C115.551 157.159 116.091 157.253 116.538 157.439C116.989 157.626 117.354 157.907 117.632 158.28C117.805 158.508 117.928 158.791 118.001 159.128C118.074 159.461 118.11 159.962 118.11 160.632ZM121.467 157.371H124.687V164.022H127.182V165H120.934V164.022H123.429V158.349H121.467V157.371ZM123.429 154.397H124.687V155.983H123.429V154.397ZM134.927 160.256V165H133.662V160.256C133.662 159.568 133.541 159.062 133.3 158.738C133.058 158.415 132.68 158.253 132.165 158.253C131.577 158.253 131.124 158.463 130.805 158.882C130.49 159.297 130.333 159.894 130.333 160.673V165H129.075V157.344H130.333V158.492C130.556 158.055 130.859 157.724 131.242 157.501C131.625 157.273 132.078 157.159 132.603 157.159C133.382 157.159 133.963 157.417 134.346 157.932C134.733 158.442 134.927 159.217 134.927 160.256ZM136.779 158.431V157.187L144.005 160.044V161.179L136.779 164.036V162.785L142.59 160.618L136.779 158.431Z" fill="#05DF72"/>
<path d="M117.055 193.349V194.333H116.617C115.482 194.333 114.721 194.164 114.334 193.827C113.951 193.49 113.76 192.818 113.76 191.811V190.443C113.76 189.947 113.618 189.518 113.336 189.158C113.058 188.798 112.625 188.618 112.037 188.618H111.203V187.641H112.037C112.68 187.641 113.126 187.488 113.377 187.183C113.632 186.877 113.76 186.428 113.76 185.836V184.059C113.76 183.051 113.951 182.382 114.334 182.049C114.721 181.712 115.482 181.543 116.617 181.543H117.055V182.521H116.576C115.938 182.521 115.521 182.621 115.325 182.821C115.134 183.017 115.038 183.439 115.038 184.086V185.918C115.038 186.72 114.881 187.26 114.566 187.538C114.252 187.812 113.639 188.01 112.728 188.133C113.612 188.238 114.218 188.44 114.546 188.741C114.874 189.037 115.038 189.575 115.038 190.354V191.783C115.038 192.435 115.134 192.859 115.325 193.055C115.521 193.251 115.938 193.349 116.576 193.349H117.055ZM124.896 182.425V186.608H123.364V182.425H124.896ZM121.252 182.425V186.608H119.721V182.425H121.252ZM134.124 192.61C133.787 192.806 133.438 192.952 133.078 193.048C132.723 193.148 132.358 193.198 131.984 193.198C130.799 193.198 129.872 192.843 129.202 192.132C128.537 191.421 128.204 190.437 128.204 189.179C128.204 187.921 128.537 186.937 129.202 186.226C129.872 185.515 130.799 185.159 131.984 185.159C132.354 185.159 132.714 185.207 133.064 185.303C133.415 185.398 133.769 185.547 134.124 185.747V187.066C133.791 186.77 133.456 186.556 133.119 186.424C132.786 186.292 132.408 186.226 131.984 186.226C131.196 186.226 130.59 186.481 130.166 186.991C129.742 187.502 129.53 188.231 129.53 189.179C129.53 190.122 129.742 190.851 130.166 191.366C130.594 191.877 131.201 192.132 131.984 192.132C132.422 192.132 132.814 192.066 133.16 191.934C133.507 191.797 133.828 191.587 134.124 191.305V192.61ZM139.518 186.226C138.88 186.226 138.396 186.474 138.068 186.971C137.74 187.467 137.576 188.203 137.576 189.179C137.576 190.149 137.74 190.885 138.068 191.387C138.396 191.883 138.88 192.132 139.518 192.132C140.16 192.132 140.646 191.883 140.974 191.387C141.302 190.885 141.466 190.149 141.466 189.179C141.466 188.203 141.302 187.467 140.974 186.971C140.646 186.474 140.16 186.226 139.518 186.226ZM139.518 185.159C140.579 185.159 141.391 185.503 141.951 186.191C142.516 186.88 142.799 187.875 142.799 189.179C142.799 190.487 142.519 191.485 141.958 192.173C141.397 192.856 140.584 193.198 139.518 193.198C138.456 193.198 137.645 192.856 137.084 192.173C136.523 191.485 136.243 190.487 136.243 189.179C136.243 187.875 136.523 186.88 137.084 186.191C137.645 185.503 138.456 185.159 139.518 185.159ZM150.927 188.256V193H149.662V188.256C149.662 187.568 149.541 187.062 149.3 186.738C149.058 186.415 148.68 186.253 148.165 186.253C147.577 186.253 147.124 186.463 146.805 186.882C146.49 187.297 146.333 187.894 146.333 188.673V193H145.075V185.344H146.333V186.492C146.556 186.055 146.859 185.724 147.242 185.501C147.625 185.273 148.078 185.159 148.603 185.159C149.382 185.159 149.963 185.417 150.346 185.932C150.733 186.442 150.927 187.217 150.927 188.256ZM156.375 183.17V185.344H159.232V186.321H156.375V190.478C156.375 191.043 156.482 191.437 156.696 191.66C156.91 191.883 157.284 191.995 157.817 191.995H159.232V193H157.694C156.751 193 156.086 192.811 155.698 192.433C155.311 192.054 155.117 191.403 155.117 190.478V186.321H153.073V185.344H155.117V183.17H156.375ZM168.27 188.543V189.158H162.821V189.199C162.785 190.243 162.983 190.993 163.416 191.448C163.854 191.904 164.469 192.132 165.262 192.132C165.663 192.132 166.082 192.068 166.52 191.94C166.957 191.813 167.424 191.619 167.921 191.359V192.61C167.442 192.806 166.98 192.952 166.533 193.048C166.091 193.148 165.663 193.198 165.248 193.198C164.059 193.198 163.129 192.843 162.459 192.132C161.789 191.416 161.454 190.432 161.454 189.179C161.454 187.957 161.782 186.982 162.438 186.253C163.095 185.524 163.97 185.159 165.063 185.159C166.039 185.159 166.807 185.49 167.367 186.15C167.932 186.811 168.233 187.609 168.27 188.543ZM167.012 188.174C166.957 187.645 166.763 187.189 166.431 186.807C166.103 186.419 165.629 186.226 165.009 186.226C164.403 186.226 163.904 186.426 163.512 186.827C163.12 187.228 162.906 187.679 162.869 188.181L167.012 188.174ZM176.233 188.256V193H174.969V188.256C174.969 187.568 174.848 187.062 174.606 186.738C174.365 186.415 173.987 186.253 173.472 186.253C172.884 186.253 172.43 186.463 172.111 186.882C171.797 187.297 171.64 187.894 171.64 188.673V193H170.382V185.344H171.64V186.492C171.863 186.055 172.166 185.724 172.549 185.501C172.932 185.273 173.385 185.159 173.909 185.159C174.688 185.159 175.27 185.417 175.652 185.932C176.04 186.442 176.233 187.217 176.233 188.256ZM181.682 183.17V185.344H184.539V186.321H181.682V190.478C181.682 191.043 181.789 191.437 182.003 191.66C182.217 191.883 182.591 191.995 183.124 191.995H184.539V193H183.001C182.058 193 181.392 192.811 181.005 192.433C180.618 192.054 180.424 191.403 180.424 190.478V186.321H178.38V185.344H180.424V183.17H181.682ZM192.38 182.425V186.608H190.849V182.425H192.38ZM188.736 182.425V186.608H187.205V182.425H188.736ZM196.331 193.349C196.969 193.349 197.384 193.251 197.575 193.055C197.771 192.859 197.869 192.435 197.869 191.783V190.354C197.869 189.575 198.033 189.037 198.361 188.741C198.689 188.44 199.296 188.238 200.18 188.133C199.268 188.01 198.655 187.812 198.341 187.538C198.026 187.26 197.869 186.72 197.869 185.918V184.086C197.869 183.439 197.771 183.017 197.575 182.821C197.384 182.621 196.969 182.521 196.331 182.521H195.853V181.543H196.29C197.425 181.543 198.184 181.712 198.566 182.049C198.954 182.382 199.147 183.051 199.147 184.059V185.836C199.147 186.428 199.273 186.877 199.523 187.183C199.779 187.488 200.228 187.641 200.87 187.641H201.704V188.618H200.87C200.282 188.618 199.847 188.798 199.564 189.158C199.286 189.518 199.147 189.947 199.147 190.443V191.811C199.147 192.818 198.954 193.49 198.566 193.827C198.184 194.164 197.425 194.333 196.29 194.333H195.853V193.349H196.331Z" fill="#FB64B6"/>
<path d="M101.827 214.431L96.0166 216.618L101.827 218.785V220.036L94.6016 217.179V216.044L101.827 213.187V214.431ZM108.513 210.794H109.812L104.438 222.299H103.133L108.513 210.794ZM111.117 210.828H112.963L114.727 216.01L116.504 210.828H118.356V221H117.078V212.011L115.26 217.37H114.214L112.389 212.011V221H111.117V210.828ZM124.105 217.151H123.688C122.955 217.151 122.401 217.281 122.027 217.541C121.658 217.796 121.474 218.179 121.474 218.689C121.474 219.15 121.613 219.507 121.891 219.763C122.169 220.018 122.554 220.146 123.046 220.146C123.739 220.146 124.283 219.906 124.68 219.428C125.076 218.945 125.277 218.279 125.281 217.432V217.151H124.105ZM126.546 216.632V221H125.281V219.865C125.012 220.321 124.673 220.658 124.263 220.877C123.857 221.091 123.363 221.198 122.779 221.198C122 221.198 121.378 220.979 120.913 220.542C120.448 220.1 120.216 219.51 120.216 218.771C120.216 217.919 120.501 217.272 121.07 216.83C121.645 216.388 122.485 216.167 123.593 216.167H125.281V215.969C125.277 215.358 125.122 214.916 124.816 214.643C124.511 214.365 124.023 214.226 123.354 214.226C122.925 214.226 122.492 214.287 122.055 214.41C121.617 214.533 121.191 214.713 120.776 214.95V213.692C121.241 213.515 121.686 213.382 122.109 213.296C122.538 213.205 122.952 213.159 123.354 213.159C123.987 213.159 124.527 213.253 124.974 213.439C125.425 213.626 125.789 213.907 126.067 214.28C126.241 214.508 126.364 214.791 126.437 215.128C126.509 215.461 126.546 215.962 126.546 216.632ZM129.902 213.371H133.122V220.022H135.617V221H129.369V220.022H131.864V214.349H129.902V213.371ZM131.864 210.397H133.122V211.983H131.864V210.397ZM143.362 216.256V221H142.098V216.256C142.098 215.568 141.977 215.062 141.735 214.738C141.494 214.415 141.116 214.253 140.601 214.253C140.013 214.253 139.559 214.463 139.24 214.882C138.926 215.297 138.769 215.894 138.769 216.673V221H137.511V213.344H138.769V214.492C138.992 214.055 139.295 213.724 139.678 213.501C140.061 213.273 140.514 213.159 141.038 213.159C141.817 213.159 142.398 213.417 142.781 213.932C143.169 214.442 143.362 215.217 143.362 216.256ZM145.215 214.431V213.187L152.44 216.044V217.179L145.215 220.036V218.785L151.025 216.618L145.215 214.431Z" fill="#05DF72"/>
<path d="M101.827 242.431L96.0166 244.618L101.827 246.785V248.036L94.6016 245.179V244.044L101.827 241.187V242.431ZM104.028 238.794H110.037V239.956H105.416V242.69H109.606V243.853H105.416V249H104.028V238.794ZM115.082 242.226C114.444 242.226 113.961 242.474 113.633 242.971C113.305 243.467 113.141 244.203 113.141 245.179C113.141 246.149 113.305 246.885 113.633 247.387C113.961 247.883 114.444 248.132 115.082 248.132C115.725 248.132 116.21 247.883 116.538 247.387C116.866 246.885 117.03 246.149 117.03 245.179C117.03 244.203 116.866 243.467 116.538 242.971C116.21 242.474 115.725 242.226 115.082 242.226ZM115.082 241.159C116.144 241.159 116.955 241.503 117.516 242.191C118.081 242.88 118.363 243.875 118.363 245.179C118.363 246.487 118.083 247.485 117.522 248.173C116.962 248.856 116.148 249.198 115.082 249.198C114.02 249.198 113.209 248.856 112.648 248.173C112.088 247.485 111.808 246.487 111.808 245.179C111.808 243.875 112.088 242.88 112.648 242.191C113.209 241.503 114.02 241.159 115.082 241.159ZM123.518 242.226C122.88 242.226 122.396 242.474 122.068 242.971C121.74 243.467 121.576 244.203 121.576 245.179C121.576 246.149 121.74 246.885 122.068 247.387C122.396 247.883 122.88 248.132 123.518 248.132C124.16 248.132 124.646 247.883 124.974 247.387C125.302 246.885 125.466 246.149 125.466 245.179C125.466 244.203 125.302 243.467 124.974 242.971C124.646 242.474 124.16 242.226 123.518 242.226ZM123.518 241.159C124.579 241.159 125.391 241.503 125.951 242.191C126.516 242.88 126.799 243.875 126.799 245.179C126.799 246.487 126.519 247.485 125.958 248.173C125.397 248.856 124.584 249.198 123.518 249.198C122.456 249.198 121.645 248.856 121.084 248.173C120.523 247.485 120.243 246.487 120.243 245.179C120.243 243.875 120.523 242.88 121.084 242.191C121.645 241.503 122.456 241.159 123.518 241.159ZM131.939 239.17V241.344H134.797V242.321H131.939V246.478C131.939 247.043 132.047 247.437 132.261 247.66C132.475 247.883 132.849 247.995 133.382 247.995H134.797V249H133.259C132.315 249 131.65 248.811 131.263 248.433C130.875 248.054 130.682 247.403 130.682 246.478V242.321H128.638V241.344H130.682V239.17H131.939ZM143.834 244.543V245.158H138.386V245.199C138.349 246.243 138.548 246.993 138.98 247.448C139.418 247.904 140.033 248.132 140.826 248.132C141.227 248.132 141.646 248.068 142.084 247.94C142.521 247.813 142.989 247.619 143.485 247.359V248.61C143.007 248.806 142.544 248.952 142.098 249.048C141.656 249.148 141.227 249.198 140.812 249.198C139.623 249.198 138.693 248.843 138.023 248.132C137.354 247.416 137.019 246.432 137.019 245.179C137.019 243.957 137.347 242.982 138.003 242.253C138.659 241.524 139.534 241.159 140.628 241.159C141.603 241.159 142.371 241.49 142.932 242.15C143.497 242.811 143.798 243.609 143.834 244.543ZM142.576 244.174C142.521 243.645 142.328 243.189 141.995 242.807C141.667 242.419 141.193 242.226 140.573 242.226C139.967 242.226 139.468 242.426 139.076 242.827C138.684 243.228 138.47 243.679 138.434 244.181L142.576 244.174ZM152.509 242.923C152.24 242.713 151.966 242.561 151.688 242.465C151.41 242.369 151.105 242.321 150.772 242.321C149.989 242.321 149.389 242.567 148.975 243.06C148.56 243.552 148.353 244.263 148.353 245.192V249H147.088V241.344H148.353V242.841C148.562 242.299 148.883 241.884 149.316 241.597C149.754 241.305 150.271 241.159 150.868 241.159C151.178 241.159 151.467 241.198 151.736 241.275C152.005 241.353 152.263 241.474 152.509 241.638V242.923ZM167.562 238.794H168.86L163.487 250.299H162.182L167.562 238.794ZM170.521 242.431V241.187L177.747 244.044V245.179L170.521 248.036V246.785L176.332 244.618L170.521 242.431Z" fill="#51A2FF"/>
<path d="M85.8271 270.431L80.0166 272.618L85.8271 274.785V276.036L78.6016 273.179V272.044L85.8271 269.187V270.431ZM92.5127 266.794H93.8115L88.4385 278.299H87.1328L92.5127 266.794ZM100.736 270.321V266.363H101.994V277H100.736V276.036C100.527 276.414 100.246 276.704 99.8955 276.904C99.5492 277.1 99.1481 277.198 98.6924 277.198C97.7673 277.198 97.0381 276.84 96.5049 276.125C95.9762 275.405 95.7119 274.414 95.7119 273.151C95.7119 271.907 95.9785 270.932 96.5117 270.226C97.0449 269.515 97.7718 269.159 98.6924 269.159C99.1527 269.159 99.5583 269.259 99.9092 269.46C100.26 269.656 100.536 269.943 100.736 270.321ZM97.0381 273.179C97.0381 274.154 97.193 274.89 97.5029 275.387C97.8128 275.883 98.2708 276.132 98.877 276.132C99.4831 276.132 99.9434 275.881 100.258 275.38C100.577 274.879 100.736 274.145 100.736 273.179C100.736 272.208 100.577 271.474 100.258 270.978C99.9434 270.476 99.4831 270.226 98.877 270.226C98.2708 270.226 97.8128 270.474 97.5029 270.971C97.193 271.467 97.0381 272.203 97.0381 273.179ZM105.467 269.371H108.687V276.022H111.182V277H104.934V276.022H107.429V270.349H105.467V269.371ZM107.429 266.397H108.687V267.983H107.429V266.397ZM112.426 269.344H113.731L115.953 275.77L118.182 269.344H119.487L116.767 277H115.146L112.426 269.344ZM120.779 270.431V269.187L128.005 272.044V273.179L120.779 276.036V274.785L126.59 272.618L120.779 270.431Z" fill="#C27AFF"/>
<path d="M96 322L100 318L96 314" stroke="#05DF72" stroke-width="2" stroke-linecap="round" stroke-linejoin="round"/>
<path d="M84 314L80 318L84 322" stroke="#05DF72" stroke-width="2" stroke-linecap="round" stroke-linejoin="round"/>
<path d="M92.5 310L87.5 326" stroke="#05DF72" stroke-width="2" stroke-linecap="round" stroke-linejoin="round"/>
<path d="M112.162 317.588V321.027H113.562C114.25 321.027 114.74 320.908 115.033 320.67C115.326 320.428 115.473 320.031 115.473 319.48C115.473 318.754 115.318 318.258 115.01 317.992C114.701 317.723 114.219 317.588 113.562 317.588H112.162ZM112.162 314.225V316.627H113.539C114.109 316.627 114.521 316.518 114.775 316.299C115.033 316.08 115.162 315.805 115.162 315.473C115.162 315.031 115.035 314.713 114.781 314.518C114.531 314.322 114.117 314.225 113.539 314.225H112.162ZM110.973 313.252H113.562C114.457 313.252 115.146 313.445 115.631 313.832C116.115 314.219 116.357 314.766 116.357 315.473C116.357 315.852 116.229 316.195 115.971 316.504C115.717 316.812 115.334 317.006 114.822 317.084C115.396 317.17 115.846 317.416 116.17 317.822C116.498 318.225 116.662 318.816 116.662 319.598C116.662 320.391 116.402 320.99 115.883 321.396C115.363 321.799 114.59 322 113.562 322H110.973V313.252ZM118.373 319.516V315.449H119.451V319.516C119.451 320.105 119.555 320.539 119.762 320.816C119.973 321.094 120.297 321.232 120.734 321.232C121.242 321.232 121.631 321.055 121.9 320.699C122.17 320.34 122.305 319.826 122.305 319.158V315.449H123.389V322H122.305V321.016C122.113 321.395 121.852 321.682 121.52 321.877C121.191 322.072 120.807 322.17 120.365 322.17C119.693 322.17 119.193 321.951 118.865 321.514C118.537 321.072 118.373 320.406 118.373 319.516ZM126.312 315.461H129.072V321.162H131.211V322H125.855V321.162H127.994V316.299H126.312V315.461ZM127.994 312.912H129.072V314.271H127.994V312.912ZM135.904 319.627C135.904 320.111 135.992 320.477 136.168 320.723C136.348 320.969 136.611 321.092 136.959 321.092H138.219V322H136.854C136.209 322 135.709 321.795 135.354 321.385C135.002 320.971 134.826 320.385 134.826 319.627V313.691H133.098V312.848H135.904V319.627ZM143.949 316.275V312.883H145.027V322H143.949V321.174C143.77 321.498 143.529 321.746 143.229 321.918C142.932 322.086 142.588 322.17 142.197 322.17C141.404 322.17 140.779 321.863 140.322 321.25C139.869 320.633 139.643 319.783 139.643 318.701C139.643 317.635 139.871 316.799 140.328 316.193C140.785 315.584 141.408 315.279 142.197 315.279C142.592 315.279 142.939 315.365 143.24 315.537C143.541 315.705 143.777 315.951 143.949 316.275ZM140.779 318.725C140.779 319.561 140.912 320.191 141.178 320.617C141.443 321.043 141.836 321.256 142.355 321.256C142.875 321.256 143.27 321.041 143.539 320.611C143.812 320.182 143.949 319.553 143.949 318.725C143.949 317.893 143.812 317.264 143.539 316.838C143.27 316.408 142.875 316.193 142.355 316.193C141.836 316.193 141.443 316.406 141.178 316.832C140.912 317.258 140.779 317.889 140.779 318.725ZM159.084 315.666V316.721C158.775 316.541 158.465 316.406 158.152 316.316C157.84 316.227 157.521 316.182 157.197 316.182C156.709 316.182 156.344 316.262 156.102 316.422C155.863 316.578 155.744 316.818 155.744 317.143C155.744 317.436 155.834 317.654 156.014 317.799C156.193 317.943 156.641 318.084 157.355 318.221L157.789 318.303C158.324 318.404 158.729 318.607 159.002 318.912C159.279 319.217 159.418 319.613 159.418 320.102C159.418 320.75 159.188 321.258 158.727 321.625C158.266 321.988 157.625 322.17 156.805 322.17C156.48 322.17 156.141 322.135 155.785 322.064C155.43 321.998 155.045 321.896 154.631 321.76V320.646C155.033 320.854 155.418 321.01 155.785 321.115C156.152 321.217 156.5 321.268 156.828 321.268C157.305 321.268 157.674 321.172 157.936 320.98C158.197 320.785 158.328 320.514 158.328 320.166C158.328 319.666 157.85 319.32 156.893 319.129L156.846 319.117L156.441 319.035C155.82 318.914 155.367 318.711 155.082 318.426C154.797 318.137 154.654 317.744 154.654 317.248C154.654 316.619 154.867 316.135 155.293 315.795C155.719 315.451 156.326 315.279 157.115 315.279C157.467 315.279 157.805 315.312 158.129 315.379C158.453 315.441 158.771 315.537 159.084 315.666ZM161.756 319.516V315.449H162.834V319.516C162.834 320.105 162.938 320.539 163.145 320.816C163.355 321.094 163.68 321.232 164.117 321.232C164.625 321.232 165.014 321.055 165.283 320.699C165.553 320.34 165.688 319.826 165.688 319.158V315.449H166.771V322H165.688V321.016C165.496 321.395 165.234 321.682 164.902 321.877C164.574 322.072 164.189 322.17 163.748 322.17C163.076 322.17 162.576 321.951 162.248 321.514C161.92 321.072 161.756 320.406 161.756 319.516ZM174.061 321.666C173.771 321.834 173.473 321.959 173.164 322.041C172.859 322.127 172.547 322.17 172.227 322.17C171.211 322.17 170.416 321.865 169.842 321.256C169.271 320.646 168.986 319.803 168.986 318.725C168.986 317.646 169.271 316.803 169.842 316.193C170.416 315.584 171.211 315.279 172.227 315.279C172.543 315.279 172.852 315.32 173.152 315.402C173.453 315.484 173.756 315.611 174.061 315.783V316.914C173.775 316.66 173.488 316.477 173.199 316.363C172.914 316.25 172.59 316.193 172.227 316.193C171.551 316.193 171.031 316.412 170.668 316.85C170.305 317.287 170.123 317.912 170.123 318.725C170.123 319.533 170.305 320.158 170.668 320.6C171.035 321.037 171.555 321.256 172.227 321.256C172.602 321.256 172.938 321.199 173.234 321.086C173.531 320.969 173.807 320.789 174.061 320.547V321.666ZM181.291 321.666C181.002 321.834 180.703 321.959 180.395 322.041C180.09 322.127 179.777 322.17 179.457 322.17C178.441 322.17 177.646 321.865 177.072 321.256C176.502 320.646 176.217 319.803 176.217 318.725C176.217 317.646 176.502 316.803 177.072 316.193C177.646 315.584 178.441 315.279 179.457 315.279C179.773 315.279 180.082 315.32 180.383 315.402C180.684 315.484 180.986 315.611 181.291 315.783V316.914C181.006 316.66 180.719 316.477 180.43 316.363C180.145 316.25 179.82 316.193 179.457 316.193C178.781 316.193 178.262 316.412 177.898 316.85C177.535 317.287 177.354 317.912 177.354 318.725C177.354 319.533 177.535 320.158 177.898 320.6C178.266 321.037 178.785 321.256 179.457 321.256C179.832 321.256 180.168 321.199 180.465 321.086C180.762 320.969 181.037 320.789 181.291 320.547V321.666ZM188.867 318.18V318.707H184.197V318.742C184.166 319.637 184.336 320.279 184.707 320.67C185.082 321.061 185.609 321.256 186.289 321.256C186.633 321.256 186.992 321.201 187.367 321.092C187.742 320.982 188.143 320.816 188.568 320.594V321.666C188.158 321.834 187.762 321.959 187.379 322.041C187 322.127 186.633 322.17 186.277 322.17C185.258 322.17 184.461 321.865 183.887 321.256C183.312 320.643 183.025 319.799 183.025 318.725C183.025 317.678 183.307 316.842 183.869 316.217C184.432 315.592 185.182 315.279 186.119 315.279C186.955 315.279 187.613 315.562 188.094 316.129C188.578 316.695 188.836 317.379 188.867 318.18ZM187.789 317.863C187.742 317.41 187.576 317.02 187.291 316.691C187.01 316.359 186.604 316.193 186.072 316.193C185.553 316.193 185.125 316.365 184.789 316.709C184.453 317.053 184.27 317.439 184.238 317.869L187.789 317.863ZM195.236 315.666V316.721C194.928 316.541 194.617 316.406 194.305 316.316C193.992 316.227 193.674 316.182 193.35 316.182C192.861 316.182 192.496 316.262 192.254 316.422C192.016 316.578 191.896 316.818 191.896 317.143C191.896 317.436 191.986 317.654 192.166 317.799C192.346 317.943 192.793 318.084 193.508 318.221L193.941 318.303C194.477 318.404 194.881 318.607 195.154 318.912C195.432 319.217 195.57 319.613 195.57 320.102C195.57 320.75 195.34 321.258 194.879 321.625C194.418 321.988 193.777 322.17 192.957 322.17C192.633 322.17 192.293 322.135 191.938 322.064C191.582 321.998 191.197 321.896 190.783 321.76V320.646C191.186 320.854 191.57 321.01 191.938 321.115C192.305 321.217 192.652 321.268 192.98 321.268C193.457 321.268 193.826 321.172 194.088 320.98C194.35 320.785 194.48 320.514 194.48 320.166C194.48 319.666 194.002 319.32 193.045 319.129L192.998 319.117L192.594 319.035C191.973 318.914 191.52 318.711 191.234 318.426C190.949 318.137 190.807 317.744 190.807 317.248C190.807 316.619 191.02 316.135 191.445 315.795C191.871 315.451 192.479 315.279 193.268 315.279C193.619 315.279 193.957 315.312 194.281 315.379C194.605 315.441 194.924 315.537 195.236 315.666ZM202.467 315.666V316.721C202.158 316.541 201.848 316.406 201.535 316.316C201.223 316.227 200.904 316.182 200.58 316.182C200.092 316.182 199.727 316.262 199.484 316.422C199.246 316.578 199.127 316.818 199.127 317.143C199.127 317.436 199.217 317.654 199.396 317.799C199.576 317.943 200.023 318.084 200.738 318.221L201.172 318.303C201.707 318.404 202.111 318.607 202.385 318.912C202.662 319.217 202.801 319.613 202.801 320.102C202.801 320.75 202.57 321.258 202.109 321.625C201.648 321.988 201.008 322.17 200.188 322.17C199.863 322.17 199.523 322.135 199.168 322.064C198.812 321.998 198.428 321.896 198.014 321.76V320.646C198.416 320.854 198.801 321.01 199.168 321.115C199.535 321.217 199.883 321.268 200.211 321.268C200.688 321.268 201.057 321.172 201.318 320.98C201.58 320.785 201.711 320.514 201.711 320.166C201.711 319.666 201.232 319.32 200.275 319.129L200.229 319.117L199.824 319.035C199.203 318.914 198.75 318.711 198.465 318.426C198.18 318.137 198.037 317.744 198.037 317.248C198.037 316.619 198.25 316.135 198.676 315.795C199.102 315.451 199.709 315.279 200.498 315.279C200.85 315.279 201.188 315.312 201.512 315.379C201.836 315.441 202.154 315.537 202.467 315.666ZM210.225 312.883V313.779H209C208.613 313.779 208.344 313.859 208.191 314.02C208.043 314.176 207.969 314.455 207.969 314.857V315.438H210.225V316.275H207.969V322H206.891V316.275H205.139V315.438H206.891V314.98C206.891 314.262 207.055 313.732 207.383 313.393C207.715 313.053 208.23 312.883 208.93 312.883H210.225ZM212.369 319.516V315.449H213.447V319.516C213.447 320.105 213.551 320.539 213.758 320.816C213.969 321.094 214.293 321.232 214.73 321.232C215.238 321.232 215.627 321.055 215.896 320.699C216.166 320.34 216.301 319.826 216.301 319.158V315.449H217.385V322H216.301V321.016C216.109 321.395 215.848 321.682 215.516 321.877C215.188 322.072 214.803 322.17 214.361 322.17C213.689 322.17 213.189 321.951 212.861 321.514C212.533 321.072 212.369 320.406 212.369 319.516ZM222.67 319.627C222.67 320.111 222.758 320.477 222.934 320.723C223.113 320.969 223.377 321.092 223.725 321.092H224.984V322H223.619C222.975 322 222.475 321.795 222.119 321.385C221.768 320.971 221.592 320.385 221.592 319.627V313.691H219.863V312.848H222.67V319.627Z" fill="#05DF72"/>
</g>
</g>
<defs>
<filter id="filter0_d_5_893" x="0" y="0" width="524" height="433" filterUnits="userSpaceOnUse" color-interpolation-filters="sRGB">
<feFlood flood-opacity="0" result="BackgroundImageFix"/>
<feColorMatrix in="SourceAlpha" type="matrix" values="0 0 0 0 0 0 0 0 0 0 0 0 0 0 0 0 0 0 127 0" result="hardAlpha"/>
<feMorphology radius="12" operator="erode" in="SourceAlpha" result="effect1_dropShadow_5_893"/>
<feOffset dy="25"/>
<feGaussianBlur stdDeviation="25"/>
<feComposite in2="hardAlpha" operator="out"/>
<feColorMatrix type="matrix" values="0 0 0 0 0 0 0 0 0 0 0 0 0 0 0 0 0 0 0.25 0"/>
<feBlend mode="normal" in2="BackgroundImageFix" result="effect1_dropShadow_5_893"/>
<feBlend mode="normal" in="SourceGraphic" in2="effect1_dropShadow_5_893" result="shape"/>
</filter>
<clipPath id="clip0_5_893">
<path d="M38 23C38 17.4772 42.4772 13 48 13H476C481.523 13 486 17.4772 486 23V360C486 365.523 481.523 370 476 370H48C42.4771 370 38 365.523 38 360V23Z" fill="white"/>
</clipPath>
</defs>
</svg>
