<svg width="179" height="34" viewBox="0 0 179 34" fill="none" xmlns="http://www.w3.org/2000/svg">
<path d="M16.192 13.416C17.5147 13.7147 18.56 14.376 19.328 15.4C20.1173 16.4027 20.512 17.5547 20.512 18.856C20.512 20.776 19.8507 22.28 18.528 23.368C17.2053 24.456 15.3493 25 12.96 25H1.792V2.44H12.608C14.912 2.44 16.7147 2.952 18.016 3.976C19.3387 5 20 6.44 20 8.296C20 9.61867 19.648 10.728 18.944 11.624C18.2613 12.4987 17.344 13.096 16.192 13.416ZM8.064 11.4H11.232C12.8107 11.4 13.6 10.7493 13.6 9.448C13.6 8.104 12.8107 7.432 11.232 7.432H8.064V11.4ZM11.712 19.944C13.2907 19.944 14.08 19.2827 14.08 17.96C14.08 17.2773 13.8667 16.7547 13.44 16.392C13.0347 16.0293 12.448 15.848 11.68 15.848H8.064V19.944H11.712ZM28.7328 10.216C29.4368 9.192 30.2901 8.38133 31.2928 7.784C32.2954 7.18667 33.3728 6.888 34.5248 6.888V13.576H32.7648C31.3994 13.576 30.3861 13.8427 29.7248 14.376C29.0634 14.9093 28.7328 15.8373 28.7328 17.16V25H22.4608V7.048H28.7328V10.216ZM34.9493 16.008C34.9493 14.152 35.2799 12.5307 35.9413 11.144C36.6239 9.75733 37.5413 8.69067 38.6933 7.944C39.8666 7.19733 41.1679 6.824 42.5973 6.824C43.8346 6.824 44.9013 7.06933 45.7973 7.56C46.6933 8.05067 47.3866 8.712 47.8773 9.544V7.048H54.1493V25H47.8773V22.504C47.3866 23.336 46.6826 23.9973 45.7653 24.488C44.8693 24.9787 43.8133 25.224 42.5973 25.224C41.1679 25.224 39.8666 24.8507 38.6933 24.104C37.5413 23.3573 36.6239 22.2907 35.9413 20.904C35.2799 19.496 34.9493 17.864 34.9493 16.008ZM47.8773 16.008C47.8773 14.856 47.5573 13.9493 46.9173 13.288C46.2986 12.6267 45.5306 12.296 44.6133 12.296C43.6746 12.296 42.8959 12.6267 42.2773 13.288C41.6586 13.928 41.3493 14.8347 41.3493 16.008C41.3493 17.16 41.6586 18.0773 42.2773 18.76C42.8959 19.4213 43.6746 19.752 44.6133 19.752C45.5306 19.752 46.2986 19.4213 46.9173 18.76C47.5573 18.0987 47.8773 17.1813 47.8773 16.008ZM68.6672 6.888C70.7366 6.888 72.3792 7.58133 73.5952 8.968C74.8112 10.3333 75.4192 12.1893 75.4192 14.536V25H69.1472V15.368C69.1472 14.344 68.8806 13.544 68.3472 12.968C67.8139 12.3707 67.0992 12.072 66.2032 12.072C65.2646 12.072 64.5286 12.3707 63.9952 12.968C63.4619 13.544 63.1952 14.344 63.1952 15.368V25H56.9232V7.048H63.1952V9.608C63.7499 8.79733 64.4966 8.14666 65.4352 7.656C66.3739 7.144 67.4512 6.888 68.6672 6.888ZM77.0368 16.008C77.0368 14.152 77.3674 12.5307 78.0288 11.144C78.7114 9.75733 79.6394 8.69067 80.8128 7.944C81.9861 7.19733 83.2874 6.824 84.7168 6.824C85.8688 6.824 86.8928 7.06933 87.7888 7.56C88.7061 8.02933 89.4208 8.68 89.9328 9.512V1.32H96.2368V25H89.9328V22.504C89.4421 23.336 88.7488 23.9973 87.8528 24.488C86.9568 24.9787 85.9008 25.224 84.6848 25.224C83.2554 25.224 81.9541 24.8507 80.7808 24.104C79.6288 23.3573 78.7114 22.2907 78.0288 20.904C77.3674 19.496 77.0368 17.864 77.0368 16.008ZM89.9648 16.008C89.9648 14.856 89.6448 13.9493 89.0048 13.288C88.3861 12.6267 87.6181 12.296 86.7008 12.296C85.7621 12.296 84.9834 12.6267 84.3648 13.288C83.7461 13.928 83.4368 14.8347 83.4368 16.008C83.4368 17.16 83.7461 18.0773 84.3648 18.76C84.9834 19.4213 85.7621 19.752 86.7008 19.752C87.6181 19.752 88.3861 19.4213 89.0048 18.76C89.6448 18.0987 89.9648 17.1813 89.9648 16.008ZM113.264 2.44C115.632 2.44 117.701 2.92 119.472 3.88C121.264 4.81867 122.64 6.14133 123.6 7.848C124.56 9.55467 125.04 11.5067 125.04 13.704C125.04 15.88 124.549 17.8213 123.568 19.528C122.608 21.2347 121.232 22.5787 119.44 23.56C117.669 24.52 115.61 25 113.264 25H104.336V2.44H113.264ZM112.784 19.464C114.618 19.464 116.058 18.9627 117.104 17.96C118.149 16.9573 118.672 15.5387 118.672 13.704C118.672 11.848 118.149 10.4187 117.104 9.416C116.058 8.392 114.618 7.88 112.784 7.88H110.608V19.464H112.784ZM144.219 15.816C144.219 16.3067 144.187 16.7973 144.123 17.288H132.251C132.315 18.2693 132.582 19.0053 133.051 19.496C133.542 19.9653 134.16 20.2 134.907 20.2C135.952 20.2 136.699 19.7307 137.147 18.792H143.835C143.558 20.0293 143.014 21.1387 142.203 22.12C141.414 23.08 140.411 23.8373 139.195 24.392C137.979 24.9467 136.635 25.224 135.163 25.224C133.392 25.224 131.814 24.8507 130.427 24.104C129.062 23.3573 127.984 22.2907 127.195 20.904C126.427 19.5173 126.043 17.8853 126.043 16.008C126.043 14.1307 126.427 12.5093 127.195 11.144C127.963 9.75733 129.03 8.69067 130.395 7.944C131.782 7.19733 133.371 6.824 135.163 6.824C136.934 6.824 138.502 7.18667 139.867 7.912C141.232 8.63733 142.299 9.68267 143.067 11.048C143.835 12.392 144.219 13.9813 144.219 15.816ZM137.819 14.248C137.819 13.48 137.563 12.8827 137.051 12.456C136.539 12.008 135.899 11.784 135.131 11.784C134.363 11.784 133.734 11.9973 133.243 12.424C132.752 12.8293 132.432 13.4373 132.283 14.248H137.819ZM152.258 9.544C152.748 8.712 153.442 8.05067 154.338 7.56C155.234 7.06933 156.29 6.824 157.506 6.824C158.935 6.824 160.226 7.19733 161.378 7.944C162.551 8.69067 163.468 9.75733 164.13 11.144C164.812 12.5307 165.154 14.152 165.154 16.008C165.154 17.864 164.812 19.496 164.13 20.904C163.468 22.2907 162.551 23.3573 161.378 24.104C160.226 24.8507 158.935 25.224 157.506 25.224C156.29 25.224 155.234 24.9787 154.338 24.488C153.463 23.9973 152.77 23.336 152.258 22.504V33.576H145.986V7.048H152.258V9.544ZM158.786 16.008C158.786 14.8347 158.466 13.928 157.826 13.288C157.207 12.6267 156.439 12.296 155.522 12.296C154.604 12.296 153.826 12.6267 153.186 13.288C152.567 13.9493 152.258 14.856 152.258 16.008C152.258 17.1813 152.567 18.0987 153.186 18.76C153.826 19.4213 154.604 19.752 155.522 19.752C156.439 19.752 157.207 19.4213 157.826 18.76C158.466 18.0773 158.786 17.16 158.786 16.008ZM177.528 19.656V25H174.808C170.221 25 167.928 22.728 167.928 18.184V12.264H165.72V7.048H167.928V2.696H174.232V7.048H177.496V12.264H174.232V18.28C174.232 18.7707 174.338 19.1227 174.552 19.336C174.786 19.5493 175.17 19.656 175.704 19.656H177.528Z" fill="#2F0212"/>
</svg>
