<svg width="524" height="437" viewBox="0 0 524 437" fill="none" xmlns="http://www.w3.org/2000/svg">
<g filter="url(#filter0_d_5_947)">
<g clip-path="url(#clip0_5_947)">
<path d="M38 23C38 17.4772 42.4772 13 48 13H476C481.523 13 486 17.4772 486 23V364C486 369.523 481.523 374 476 374H48C42.4771 374 38 369.523 38 364V23Z" fill="white"/>
<mask id="path-2-inside-1_5_947" fill="white">
<path d="M38 13H486V54H38V13Z"/>
</mask>
<path d="M38 13H486V54H38V13Z" fill="#F3F4F6"/>
<path d="M486 54V53H38V54V55H486V54Z" fill="#E5E7EB" mask="url(#path-2-inside-1_5_947)"/>
<path d="M50 33C50 29.6863 52.6863 27 56 27C59.3137 27 62 29.6863 62 33C62 36.3137 59.3137 39 56 39C52.6863 39 50 36.3137 50 33Z" fill="#FF6467"/>
<path d="M68 33C68 29.6863 70.6863 27 74 27C77.3137 27 80 29.6863 80 33C80 36.3137 77.3137 39 74 39C70.6863 39 68 36.3137 68 33Z" fill="#FDC700"/>
<path d="M86 33C86 29.6863 88.6863 27 92 27C95.3137 27 98 29.6863 98 33C98 36.3137 95.3137 39 92 39C88.6863 39 86 36.3137 86 33Z" fill="#05DF72"/>
<path d="M106 25C106 22.7909 107.791 21 110 21H470C472.209 21 474 22.7909 474 25V41C474 43.2091 472.209 45 470 45H110C107.791 45 106 43.2091 106 41V25Z" fill="white"/>
<path d="M119.926 33.0625V37H118.92V30.4545H119.892V31.4773H119.977C120.131 31.1449 120.364 30.8778 120.676 30.6761C120.989 30.4716 121.392 30.3693 121.886 30.3693C122.33 30.3693 122.717 30.4602 123.05 30.642C123.382 30.821 123.641 31.0938 123.825 31.4602C124.01 31.8239 124.102 32.2841 124.102 32.8409V37H123.097V32.9091C123.097 32.3949 122.963 31.9943 122.696 31.7074C122.429 31.4176 122.063 31.2727 121.597 31.2727C121.276 31.2727 120.989 31.3423 120.736 31.4815C120.486 31.6207 120.288 31.8239 120.143 32.0909C119.999 32.358 119.926 32.6818 119.926 33.0625ZM125.94 37V30.4545H126.946V37H125.94ZM126.451 29.3636C126.255 29.3636 126.086 29.2969 125.944 29.1634C125.805 29.0298 125.735 28.8693 125.735 28.6818C125.735 28.4943 125.805 28.3338 125.944 28.2003C126.086 28.0668 126.255 28 126.451 28C126.647 28 126.815 28.0668 126.954 28.2003C127.096 28.3338 127.167 28.4943 127.167 28.6818C127.167 28.8693 127.096 29.0298 126.954 29.1634C126.815 29.2969 126.647 29.3636 126.451 29.3636ZM131.447 37.1364C130.856 37.1364 130.337 36.9957 129.891 36.7145C129.448 36.4332 129.102 36.0398 128.852 35.5341C128.604 35.0284 128.481 34.4375 128.481 33.7614C128.481 33.0795 128.604 32.4844 128.852 31.9759C129.102 31.4673 129.448 31.0724 129.891 30.7912C130.337 30.5099 130.856 30.3693 131.447 30.3693C132.038 30.3693 132.555 30.5099 132.998 30.7912C133.444 31.0724 133.79 31.4673 134.038 31.9759C134.288 32.4844 134.413 33.0795 134.413 33.7614C134.413 34.4375 134.288 35.0284 134.038 35.5341C133.79 36.0398 133.444 36.4332 132.998 36.7145C132.555 36.9957 132.038 37.1364 131.447 37.1364ZM131.447 36.233C131.896 36.233 132.265 36.1179 132.555 35.8878C132.844 35.6577 133.059 35.3551 133.198 34.9801C133.337 34.6051 133.407 34.1989 133.407 33.7614C133.407 33.3239 133.337 32.9162 133.198 32.5384C133.059 32.1605 132.844 31.8551 132.555 31.6222C132.265 31.3892 131.896 31.2727 131.447 31.2727C130.998 31.2727 130.629 31.3892 130.339 31.6222C130.049 31.8551 129.835 32.1605 129.695 32.5384C129.556 32.9162 129.487 33.3239 129.487 33.7614C129.487 34.1989 129.556 34.6051 129.695 34.9801C129.835 35.3551 130.049 35.6577 130.339 35.8878C130.629 36.1179 130.998 36.233 131.447 36.233ZM135.948 37V30.4545H136.919V31.4432H136.988C137.107 31.1193 137.323 30.8565 137.635 30.6548C137.948 30.4531 138.3 30.3523 138.692 30.3523C138.766 30.3523 138.858 30.3537 138.969 30.3565C139.08 30.3594 139.164 30.3636 139.221 30.3693V31.392C139.186 31.3835 139.108 31.3707 138.986 31.3537C138.867 31.3338 138.74 31.3239 138.607 31.3239C138.289 31.3239 138.005 31.3906 137.755 31.5241C137.507 31.6548 137.311 31.8366 137.167 32.0696C137.025 32.2997 136.953 32.5625 136.953 32.858V37H135.948ZM142.339 37.1534C141.924 37.1534 141.548 37.0753 141.21 36.919C140.871 36.7599 140.603 36.5312 140.404 36.233C140.205 35.9318 140.106 35.5682 140.106 35.142C140.106 34.767 140.18 34.4631 140.327 34.2301C140.475 33.9943 140.673 33.8097 140.92 33.6761C141.167 33.5426 141.44 33.4432 141.738 33.3778C142.039 33.3097 142.342 33.2557 142.646 33.2159C143.043 33.1648 143.366 33.1264 143.613 33.1009C143.863 33.0724 144.045 33.0256 144.158 32.9602C144.275 32.8949 144.333 32.7812 144.333 32.6193V32.5852C144.333 32.1648 144.218 31.8381 143.988 31.6051C143.761 31.3722 143.415 31.2557 142.952 31.2557C142.472 31.2557 142.096 31.3608 141.823 31.571C141.55 31.7812 141.359 32.0057 141.248 32.2443L140.293 31.9034C140.464 31.5057 140.691 31.196 140.975 30.9744C141.262 30.75 141.575 30.5937 141.913 30.5057C142.254 30.4148 142.589 30.3693 142.918 30.3693C143.129 30.3693 143.37 30.3949 143.643 30.446C143.918 30.4943 144.184 30.5952 144.44 30.7486C144.698 30.902 144.913 31.1335 145.083 31.4432C145.254 31.7528 145.339 32.1676 145.339 32.6875V37H144.333V36.1136H144.282C144.214 36.2557 144.1 36.4077 143.941 36.5696C143.782 36.7315 143.57 36.8693 143.306 36.983C143.042 37.0966 142.719 37.1534 142.339 37.1534ZM142.492 36.25C142.89 36.25 143.225 36.1719 143.498 36.0156C143.773 35.8594 143.981 35.6577 144.12 35.4105C144.262 35.1634 144.333 34.9034 144.333 34.6307V33.7102C144.29 33.7614 144.197 33.8082 144.052 33.8509C143.91 33.8906 143.745 33.9261 143.558 33.9574C143.373 33.9858 143.192 34.0114 143.016 34.0341C142.843 34.054 142.702 34.071 142.594 34.0852C142.333 34.1193 142.089 34.1747 141.862 34.2514C141.637 34.3253 141.455 34.4375 141.316 34.5881C141.18 34.7358 141.112 34.9375 141.112 35.1932C141.112 35.5426 141.241 35.8068 141.499 35.9858C141.761 36.1619 142.092 36.25 142.492 36.25ZM147.907 37.0682C147.697 37.0682 147.517 36.9929 147.366 36.8423C147.216 36.6918 147.14 36.5114 147.14 36.3011C147.14 36.0909 147.216 35.9105 147.366 35.7599C147.517 35.6094 147.697 35.5341 147.907 35.5341C148.118 35.5341 148.298 35.6094 148.449 35.7599C148.599 35.9105 148.674 36.0909 148.674 36.3011C148.674 36.4403 148.639 36.5682 148.568 36.6847C148.5 36.8011 148.407 36.8949 148.291 36.9659C148.177 37.0341 148.049 37.0682 147.907 37.0682ZM152.951 37.1364C152.405 37.1364 151.924 36.9986 151.506 36.723C151.088 36.4446 150.762 36.0526 150.526 35.5469C150.29 35.0384 150.172 34.4375 150.172 33.7443C150.172 33.0568 150.29 32.4602 150.526 31.9545C150.762 31.4489 151.09 31.0582 151.51 30.7827C151.931 30.5071 152.417 30.3693 152.968 30.3693C153.394 30.3693 153.73 30.4403 153.978 30.5824C154.228 30.7216 154.418 30.8807 154.549 31.0597C154.682 31.2358 154.786 31.3807 154.86 31.4943H154.945V28.2727H155.951V37H154.979V35.9943H154.86C154.786 36.1136 154.681 36.2642 154.544 36.446C154.408 36.625 154.213 36.7855 153.961 36.9276C153.708 37.0668 153.371 37.1364 152.951 37.1364ZM153.087 36.233C153.49 36.233 153.831 36.1278 154.11 35.9176C154.388 35.7045 154.6 35.4105 154.745 35.0355C154.89 34.6577 154.962 34.2216 154.962 33.7273C154.962 33.2386 154.891 32.8111 154.749 32.4446C154.607 32.0753 154.397 31.7884 154.118 31.5838C153.84 31.3764 153.496 31.2727 153.087 31.2727C152.661 31.2727 152.306 31.3821 152.022 31.6009C151.74 31.8168 151.529 32.1108 151.387 32.483C151.248 32.8523 151.178 33.267 151.178 33.7273C151.178 34.1932 151.249 34.6165 151.391 34.9972C151.536 35.375 151.749 35.6761 152.03 35.9006C152.314 36.1222 152.667 36.233 153.087 36.233ZM160.676 37.1364C160.046 37.1364 159.502 36.9972 159.044 36.7188C158.59 36.4375 158.239 36.0455 157.992 35.5426C157.748 35.0369 157.625 34.4489 157.625 33.7784C157.625 33.108 157.748 32.517 157.992 32.0057C158.239 31.4915 158.583 31.0909 159.023 30.804C159.466 30.5142 159.983 30.3693 160.574 30.3693C160.915 30.3693 161.252 30.4261 161.584 30.5398C161.917 30.6534 162.219 30.8381 162.492 31.0938C162.765 31.3466 162.982 31.6818 163.144 32.0994C163.306 32.517 163.387 33.0312 163.387 33.642V34.0682H158.341V33.1989H162.364C162.364 32.8295 162.29 32.5 162.142 32.2102C161.998 31.9205 161.79 31.6918 161.52 31.5241C161.253 31.3565 160.938 31.2727 160.574 31.2727C160.174 31.2727 159.827 31.3722 159.534 31.571C159.245 31.767 159.022 32.0227 158.865 32.3381C158.709 32.6534 158.631 32.9915 158.631 33.3523V33.9318C158.631 34.4261 158.716 34.8452 158.887 35.1889C159.06 35.5298 159.3 35.7898 159.607 35.9688C159.914 36.1449 160.27 36.233 160.676 36.233C160.941 36.233 161.179 36.196 161.392 36.1222C161.608 36.0455 161.794 35.9318 161.951 35.7812C162.107 35.6278 162.228 35.4375 162.313 35.2102L163.284 35.483C163.182 35.8125 163.01 36.1023 162.769 36.3523C162.527 36.5994 162.229 36.7926 161.874 36.9318C161.519 37.0682 161.12 37.1364 160.676 37.1364ZM169.553 31.9205L168.65 32.1761C168.593 32.0256 168.509 31.8793 168.398 31.7372C168.29 31.5923 168.142 31.473 167.955 31.3793C167.767 31.2855 167.527 31.2386 167.235 31.2386C166.834 31.2386 166.5 31.331 166.233 31.5156C165.969 31.6974 165.837 31.929 165.837 32.2102C165.837 32.4602 165.928 32.6577 166.11 32.8026C166.292 32.9474 166.576 33.0682 166.962 33.1648L167.934 33.4034C168.519 33.5455 168.955 33.7628 169.242 34.0554C169.529 34.3452 169.672 34.7187 169.672 35.1761C169.672 35.5511 169.564 35.8864 169.348 36.1818C169.135 36.4773 168.837 36.7102 168.453 36.8807C168.07 37.0511 167.624 37.1364 167.115 37.1364C166.448 37.1364 165.895 36.9915 165.458 36.7017C165.02 36.4119 164.743 35.9886 164.627 35.4318L165.581 35.1932C165.672 35.5455 165.844 35.8097 166.097 35.9858C166.353 36.1619 166.686 36.25 167.098 36.25C167.567 36.25 167.939 36.1506 168.215 35.9517C168.493 35.75 168.632 35.5085 168.632 35.2273C168.632 35 168.553 34.8097 168.394 34.6562C168.235 34.5 167.99 34.3835 167.661 34.3068L166.57 34.0511C165.971 33.9091 165.53 33.6889 165.249 33.3906C164.971 33.0895 164.831 32.7131 164.831 32.2614C164.831 31.892 164.935 31.5653 165.142 31.2812C165.353 30.9972 165.638 30.7741 165.999 30.6122C166.363 30.4503 166.775 30.3693 167.235 30.3693C167.882 30.3693 168.391 30.5114 168.76 30.7955C169.132 31.0795 169.397 31.4545 169.553 31.9205ZM171.186 37V30.4545H172.192V37H171.186ZM171.697 29.3636C171.501 29.3636 171.332 29.2969 171.19 29.1634C171.051 29.0298 170.982 28.8693 170.982 28.6818C170.982 28.4943 171.051 28.3338 171.19 28.2003C171.332 28.0668 171.501 28 171.697 28C171.893 28 172.061 28.0668 172.2 28.2003C172.342 28.3338 172.413 28.4943 172.413 28.6818C172.413 28.8693 172.342 29.0298 172.2 29.1634C172.061 29.2969 171.893 29.3636 171.697 29.3636ZM176.676 39.5909C176.19 39.5909 175.772 39.5284 175.423 39.4034C175.074 39.2812 174.782 39.1193 174.549 38.9176C174.319 38.7188 174.136 38.5057 174 38.2784L174.801 37.7159C174.892 37.8352 175.007 37.9716 175.146 38.125C175.285 38.2812 175.475 38.4162 175.717 38.5298C175.961 38.6463 176.281 38.7045 176.676 38.7045C177.204 38.7045 177.64 38.5767 177.984 38.321C178.328 38.0653 178.5 37.6648 178.5 37.1193V35.7898H178.414C178.341 35.9091 178.235 36.0568 178.099 36.233C177.966 36.4062 177.772 36.5611 177.52 36.6974C177.27 36.831 176.931 36.8977 176.505 36.8977C175.977 36.8977 175.502 36.7727 175.082 36.5227C174.664 36.2727 174.333 35.9091 174.089 35.4318C173.848 34.9545 173.727 34.375 173.727 33.6932C173.727 33.0227 173.845 32.4389 174.081 31.9418C174.316 31.4418 174.645 31.0554 175.065 30.7827C175.485 30.5071 175.971 30.3693 176.522 30.3693C176.949 30.3693 177.287 30.4403 177.537 30.5824C177.789 30.7216 177.983 30.8807 178.116 31.0597C178.252 31.2358 178.358 31.3807 178.431 31.4943H178.534V30.4545H179.505V37.1875C179.505 37.75 179.377 38.2074 179.122 38.5597C178.869 38.9148 178.528 39.1747 178.099 39.3395C177.673 39.5071 177.199 39.5909 176.676 39.5909ZM176.642 35.9943C177.045 35.9943 177.386 35.902 177.664 35.7173C177.943 35.5327 178.154 35.267 178.299 34.9205C178.444 34.5739 178.517 34.1591 178.517 33.6761C178.517 33.2045 178.446 32.7884 178.304 32.4276C178.162 32.0668 177.951 31.7841 177.673 31.5795C177.395 31.375 177.051 31.2727 176.642 31.2727C176.216 31.2727 175.86 31.3807 175.576 31.5966C175.295 31.8125 175.083 32.1023 174.941 32.4659C174.802 32.8295 174.733 33.233 174.733 33.6761C174.733 34.1307 174.804 34.5327 174.946 34.8821C175.091 35.2287 175.304 35.5014 175.585 35.7003C175.869 35.8963 176.221 35.9943 176.642 35.9943ZM182.352 33.0625V37H181.346V30.4545H182.318V31.4773H182.403C182.556 31.1449 182.789 30.8778 183.102 30.6761C183.414 30.4716 183.818 30.3693 184.312 30.3693C184.755 30.3693 185.143 30.4602 185.475 30.642C185.808 30.821 186.066 31.0938 186.251 31.4602C186.436 31.8239 186.528 32.2841 186.528 32.8409V37H185.522V32.9091C185.522 32.3949 185.389 31.9943 185.122 31.7074C184.855 31.4176 184.488 31.2727 184.022 31.2727C183.701 31.2727 183.414 31.3423 183.162 31.4815C182.912 31.6207 182.714 31.8239 182.569 32.0909C182.424 32.358 182.352 32.6818 182.352 33.0625Z" fill="#99A1AF"/>
<path d="M54 80C54 74.4772 58.4772 70 64 70H460C465.523 70 470 74.4772 470 80V260C470 265.523 465.523 270 460 270H64C58.4771 270 54 265.523 54 260V80Z" fill="url(#paint0_linear_5_947)"/>
<path d="M122 108L105 125L95 115L82 128" stroke="#00C950" stroke-width="4" stroke-linecap="round" stroke-linejoin="round"/>
<path d="M110 108H122V120" stroke="#00C950" stroke-width="4" stroke-linecap="round" stroke-linejoin="round"/>
<path d="M79.233 175V164.818H82.6733C83.4721 164.818 84.125 164.962 84.6321 165.251C85.1425 165.536 85.5204 165.922 85.7656 166.409C86.0109 166.896 86.1335 167.44 86.1335 168.04C86.1335 168.64 86.0109 169.185 85.7656 169.675C85.5237 170.166 85.1491 170.557 84.642 170.849C84.1349 171.137 83.4853 171.281 82.6932 171.281H80.2273V170.188H82.6534C83.2003 170.188 83.6394 170.093 83.9709 169.904C84.3023 169.715 84.5426 169.46 84.6918 169.138C84.8442 168.814 84.9205 168.447 84.9205 168.04C84.9205 167.632 84.8442 167.268 84.6918 166.946C84.5426 166.625 84.3007 166.373 83.9659 166.19C83.6312 166.005 83.187 165.912 82.6335 165.912H80.4659V175H79.233ZM90.9299 175.159C90.1941 175.159 89.5594 174.997 89.0257 174.672C88.4954 174.344 88.0861 173.886 87.7978 173.3C87.5127 172.71 87.3702 172.024 87.3702 171.241C87.3702 170.459 87.5127 169.77 87.7978 169.173C88.0861 168.573 88.4872 168.106 89.0009 167.771C89.5179 167.433 90.1212 167.264 90.8105 167.264C91.2083 167.264 91.601 167.33 91.9888 167.463C92.3766 167.596 92.7296 167.811 93.0478 168.109C93.3659 168.404 93.6195 168.795 93.8084 169.283C93.9973 169.77 94.0918 170.37 94.0918 171.082V171.58H88.2054V170.565H92.8986C92.8986 170.134 92.8124 169.75 92.6401 169.412C92.4711 169.074 92.2291 168.807 91.9142 168.612C91.6027 168.416 91.2348 168.318 90.8105 168.318C90.3432 168.318 89.9389 168.434 89.5975 168.666C89.2594 168.895 88.9992 169.193 88.8169 169.561C88.6346 169.929 88.5435 170.323 88.5435 170.744V171.42C88.5435 171.997 88.6429 172.486 88.8418 172.887C89.044 173.285 89.324 173.588 89.682 173.797C90.04 174.002 90.4559 174.105 90.9299 174.105C91.2381 174.105 91.5165 174.062 91.7651 173.976C92.017 173.886 92.2341 173.754 92.4164 173.578C92.5987 173.399 92.7395 173.177 92.839 172.912L93.9725 173.23C93.8532 173.615 93.6526 173.953 93.3709 174.244C93.0892 174.533 92.7412 174.758 92.3269 174.92C91.9126 175.08 91.4469 175.159 90.9299 175.159ZM95.7262 175V167.364H96.8597V168.517H96.9393C97.0785 168.139 97.3304 167.833 97.695 167.597C98.0595 167.362 98.4705 167.244 98.9279 167.244C99.0141 167.244 99.1218 167.246 99.2511 167.249C99.3803 167.253 99.4781 167.258 99.5444 167.264V168.457C99.5046 168.447 99.4135 168.433 99.271 168.413C99.1317 168.389 98.9843 168.378 98.8285 168.378C98.4573 168.378 98.1258 168.456 97.8342 168.612C97.5458 168.764 97.3171 168.976 97.1481 169.248C96.9824 169.516 96.8995 169.823 96.8995 170.168V175H95.7262ZM104.664 167.364V168.358H100.547V167.364H104.664ZM101.78 175V166.31C101.78 165.872 101.883 165.508 102.089 165.216C102.294 164.924 102.561 164.705 102.889 164.56C103.217 164.414 103.564 164.341 103.928 164.341C104.216 164.341 104.452 164.364 104.634 164.411C104.816 164.457 104.952 164.5 105.042 164.54L104.704 165.554C104.644 165.534 104.561 165.509 104.455 165.479C104.352 165.45 104.216 165.435 104.047 165.435C103.66 165.435 103.38 165.532 103.207 165.728C103.038 165.924 102.954 166.21 102.954 166.588V175H101.78ZM108.946 175.159C108.256 175.159 107.651 174.995 107.131 174.667C106.614 174.339 106.21 173.88 105.918 173.29C105.63 172.7 105.485 172.01 105.485 171.222C105.485 170.426 105.63 169.732 105.918 169.138C106.21 168.545 106.614 168.085 107.131 167.756C107.651 167.428 108.256 167.264 108.946 167.264C109.635 167.264 110.238 167.428 110.755 167.756C111.276 168.085 111.68 168.545 111.968 169.138C112.26 169.732 112.406 170.426 112.406 171.222C112.406 172.01 112.26 172.7 111.968 173.29C111.68 173.88 111.276 174.339 110.755 174.667C110.238 174.995 109.635 175.159 108.946 175.159ZM108.946 174.105C109.469 174.105 109.9 173.971 110.238 173.702C110.576 173.434 110.827 173.081 110.989 172.643C111.151 172.206 111.233 171.732 111.233 171.222C111.233 170.711 111.151 170.236 110.989 169.795C110.827 169.354 110.576 168.998 110.238 168.726C109.9 168.454 109.469 168.318 108.946 168.318C108.422 168.318 107.991 168.454 107.653 168.726C107.315 168.998 107.065 169.354 106.902 169.795C106.74 170.236 106.659 170.711 106.659 171.222C106.659 171.732 106.74 172.206 106.902 172.643C107.065 173.081 107.315 173.434 107.653 173.702C107.991 173.971 108.422 174.105 108.946 174.105ZM114.047 175V167.364H115.18V168.517H115.26C115.399 168.139 115.651 167.833 116.015 167.597C116.38 167.362 116.791 167.244 117.248 167.244C117.334 167.244 117.442 167.246 117.571 167.249C117.701 167.253 117.798 167.258 117.865 167.264V168.457C117.825 168.447 117.734 168.433 117.591 168.413C117.452 168.389 117.305 168.378 117.149 168.378C116.778 168.378 116.446 168.456 116.154 168.612C115.866 168.764 115.637 168.976 115.468 169.248C115.303 169.516 115.22 169.823 115.22 170.168V175H114.047ZM119.105 175V167.364H120.239V168.557H120.338C120.497 168.149 120.754 167.833 121.109 167.607C121.463 167.379 121.889 167.264 122.386 167.264C122.89 167.264 123.309 167.379 123.644 167.607C123.982 167.833 124.246 168.149 124.435 168.557H124.514C124.71 168.162 125.003 167.849 125.394 167.617C125.785 167.382 126.254 167.264 126.801 167.264C127.484 167.264 128.042 167.478 128.477 167.906C128.911 168.33 129.128 168.991 129.128 169.889V175H127.955V169.889C127.955 169.326 127.8 168.923 127.492 168.681C127.184 168.439 126.821 168.318 126.403 168.318C125.866 168.318 125.451 168.481 125.156 168.805C124.861 169.127 124.713 169.535 124.713 170.028V175H123.52V169.77C123.52 169.336 123.379 168.986 123.097 168.721C122.816 168.452 122.453 168.318 122.009 168.318C121.704 168.318 121.419 168.399 121.153 168.562C120.892 168.724 120.679 168.95 120.517 169.238C120.358 169.523 120.278 169.853 120.278 170.227V175H119.105ZM133.37 175.179C132.886 175.179 132.447 175.088 132.052 174.906C131.658 174.72 131.345 174.453 131.113 174.105C130.881 173.754 130.765 173.33 130.765 172.832C130.765 172.395 130.851 172.04 131.023 171.768C131.196 171.493 131.426 171.278 131.714 171.122C132.003 170.966 132.321 170.85 132.669 170.774C133.02 170.695 133.373 170.632 133.728 170.585C134.192 170.526 134.568 170.481 134.856 170.451C135.148 170.418 135.36 170.363 135.493 170.287C135.629 170.211 135.697 170.078 135.697 169.889V169.849C135.697 169.359 135.562 168.978 135.294 168.706C135.029 168.434 134.626 168.298 134.086 168.298C133.526 168.298 133.086 168.421 132.768 168.666C132.45 168.911 132.226 169.173 132.097 169.452L130.983 169.054C131.182 168.59 131.448 168.229 131.779 167.97C132.114 167.708 132.478 167.526 132.873 167.423C133.27 167.317 133.662 167.264 134.046 167.264C134.291 167.264 134.573 167.294 134.891 167.354C135.213 167.41 135.523 167.528 135.821 167.707C136.122 167.886 136.373 168.156 136.572 168.517C136.77 168.878 136.87 169.362 136.87 169.969V175H135.697V173.966H135.637C135.557 174.132 135.425 174.309 135.239 174.498C135.054 174.687 134.807 174.848 134.498 174.98C134.19 175.113 133.814 175.179 133.37 175.179ZM133.549 174.125C134.013 174.125 134.404 174.034 134.722 173.852C135.044 173.669 135.286 173.434 135.448 173.146C135.614 172.857 135.697 172.554 135.697 172.236V171.162C135.647 171.222 135.537 171.276 135.368 171.326C135.203 171.372 135.01 171.414 134.792 171.45C134.576 171.483 134.366 171.513 134.16 171.54C133.958 171.563 133.794 171.583 133.668 171.599C133.363 171.639 133.078 171.704 132.813 171.793C132.551 171.879 132.339 172.01 132.177 172.186C132.018 172.358 131.938 172.594 131.938 172.892C131.938 173.3 132.089 173.608 132.39 173.817C132.695 174.022 133.081 174.125 133.549 174.125ZM140.034 170.406V175H138.861V167.364H139.994V168.557H140.094C140.273 168.169 140.545 167.857 140.909 167.622C141.274 167.384 141.744 167.264 142.321 167.264C142.838 167.264 143.291 167.37 143.678 167.582C144.066 167.791 144.368 168.109 144.583 168.537C144.799 168.961 144.906 169.498 144.906 170.148V175H143.733V170.227C143.733 169.627 143.577 169.16 143.266 168.825C142.954 168.487 142.527 168.318 141.983 168.318C141.609 168.318 141.274 168.399 140.979 168.562C140.687 168.724 140.457 168.961 140.288 169.273C140.119 169.584 140.034 169.962 140.034 170.406ZM150.002 175.159C149.286 175.159 148.67 174.99 148.153 174.652C147.636 174.314 147.238 173.848 146.96 173.255C146.681 172.662 146.542 171.984 146.542 171.222C146.542 170.446 146.685 169.762 146.97 169.168C147.258 168.572 147.659 168.106 148.173 167.771C148.69 167.433 149.293 167.264 149.982 167.264C150.519 167.264 151.003 167.364 151.434 167.562C151.865 167.761 152.218 168.04 152.493 168.398C152.768 168.756 152.939 169.173 153.005 169.651H151.832C151.742 169.303 151.544 168.994 151.235 168.726C150.93 168.454 150.519 168.318 150.002 168.318C149.545 168.318 149.144 168.437 148.799 168.676C148.458 168.911 148.191 169.245 147.999 169.675C147.81 170.103 147.715 170.605 147.715 171.182C147.715 171.772 147.808 172.286 147.994 172.723C148.183 173.161 148.448 173.5 148.789 173.742C149.134 173.984 149.538 174.105 150.002 174.105C150.307 174.105 150.584 174.052 150.833 173.946C151.081 173.84 151.292 173.688 151.464 173.489C151.636 173.29 151.759 173.051 151.832 172.773H153.005C152.939 173.223 152.775 173.629 152.513 173.991C152.254 174.349 151.911 174.634 151.484 174.846C151.06 175.055 150.566 175.159 150.002 175.159ZM157.772 175.159C157.036 175.159 156.401 174.997 155.868 174.672C155.337 174.344 154.928 173.886 154.64 173.3C154.355 172.71 154.212 172.024 154.212 171.241C154.212 170.459 154.355 169.77 154.64 169.173C154.928 168.573 155.329 168.106 155.843 167.771C156.36 167.433 156.963 167.264 157.652 167.264C158.05 167.264 158.443 167.33 158.831 167.463C159.218 167.596 159.571 167.811 159.89 168.109C160.208 168.404 160.461 168.795 160.65 169.283C160.839 169.77 160.934 170.37 160.934 171.082V171.58H155.047V170.565H159.74C159.74 170.134 159.654 169.75 159.482 169.412C159.313 169.074 159.071 168.807 158.756 168.612C158.444 168.416 158.077 168.318 157.652 168.318C157.185 168.318 156.781 168.434 156.439 168.666C156.101 168.895 155.841 169.193 155.659 169.561C155.476 169.929 155.385 170.323 155.385 170.744V171.42C155.385 171.997 155.485 172.486 155.684 172.887C155.886 173.285 156.166 173.588 156.524 173.797C156.882 174.002 157.298 174.105 157.772 174.105C158.08 174.105 158.358 174.062 158.607 173.976C158.859 173.886 159.076 173.754 159.258 173.578C159.44 173.399 159.581 173.177 159.681 172.912L160.814 173.23C160.695 173.615 160.494 173.953 160.213 174.244C159.931 174.533 159.583 174.758 159.169 174.92C158.754 175.08 158.289 175.159 157.772 175.159Z" fill="#4A5565"/>
<path d="M430.909 164.205C431.386 164.208 431.864 164.299 432.341 164.477C432.818 164.655 433.254 164.951 433.648 165.364C434.042 165.773 434.358 166.331 434.597 167.04C434.835 167.748 434.955 168.636 434.955 169.705C434.955 170.739 434.856 171.657 434.659 172.46C434.466 173.259 434.186 173.934 433.818 174.483C433.455 175.032 433.011 175.449 432.489 175.733C431.97 176.017 431.383 176.159 430.727 176.159C430.076 176.159 429.494 176.03 428.983 175.773C428.475 175.511 428.059 175.15 427.733 174.688C427.411 174.222 427.205 173.682 427.114 173.068H428.5C428.625 173.602 428.873 174.044 429.244 174.392C429.619 174.737 430.114 174.909 430.727 174.909C431.625 174.909 432.333 174.517 432.852 173.733C433.375 172.949 433.636 171.841 433.636 170.409H433.545C433.333 170.727 433.081 171.002 432.79 171.233C432.498 171.464 432.174 171.642 431.818 171.767C431.462 171.892 431.083 171.955 430.682 171.955C430.015 171.955 429.403 171.79 428.847 171.46C428.294 171.127 427.85 170.67 427.517 170.091C427.188 169.508 427.023 168.841 427.023 168.091C427.023 167.379 427.182 166.727 427.5 166.136C427.822 165.542 428.273 165.068 428.852 164.716C429.436 164.364 430.121 164.193 430.909 164.205ZM430.909 165.455C430.432 165.455 430.002 165.574 429.619 165.812C429.241 166.047 428.939 166.366 428.716 166.767C428.496 167.165 428.386 167.606 428.386 168.091C428.386 168.576 428.492 169.017 428.705 169.415C428.92 169.809 429.214 170.123 429.585 170.358C429.96 170.589 430.386 170.705 430.864 170.705C431.223 170.705 431.559 170.634 431.869 170.494C432.18 170.35 432.451 170.155 432.682 169.909C432.917 169.659 433.1 169.377 433.233 169.062C433.366 168.744 433.432 168.413 433.432 168.068C433.432 167.614 433.322 167.187 433.102 166.79C432.886 166.392 432.587 166.07 432.205 165.824C431.826 165.578 431.394 165.455 430.909 165.455ZM440.604 176.159C439.823 176.159 439.134 176.021 438.536 175.744C437.941 175.464 437.477 175.08 437.143 174.591C436.81 174.098 436.645 173.538 436.649 172.909C436.645 172.417 436.742 171.962 436.939 171.545C437.136 171.125 437.405 170.775 437.746 170.494C438.09 170.21 438.475 170.03 438.899 169.955V169.886C438.342 169.742 437.899 169.43 437.57 168.949C437.24 168.464 437.077 167.913 437.081 167.295C437.077 166.705 437.227 166.176 437.53 165.71C437.833 165.244 438.25 164.877 438.78 164.608C439.314 164.339 439.922 164.205 440.604 164.205C441.278 164.205 441.88 164.339 442.411 164.608C442.941 164.877 443.357 165.244 443.661 165.71C443.967 166.176 444.123 166.705 444.126 167.295C444.123 167.913 443.954 168.464 443.621 168.949C443.291 169.43 442.854 169.742 442.308 169.886V169.955C442.729 170.03 443.107 170.21 443.445 170.494C443.782 170.775 444.051 171.125 444.251 171.545C444.452 171.962 444.554 172.417 444.558 172.909C444.554 173.538 444.384 174.098 444.047 174.591C443.714 175.08 443.25 175.464 442.655 175.744C442.064 176.021 441.38 176.159 440.604 176.159ZM440.604 174.909C441.13 174.909 441.585 174.824 441.967 174.653C442.35 174.483 442.645 174.242 442.854 173.932C443.062 173.621 443.168 173.258 443.172 172.841C443.168 172.402 443.054 172.013 442.831 171.676C442.607 171.339 442.303 171.074 441.916 170.881C441.534 170.687 441.096 170.591 440.604 170.591C440.107 170.591 439.664 170.687 439.274 170.881C438.888 171.074 438.583 171.339 438.359 171.676C438.14 172.013 438.032 172.402 438.036 172.841C438.032 173.258 438.132 173.621 438.337 173.932C438.545 174.242 438.842 174.483 439.229 174.653C439.615 174.824 440.073 174.909 440.604 174.909ZM440.604 169.386C441.02 169.386 441.39 169.303 441.712 169.136C442.037 168.97 442.293 168.737 442.479 168.438C442.664 168.138 442.759 167.788 442.763 167.386C442.759 166.992 442.666 166.65 442.484 166.358C442.303 166.062 442.051 165.835 441.729 165.676C441.407 165.513 441.032 165.432 440.604 165.432C440.168 165.432 439.787 165.513 439.462 165.676C439.136 165.835 438.884 166.062 438.706 166.358C438.528 166.65 438.441 166.992 438.445 167.386C438.441 167.788 438.53 168.138 438.712 168.438C438.897 168.737 439.153 168.97 439.479 169.136C439.804 169.303 440.179 169.386 440.604 169.386Z" fill="#00A63E"/>
<path d="M78 194C78 191.791 79.7909 190 82 190H442C444.209 190 446 191.791 446 194C446 196.209 444.209 198 442 198H82C79.7909 198 78 196.209 78 194Z" fill="#E5E7EB"/>
<path d="M78 194C78 191.791 79.7909 190 82 190H434.633C436.842 190 438.633 191.791 438.633 194C438.633 196.209 436.842 198 434.633 198H82C79.7909 198 78 196.209 78 194Z" fill="#00C950"/>
<path d="M84.8011 215.364C84.7415 214.86 84.4995 214.469 84.0753 214.19C83.651 213.912 83.1307 213.773 82.5142 213.773C82.0634 213.773 81.669 213.846 81.331 213.991C80.9962 214.137 80.7344 214.338 80.5455 214.593C80.3598 214.848 80.267 215.138 80.267 215.463C80.267 215.735 80.3317 215.969 80.4609 216.164C80.5935 216.356 80.7625 216.517 80.968 216.646C81.1735 216.772 81.389 216.877 81.6143 216.96C81.8397 217.039 82.0469 217.104 82.2358 217.153L83.2699 217.432C83.535 217.501 83.83 217.598 84.1548 217.72C84.483 217.843 84.7962 218.01 85.0945 218.222C85.3961 218.431 85.6446 218.7 85.8402 219.028C86.0357 219.356 86.1335 219.759 86.1335 220.236C86.1335 220.786 85.9893 221.283 85.701 221.727C85.416 222.171 84.9983 222.524 84.4482 222.786C83.9013 223.048 83.2367 223.179 82.4545 223.179C81.7254 223.179 81.094 223.061 80.5604 222.826C80.0301 222.591 79.6125 222.263 79.3075 221.842C79.0059 221.421 78.8352 220.932 78.7955 220.375H80.0682C80.1013 220.759 80.2306 221.078 80.456 221.33C80.6847 221.578 80.973 221.764 81.321 221.886C81.6723 222.006 82.0502 222.065 82.4545 222.065C82.9252 222.065 83.3478 221.989 83.7223 221.837C84.0968 221.681 84.3935 221.465 84.6122 221.19C84.831 220.912 84.9403 220.587 84.9403 220.216C84.9403 219.878 84.8459 219.603 84.657 219.391C84.468 219.179 84.2195 219.006 83.9112 218.874C83.603 218.741 83.2699 218.625 82.9119 218.526L81.6591 218.168C80.8636 217.939 80.2339 217.612 79.7699 217.188C79.3059 216.764 79.0739 216.209 79.0739 215.523C79.0739 214.953 79.228 214.455 79.5362 214.031C79.8478 213.604 80.2654 213.272 80.7891 213.037C81.3161 212.798 81.9044 212.679 82.554 212.679C83.2102 212.679 83.7936 212.797 84.304 213.032C84.8144 213.264 85.2188 213.582 85.517 213.987C85.8187 214.391 85.9777 214.85 85.9943 215.364H84.8011ZM88.0103 223V212.818H94.1552V213.912H89.2433V217.352H93.837V218.446H89.2433V221.906H94.2347V223H88.0103ZM104.818 217.909C104.818 218.983 104.624 219.911 104.236 220.693C103.849 221.475 103.317 222.079 102.64 222.503C101.964 222.927 101.192 223.139 100.324 223.139C99.4553 223.139 98.6831 222.927 98.0069 222.503C97.3308 222.079 96.7988 221.475 96.411 220.693C96.0233 219.911 95.8294 218.983 95.8294 217.909C95.8294 216.835 96.0233 215.907 96.411 215.125C96.7988 214.343 97.3308 213.74 98.0069 213.315C98.6831 212.891 99.4553 212.679 100.324 212.679C101.192 212.679 101.964 212.891 102.64 213.315C103.317 213.74 103.849 214.343 104.236 215.125C104.624 215.907 104.818 216.835 104.818 217.909ZM103.625 217.909C103.625 217.027 103.477 216.283 103.182 215.677C102.891 215.07 102.495 214.611 101.994 214.3C101.497 213.988 100.94 213.832 100.324 213.832C99.7072 213.832 99.1487 213.988 98.6483 214.3C98.1511 214.611 97.755 215.07 97.46 215.677C97.1684 216.283 97.0225 217.027 97.0225 217.909C97.0225 218.791 97.1684 219.535 97.46 220.141C97.755 220.748 98.1511 221.207 98.6483 221.518C99.1487 221.83 99.7072 221.986 100.324 221.986C100.94 221.986 101.497 221.83 101.994 221.518C102.495 221.207 102.891 220.748 103.182 220.141C103.477 219.535 103.625 218.791 103.625 217.909Z" fill="#4A5565"/>
<path d="M430.909 212.205C431.386 212.208 431.864 212.299 432.341 212.477C432.818 212.655 433.254 212.951 433.648 213.364C434.042 213.773 434.358 214.331 434.597 215.04C434.835 215.748 434.955 216.636 434.955 217.705C434.955 218.739 434.856 219.657 434.659 220.46C434.466 221.259 434.186 221.934 433.818 222.483C433.455 223.032 433.011 223.449 432.489 223.733C431.97 224.017 431.383 224.159 430.727 224.159C430.076 224.159 429.494 224.03 428.983 223.773C428.475 223.511 428.059 223.15 427.733 222.688C427.411 222.222 427.205 221.682 427.114 221.068H428.5C428.625 221.602 428.873 222.044 429.244 222.392C429.619 222.737 430.114 222.909 430.727 222.909C431.625 222.909 432.333 222.517 432.852 221.733C433.375 220.949 433.636 219.841 433.636 218.409H433.545C433.333 218.727 433.081 219.002 432.79 219.233C432.498 219.464 432.174 219.642 431.818 219.767C431.462 219.892 431.083 219.955 430.682 219.955C430.015 219.955 429.403 219.79 428.847 219.46C428.294 219.127 427.85 218.67 427.517 218.091C427.188 217.508 427.023 216.841 427.023 216.091C427.023 215.379 427.182 214.727 427.5 214.136C427.822 213.542 428.273 213.068 428.852 212.716C429.436 212.364 430.121 212.193 430.909 212.205ZM430.909 213.455C430.432 213.455 430.002 213.574 429.619 213.812C429.241 214.047 428.939 214.366 428.716 214.767C428.496 215.165 428.386 215.606 428.386 216.091C428.386 216.576 428.492 217.017 428.705 217.415C428.92 217.809 429.214 218.123 429.585 218.358C429.96 218.589 430.386 218.705 430.864 218.705C431.223 218.705 431.559 218.634 431.869 218.494C432.18 218.35 432.451 218.155 432.682 217.909C432.917 217.659 433.1 217.377 433.233 217.062C433.366 216.744 433.432 216.413 433.432 216.068C433.432 215.614 433.322 215.187 433.102 214.79C432.886 214.392 432.587 214.07 432.205 213.824C431.826 213.578 431.394 213.455 430.909 213.455ZM440.513 224.159C439.846 224.159 439.246 224.027 438.712 223.761C438.178 223.496 437.75 223.133 437.428 222.67C437.106 222.208 436.929 221.682 436.899 221.091H438.263C438.316 221.617 438.554 222.053 438.979 222.398C439.407 222.739 439.918 222.909 440.513 222.909C440.99 222.909 441.414 222.797 441.786 222.574C442.161 222.35 442.454 222.044 442.666 221.653C442.882 221.259 442.99 220.814 442.99 220.318C442.99 219.811 442.878 219.358 442.655 218.96C442.435 218.559 442.132 218.242 441.746 218.011C441.359 217.78 440.918 217.663 440.422 217.659C440.066 217.655 439.7 217.71 439.325 217.824C438.95 217.934 438.642 218.076 438.399 218.25L437.081 218.091L437.786 212.364H443.831V213.614H438.967L438.558 217.045H438.626C438.865 216.856 439.164 216.699 439.524 216.574C439.884 216.449 440.259 216.386 440.649 216.386C441.361 216.386 441.996 216.557 442.553 216.898C443.113 217.235 443.553 217.697 443.871 218.284C444.193 218.871 444.354 219.542 444.354 220.295C444.354 221.038 444.187 221.701 443.854 222.284C443.524 222.864 443.07 223.322 442.49 223.659C441.911 223.992 441.251 224.159 440.513 224.159Z" fill="#00A63E"/>
<path d="M78 242C78 239.791 79.7909 238 82 238H442C444.209 238 446 239.791 446 242C446 244.209 444.209 246 442 246H82C79.7909 246 78 244.209 78 242Z" fill="#E5E7EB"/>
<path d="M78 242C78 239.791 79.7909 238 82 238H423.594C425.803 238 427.594 239.791 427.594 242C427.594 244.209 425.803 246 423.594 246H82C79.7909 246 78 244.209 78 242Z" fill="#00C950"/>
<path d="M54 290C54 287.791 55.7909 286 58 286H466C468.209 286 470 287.791 470 290V314C470 316.209 468.209 318 466 318H58C55.7909 318 54 316.209 54 314V290Z" fill="#F3F4F6"/>
<path d="M63.2955 302.062L63.9432 301.398L66.1932 303.614L70.8466 298.977L71.5114 299.642L66.1932 304.943L63.2955 302.062ZM77.0021 297.273H78.2635L81.2294 304.517H81.3317L84.2976 297.273H85.5589V306H84.5703V299.369H84.4851L81.7578 306H80.8033L78.076 299.369H77.9908V306H77.0021V297.273ZM90.2859 306.136C89.6552 306.136 89.1112 305.997 88.6538 305.719C88.1992 305.438 87.8484 305.045 87.6012 304.543C87.3569 304.037 87.2347 303.449 87.2347 302.778C87.2347 302.108 87.3569 301.517 87.6012 301.006C87.8484 300.491 88.1921 300.091 88.6325 299.804C89.0756 299.514 89.5927 299.369 90.1836 299.369C90.5245 299.369 90.8612 299.426 91.1935 299.54C91.5259 299.653 91.8285 299.838 92.1012 300.094C92.3739 300.347 92.5913 300.682 92.7532 301.099C92.9151 301.517 92.9961 302.031 92.9961 302.642V303.068H87.9506V302.199H91.9734C91.9734 301.83 91.8995 301.5 91.7518 301.21C91.6069 300.92 91.3995 300.692 91.1296 300.524C90.8626 300.357 90.5472 300.273 90.1836 300.273C89.783 300.273 89.4364 300.372 89.1438 300.571C88.854 300.767 88.631 301.023 88.4748 301.338C88.3185 301.653 88.2404 301.991 88.2404 302.352V302.932C88.2404 303.426 88.3256 303.845 88.4961 304.189C88.6694 304.53 88.9094 304.79 89.2163 304.969C89.5231 305.145 89.8796 305.233 90.2859 305.233C90.5501 305.233 90.7887 305.196 91.0018 305.122C91.2177 305.045 91.4038 304.932 91.56 304.781C91.7163 304.628 91.837 304.437 91.9222 304.21L92.8938 304.483C92.7915 304.812 92.6197 305.102 92.3782 305.352C92.1367 305.599 91.8384 305.793 91.4833 305.932C91.1282 306.068 90.729 306.136 90.2859 306.136ZM97.3725 299.455V300.307H93.9805V299.455H97.3725ZM94.9691 297.886H95.9748V304.125C95.9748 304.409 96.016 304.622 96.0984 304.764C96.1836 304.903 96.2915 304.997 96.4222 305.045C96.5558 305.091 96.6964 305.114 96.8441 305.114C96.9549 305.114 97.0458 305.108 97.1168 305.097C97.1879 305.082 97.2447 305.071 97.2873 305.062L97.4918 305.966C97.4237 305.991 97.3285 306.017 97.2063 306.043C97.0842 306.071 96.9293 306.085 96.7418 306.085C96.4577 306.085 96.1793 306.024 95.9066 305.902C95.6367 305.78 95.4123 305.594 95.2333 305.344C95.0572 305.094 94.9691 304.778 94.9691 304.398V297.886ZM100.811 306.153C100.397 306.153 100.02 306.075 99.6822 305.919C99.3441 305.76 99.0756 305.531 98.8768 305.233C98.6779 304.932 98.5785 304.568 98.5785 304.142C98.5785 303.767 98.6523 303.463 98.8001 303.23C98.9478 302.994 99.1452 302.81 99.3924 302.676C99.6396 302.543 99.9123 302.443 100.211 302.378C100.512 302.31 100.814 302.256 101.118 302.216C101.516 302.165 101.838 302.126 102.086 302.101C102.336 302.072 102.517 302.026 102.631 301.96C102.748 301.895 102.806 301.781 102.806 301.619V301.585C102.806 301.165 102.691 300.838 102.461 300.605C102.233 300.372 101.888 300.256 101.425 300.256C100.945 300.256 100.569 300.361 100.296 300.571C100.023 300.781 99.8313 301.006 99.7205 301.244L98.766 300.903C98.9364 300.506 99.1637 300.196 99.4478 299.974C99.7347 299.75 100.047 299.594 100.385 299.506C100.726 299.415 101.061 299.369 101.391 299.369C101.601 299.369 101.843 299.395 102.115 299.446C102.391 299.494 102.657 299.595 102.912 299.749C103.171 299.902 103.385 300.134 103.556 300.443C103.726 300.753 103.811 301.168 103.811 301.688V306H102.806V305.114H102.755C102.686 305.256 102.573 305.408 102.414 305.57C102.255 305.732 102.043 305.869 101.779 305.983C101.515 306.097 101.192 306.153 100.811 306.153ZM100.965 305.25C101.363 305.25 101.698 305.172 101.971 305.016C102.246 304.859 102.453 304.658 102.593 304.411C102.735 304.163 102.806 303.903 102.806 303.631V302.71C102.763 302.761 102.669 302.808 102.525 302.851C102.382 302.891 102.218 302.926 102.03 302.957C101.846 302.986 101.665 303.011 101.489 303.034C101.316 303.054 101.175 303.071 101.067 303.085C100.806 303.119 100.561 303.175 100.334 303.251C100.11 303.325 99.9279 303.437 99.7887 303.588C99.6523 303.736 99.5842 303.937 99.5842 304.193C99.5842 304.543 99.7134 304.807 99.9719 304.986C100.233 305.162 100.564 305.25 100.965 305.25ZM111.852 306H109.158V297.273H111.971C112.817 297.273 113.542 297.447 114.144 297.797C114.746 298.143 115.208 298.642 115.529 299.293C115.85 299.94 116.011 300.716 116.011 301.619C116.011 302.528 115.849 303.311 115.525 303.967C115.201 304.621 114.729 305.124 114.11 305.476C113.491 305.825 112.738 306 111.852 306ZM110.215 305.062H111.783C112.505 305.062 113.103 304.923 113.577 304.645C114.052 304.366 114.406 303.97 114.638 303.456C114.871 302.942 114.988 302.33 114.988 301.619C114.988 300.915 114.873 300.308 114.643 299.8C114.413 299.288 114.069 298.896 113.612 298.624C113.154 298.348 112.585 298.21 111.903 298.21H110.215V305.062ZM120.391 306.136C119.761 306.136 119.217 305.997 118.759 305.719C118.305 305.438 117.954 305.045 117.707 304.543C117.462 304.037 117.34 303.449 117.34 302.778C117.34 302.108 117.462 301.517 117.707 301.006C117.954 300.491 118.298 300.091 118.738 299.804C119.181 299.514 119.698 299.369 120.289 299.369C120.63 299.369 120.967 299.426 121.299 299.54C121.631 299.653 121.934 299.838 122.207 300.094C122.479 300.347 122.697 300.682 122.859 301.099C123.021 301.517 123.102 302.031 123.102 302.642V303.068H118.056V302.199H122.079C122.079 301.83 122.005 301.5 121.857 301.21C121.712 300.92 121.505 300.692 121.235 300.524C120.968 300.357 120.653 300.273 120.289 300.273C119.888 300.273 119.542 300.372 119.249 300.571C118.96 300.767 118.737 301.023 118.58 301.338C118.424 301.653 118.346 301.991 118.346 302.352V302.932C118.346 303.426 118.431 303.845 118.602 304.189C118.775 304.53 119.015 304.79 119.322 304.969C119.629 305.145 119.985 305.233 120.391 305.233C120.656 305.233 120.894 305.196 121.107 305.122C121.323 305.045 121.509 304.932 121.665 304.781C121.822 304.628 121.942 304.437 122.028 304.21L122.999 304.483C122.897 304.812 122.725 305.102 122.484 305.352C122.242 305.599 121.944 305.793 121.589 305.932C121.234 306.068 120.835 306.136 120.391 306.136ZM129.268 300.92L128.364 301.176C128.308 301.026 128.224 300.879 128.113 300.737C128.005 300.592 127.857 300.473 127.67 300.379C127.482 300.286 127.242 300.239 126.95 300.239C126.549 300.239 126.215 300.331 125.948 300.516C125.684 300.697 125.552 300.929 125.552 301.21C125.552 301.46 125.643 301.658 125.825 301.803C126.006 301.947 126.29 302.068 126.677 302.165L127.648 302.403C128.234 302.545 128.67 302.763 128.957 303.055C129.244 303.345 129.387 303.719 129.387 304.176C129.387 304.551 129.279 304.886 129.063 305.182C128.85 305.477 128.552 305.71 128.168 305.881C127.785 306.051 127.339 306.136 126.83 306.136C126.163 306.136 125.61 305.991 125.173 305.702C124.735 305.412 124.458 304.989 124.342 304.432L125.296 304.193C125.387 304.545 125.559 304.81 125.812 304.986C126.067 305.162 126.401 305.25 126.813 305.25C127.282 305.25 127.654 305.151 127.93 304.952C128.208 304.75 128.347 304.509 128.347 304.227C128.347 304 128.268 303.81 128.109 303.656C127.95 303.5 127.705 303.384 127.376 303.307L126.285 303.051C125.685 302.909 125.245 302.689 124.964 302.391C124.685 302.089 124.546 301.713 124.546 301.261C124.546 300.892 124.65 300.565 124.857 300.281C125.067 299.997 125.353 299.774 125.714 299.612C126.077 299.45 126.489 299.369 126.95 299.369C127.597 299.369 128.106 299.511 128.475 299.795C128.847 300.08 129.112 300.455 129.268 300.92ZM133.56 306.136C132.946 306.136 132.418 305.991 131.975 305.702C131.532 305.412 131.191 305.013 130.952 304.504C130.713 303.996 130.594 303.415 130.594 302.761C130.594 302.097 130.716 301.51 130.961 301.001C131.208 300.49 131.551 300.091 131.992 299.804C132.435 299.514 132.952 299.369 133.543 299.369C134.003 299.369 134.418 299.455 134.787 299.625C135.157 299.795 135.459 300.034 135.695 300.341C135.931 300.648 136.077 301.006 136.134 301.415H135.128C135.051 301.116 134.881 300.852 134.617 300.622C134.355 300.389 134.003 300.273 133.56 300.273C133.168 300.273 132.824 300.375 132.529 300.58C132.236 300.781 132.007 301.067 131.843 301.436C131.681 301.803 131.6 302.233 131.6 302.727C131.6 303.233 131.679 303.673 131.838 304.048C132 304.423 132.228 304.714 132.52 304.922C132.816 305.129 133.162 305.233 133.56 305.233C133.821 305.233 134.059 305.188 134.272 305.097C134.485 305.006 134.665 304.875 134.813 304.705C134.961 304.534 135.066 304.33 135.128 304.091H136.134C136.077 304.477 135.936 304.825 135.712 305.135C135.49 305.442 135.196 305.686 134.83 305.868C134.466 306.047 134.043 306.136 133.56 306.136ZM137.604 306V299.455H138.576V300.443H138.644C138.763 300.119 138.979 299.857 139.292 299.655C139.604 299.453 139.956 299.352 140.348 299.352C140.422 299.352 140.515 299.354 140.625 299.357C140.736 299.359 140.82 299.364 140.877 299.369V300.392C140.843 300.384 140.765 300.371 140.642 300.354C140.523 300.334 140.397 300.324 140.263 300.324C139.945 300.324 139.661 300.391 139.411 300.524C139.164 300.655 138.968 300.837 138.823 301.07C138.681 301.3 138.61 301.562 138.61 301.858V306H137.604ZM142.069 306V299.455H143.075V306H142.069ZM142.58 298.364C142.384 298.364 142.215 298.297 142.073 298.163C141.934 298.03 141.864 297.869 141.864 297.682C141.864 297.494 141.934 297.334 142.073 297.2C142.215 297.067 142.384 297 142.58 297C142.776 297 142.944 297.067 143.083 297.2C143.225 297.334 143.296 297.494 143.296 297.682C143.296 297.869 143.225 298.03 143.083 298.163C142.944 298.297 142.776 298.364 142.58 298.364ZM144.917 308.455V299.455H145.888V300.494H146.007C146.081 300.381 146.184 300.236 146.314 300.06C146.448 299.881 146.638 299.722 146.885 299.582C147.135 299.44 147.473 299.369 147.9 299.369C148.451 299.369 148.936 299.507 149.357 299.783C149.777 300.058 150.105 300.449 150.341 300.955C150.577 301.46 150.695 302.057 150.695 302.744C150.695 303.438 150.577 304.038 150.341 304.547C150.105 305.053 149.779 305.445 149.361 305.723C148.944 305.999 148.462 306.136 147.917 306.136C147.496 306.136 147.159 306.067 146.907 305.928C146.654 305.786 146.459 305.625 146.323 305.446C146.186 305.264 146.081 305.114 146.007 304.994H145.922V308.455H144.917ZM145.905 302.727C145.905 303.222 145.978 303.658 146.123 304.036C146.267 304.411 146.479 304.705 146.757 304.918C147.036 305.128 147.377 305.233 147.78 305.233C148.201 305.233 148.551 305.122 148.833 304.901C149.117 304.676 149.33 304.375 149.472 303.997C149.617 303.616 149.689 303.193 149.689 302.727C149.689 302.267 149.618 301.852 149.476 301.483C149.337 301.111 149.125 300.817 148.841 300.601C148.56 300.382 148.206 300.273 147.78 300.273C147.371 300.273 147.027 300.376 146.749 300.584C146.471 300.788 146.26 301.075 146.118 301.445C145.976 301.811 145.905 302.239 145.905 302.727ZM155.076 299.455V300.307H151.684V299.455H155.076ZM152.672 297.886H153.678V304.125C153.678 304.409 153.719 304.622 153.801 304.764C153.887 304.903 153.995 304.997 154.125 305.045C154.259 305.091 154.4 305.114 154.547 305.114C154.658 305.114 154.749 305.108 154.82 305.097C154.891 305.082 154.948 305.071 154.99 305.062L155.195 305.966C155.127 305.991 155.032 306.017 154.909 306.043C154.787 306.071 154.632 306.085 154.445 306.085C154.161 306.085 153.882 306.024 153.61 305.902C153.34 305.78 153.115 305.594 152.936 305.344C152.76 305.094 152.672 304.778 152.672 304.398V297.886ZM156.588 306V299.455H157.594V306H156.588ZM157.1 298.364C156.904 298.364 156.735 298.297 156.593 298.163C156.453 298.03 156.384 297.869 156.384 297.682C156.384 297.494 156.453 297.334 156.593 297.2C156.735 297.067 156.904 297 157.1 297C157.296 297 157.463 297.067 157.603 297.2C157.745 297.334 157.816 297.494 157.816 297.682C157.816 297.869 157.745 298.03 157.603 298.163C157.463 298.297 157.296 298.364 157.1 298.364ZM162.095 306.136C161.504 306.136 160.986 305.996 160.54 305.714C160.097 305.433 159.75 305.04 159.5 304.534C159.253 304.028 159.129 303.437 159.129 302.761C159.129 302.08 159.253 301.484 159.5 300.976C159.75 300.467 160.097 300.072 160.54 299.791C160.986 299.51 161.504 299.369 162.095 299.369C162.686 299.369 163.203 299.51 163.646 299.791C164.092 300.072 164.439 300.467 164.686 300.976C164.936 301.484 165.061 302.08 165.061 302.761C165.061 303.437 164.936 304.028 164.686 304.534C164.439 305.04 164.092 305.433 163.646 305.714C163.203 305.996 162.686 306.136 162.095 306.136ZM162.095 305.233C162.544 305.233 162.913 305.118 163.203 304.888C163.493 304.658 163.707 304.355 163.847 303.98C163.986 303.605 164.055 303.199 164.055 302.761C164.055 302.324 163.986 301.916 163.847 301.538C163.707 301.161 163.493 300.855 163.203 300.622C162.913 300.389 162.544 300.273 162.095 300.273C161.646 300.273 161.277 300.389 160.987 300.622C160.697 300.855 160.483 301.161 160.344 301.538C160.205 301.916 160.135 302.324 160.135 302.761C160.135 303.199 160.205 303.605 160.344 303.98C160.483 304.355 160.697 304.658 160.987 304.888C161.277 305.118 161.646 305.233 162.095 305.233ZM167.602 302.062V306H166.596V299.455H167.568V300.477H167.653C167.806 300.145 168.039 299.878 168.352 299.676C168.664 299.472 169.068 299.369 169.562 299.369C170.005 299.369 170.393 299.46 170.725 299.642C171.058 299.821 171.316 300.094 171.501 300.46C171.686 300.824 171.778 301.284 171.778 301.841V306H170.772V301.909C170.772 301.395 170.639 300.994 170.372 300.707C170.105 300.418 169.738 300.273 169.272 300.273C168.951 300.273 168.664 300.342 168.412 300.482C168.162 300.621 167.964 300.824 167.819 301.091C167.674 301.358 167.602 301.682 167.602 302.062ZM179.65 306.136C179.059 306.136 178.54 305.996 178.094 305.714C177.651 305.433 177.305 305.04 177.055 304.534C176.808 304.028 176.684 303.437 176.684 302.761C176.684 302.08 176.808 301.484 177.055 300.976C177.305 300.467 177.651 300.072 178.094 299.791C178.54 299.51 179.059 299.369 179.65 299.369C180.241 299.369 180.758 299.51 181.201 299.791C181.647 300.072 181.994 300.467 182.241 300.976C182.491 301.484 182.616 302.08 182.616 302.761C182.616 303.437 182.491 304.028 182.241 304.534C181.994 305.04 181.647 305.433 181.201 305.714C180.758 305.996 180.241 306.136 179.65 306.136ZM179.65 305.233C180.099 305.233 180.468 305.118 180.758 304.888C181.048 304.658 181.262 304.355 181.401 303.98C181.54 303.605 181.61 303.199 181.61 302.761C181.61 302.324 181.54 301.916 181.401 301.538C181.262 301.161 181.048 300.855 180.758 300.622C180.468 300.389 180.099 300.273 179.65 300.273C179.201 300.273 178.832 300.389 178.542 300.622C178.252 300.855 178.038 301.161 177.898 301.538C177.759 301.916 177.69 302.324 177.69 302.761C177.69 303.199 177.759 303.605 177.898 303.98C178.038 304.355 178.252 304.658 178.542 304.888C178.832 305.118 179.201 305.233 179.65 305.233ZM184.151 308.455V299.455H185.123V300.494H185.242C185.316 300.381 185.418 300.236 185.549 300.06C185.682 299.881 185.873 299.722 186.12 299.582C186.37 299.44 186.708 299.369 187.134 299.369C187.685 299.369 188.171 299.507 188.591 299.783C189.012 300.058 189.34 300.449 189.576 300.955C189.811 301.46 189.929 302.057 189.929 302.744C189.929 303.438 189.811 304.038 189.576 304.547C189.34 305.053 189.013 305.445 188.596 305.723C188.178 305.999 187.696 306.136 187.151 306.136C186.73 306.136 186.394 306.067 186.141 305.928C185.888 305.786 185.694 305.625 185.557 305.446C185.421 305.264 185.316 305.114 185.242 304.994H185.157V308.455H184.151ZM185.14 302.727C185.14 303.222 185.212 303.658 185.357 304.036C185.502 304.411 185.713 304.705 185.992 304.918C186.27 305.128 186.611 305.233 187.015 305.233C187.435 305.233 187.786 305.122 188.067 304.901C188.351 304.676 188.564 304.375 188.706 303.997C188.851 303.616 188.924 303.193 188.924 302.727C188.924 302.267 188.853 301.852 188.711 301.483C188.571 301.111 188.36 300.817 188.076 300.601C187.794 300.382 187.441 300.273 187.015 300.273C186.605 300.273 186.262 300.376 185.983 300.584C185.705 300.788 185.495 301.075 185.353 301.445C185.211 301.811 185.14 302.239 185.14 302.727ZM194.31 299.455V300.307H190.918V299.455H194.31ZM191.907 297.886H192.912V304.125C192.912 304.409 192.953 304.622 193.036 304.764C193.121 304.903 193.229 304.997 193.36 305.045C193.493 305.091 193.634 305.114 193.782 305.114C193.892 305.114 193.983 305.108 194.054 305.097C194.125 305.082 194.182 305.071 194.225 305.062L194.429 305.966C194.361 305.991 194.266 306.017 194.144 306.043C194.022 306.071 193.867 306.085 193.679 306.085C193.395 306.085 193.117 306.024 192.844 305.902C192.574 305.78 192.35 305.594 192.171 305.344C191.995 305.094 191.907 304.778 191.907 304.398V297.886ZM195.823 306V299.455H196.828V306H195.823ZM196.334 298.364C196.138 298.364 195.969 298.297 195.827 298.163C195.688 298.03 195.618 297.869 195.618 297.682C195.618 297.494 195.688 297.334 195.827 297.2C195.969 297.067 196.138 297 196.334 297C196.53 297 196.698 297.067 196.837 297.2C196.979 297.334 197.05 297.494 197.05 297.682C197.05 297.869 196.979 298.03 196.837 298.163C196.698 298.297 196.53 298.364 196.334 298.364ZM198.67 306V299.455H199.642V300.477H199.727C199.864 300.128 200.084 299.857 200.388 299.663C200.692 299.467 201.057 299.369 201.483 299.369C201.915 299.369 202.274 299.467 202.561 299.663C202.851 299.857 203.077 300.128 203.239 300.477H203.307C203.474 300.139 203.726 299.871 204.061 299.672C204.396 299.47 204.798 299.369 205.267 299.369C205.852 299.369 206.331 299.553 206.703 299.919C207.075 300.283 207.261 300.849 207.261 301.619V306H206.256V301.619C206.256 301.136 206.124 300.791 205.859 300.584C205.595 300.376 205.284 300.273 204.926 300.273C204.466 300.273 204.109 300.412 203.857 300.69C203.604 300.966 203.477 301.315 203.477 301.739V306H202.455V301.517C202.455 301.145 202.334 300.845 202.092 300.618C201.851 300.388 201.54 300.273 201.159 300.273C200.898 300.273 200.653 300.342 200.426 300.482C200.202 300.621 200.02 300.814 199.881 301.061C199.744 301.305 199.676 301.588 199.676 301.909V306H198.67ZM209.1 306V299.455H210.106V306H209.1ZM209.612 298.364C209.415 298.364 209.246 298.297 209.104 298.163C208.965 298.03 208.896 297.869 208.896 297.682C208.896 297.494 208.965 297.334 209.104 297.2C209.246 297.067 209.415 297 209.612 297C209.808 297 209.975 297.067 210.114 297.2C210.256 297.334 210.327 297.494 210.327 297.682C210.327 297.869 210.256 298.03 210.114 298.163C209.975 298.297 209.808 298.364 209.612 298.364ZM214.692 306.136C214.061 306.136 213.517 305.997 213.06 305.719C212.605 305.438 212.255 305.045 212.007 304.543C211.763 304.037 211.641 303.449 211.641 302.778C211.641 302.108 211.763 301.517 212.007 301.006C212.255 300.491 212.598 300.091 213.039 299.804C213.482 299.514 213.999 299.369 214.59 299.369C214.931 299.369 215.267 299.426 215.6 299.54C215.932 299.653 216.235 299.838 216.507 300.094C216.78 300.347 216.998 300.682 217.159 301.099C217.321 301.517 217.402 302.031 217.402 302.642V303.068H212.357V302.199H216.38C216.38 301.83 216.306 301.5 216.158 301.21C216.013 300.92 215.806 300.692 215.536 300.524C215.269 300.357 214.953 300.273 214.59 300.273C214.189 300.273 213.843 300.372 213.55 300.571C213.26 300.767 213.037 301.023 212.881 301.338C212.725 301.653 212.647 301.991 212.647 302.352V302.932C212.647 303.426 212.732 303.845 212.902 304.189C213.076 304.53 213.316 304.79 213.623 304.969C213.929 305.145 214.286 305.233 214.692 305.233C214.956 305.233 215.195 305.196 215.408 305.122C215.624 305.045 215.81 304.932 215.966 304.781C216.123 304.628 216.243 304.437 216.328 304.21L217.3 304.483C217.198 304.812 217.026 305.102 216.784 305.352C216.543 305.599 216.245 305.793 215.89 305.932C215.534 306.068 215.135 306.136 214.692 306.136ZM218.932 306V299.455H219.904V300.443H219.972C220.091 300.119 220.307 299.857 220.62 299.655C220.932 299.453 221.284 299.352 221.676 299.352C221.75 299.352 221.843 299.354 221.953 299.357C222.064 299.359 222.148 299.364 222.205 299.369V300.392C222.171 300.384 222.093 300.371 221.971 300.354C221.851 300.334 221.725 300.324 221.591 300.324C221.273 300.324 220.989 300.391 220.739 300.524C220.492 300.655 220.296 300.837 220.151 301.07C220.009 301.3 219.938 301.562 219.938 301.858V306H218.932ZM226.654 299.455V300.307H223.262V299.455H226.654ZM224.25 297.886H225.256V304.125C225.256 304.409 225.297 304.622 225.38 304.764C225.465 304.903 225.573 304.997 225.703 305.045C225.837 305.091 225.978 305.114 226.125 305.114C226.236 305.114 226.327 305.108 226.398 305.097C226.469 305.082 226.526 305.071 226.569 305.062L226.773 305.966C226.705 305.991 226.61 306.017 226.488 306.043C226.365 306.071 226.211 306.085 226.023 306.085C225.739 306.085 225.461 306.024 225.188 305.902C224.918 305.78 224.694 305.594 224.515 305.344C224.338 305.094 224.25 304.778 224.25 304.398V297.886Z" fill="#4A5565"/>
<path d="M54 330C54 327.791 55.7909 326 58 326H466C468.209 326 470 327.791 470 330V354C470 356.209 468.209 358 466 358H58C55.7909 358 54 356.209 54 354V330Z" fill="#F3F4F6"/>
<path d="M63.2955 342.062L63.9432 341.398L66.1932 343.614L70.8466 338.977L71.5114 339.642L66.1932 344.943L63.2955 342.062ZM81.7749 339.455C81.7237 339.023 81.5163 338.688 81.1527 338.449C80.7891 338.21 80.343 338.091 79.8146 338.091C79.4283 338.091 79.0902 338.153 78.8004 338.278C78.5135 338.403 78.2891 338.575 78.1271 338.794C77.968 339.013 77.8885 339.261 77.8885 339.54C77.8885 339.773 77.9439 339.973 78.0547 340.141C78.1683 340.305 78.3132 340.443 78.4893 340.554C78.6655 340.662 78.8501 340.751 79.0433 340.822C79.2365 340.891 79.4141 340.946 79.576 340.989L80.4624 341.227C80.6896 341.287 80.9425 341.369 81.2209 341.474C81.5021 341.58 81.7706 341.723 82.0263 341.905C82.2848 342.084 82.4979 342.314 82.6655 342.595C82.8331 342.876 82.9169 343.222 82.9169 343.631C82.9169 344.102 82.7933 344.528 82.5462 344.909C82.3018 345.29 81.9439 345.592 81.4723 345.817C81.0036 346.041 80.4339 346.153 79.7635 346.153C79.1385 346.153 78.5973 346.053 78.1399 345.851C77.6854 345.649 77.3274 345.368 77.0661 345.007C76.8075 344.646 76.6612 344.227 76.6271 343.75H77.718C77.7464 344.08 77.8572 344.352 78.0504 344.568C78.2464 344.781 78.4936 344.94 78.7919 345.045C79.093 345.148 79.4169 345.199 79.7635 345.199C80.1669 345.199 80.5291 345.134 80.8501 345.003C81.1712 344.869 81.4254 344.685 81.6129 344.449C81.8004 344.21 81.8942 343.932 81.8942 343.614C81.8942 343.324 81.8132 343.088 81.6513 342.906C81.4893 342.724 81.2763 342.577 81.0121 342.463C80.7479 342.349 80.4624 342.25 80.1555 342.165L79.0817 341.858C78.3999 341.662 77.8601 341.382 77.4624 341.018C77.0646 340.655 76.8658 340.179 76.8658 339.591C76.8658 339.102 76.9979 338.676 77.2621 338.312C77.5291 337.946 77.8871 337.662 78.3359 337.46C78.7876 337.256 79.2919 337.153 79.8487 337.153C80.4112 337.153 80.9112 337.254 81.3487 337.456C81.7862 337.655 82.1328 337.928 82.3885 338.274C82.647 338.621 82.7834 339.014 82.7976 339.455H81.7749ZM84.5181 346V339.455H85.5238V346H84.5181ZM85.0295 338.364C84.8335 338.364 84.6644 338.297 84.5224 338.163C84.3832 338.03 84.3136 337.869 84.3136 337.682C84.3136 337.494 84.3832 337.334 84.5224 337.2C84.6644 337.067 84.8335 337 85.0295 337C85.2255 337 85.3931 337.067 85.5323 337.2C85.6744 337.334 85.7454 337.494 85.7454 337.682C85.7454 337.869 85.6744 338.03 85.5323 338.163C85.3931 338.297 85.2255 338.364 85.0295 338.364ZM90.2124 339.455V340.307H86.8203V339.455H90.2124ZM87.8089 337.886H88.8146V344.125C88.8146 344.409 88.8558 344.622 88.9382 344.764C89.0234 344.903 89.1314 344.997 89.2621 345.045C89.3956 345.091 89.5362 345.114 89.6839 345.114C89.7947 345.114 89.8857 345.108 89.9567 345.097C90.0277 345.082 90.0845 345.071 90.1271 345.062L90.3317 345.966C90.2635 345.991 90.1683 346.017 90.0462 346.043C89.924 346.071 89.7692 346.085 89.5817 346.085C89.2976 346.085 89.0192 346.024 88.7464 345.902C88.4766 345.78 88.2521 345.594 88.0732 345.344C87.897 345.094 87.8089 344.778 87.8089 344.398V337.886ZM94.3991 346.136C93.7685 346.136 93.2244 345.997 92.767 345.719C92.3125 345.438 91.9616 345.045 91.7145 344.543C91.4702 344.037 91.348 343.449 91.348 342.778C91.348 342.108 91.4702 341.517 91.7145 341.006C91.9616 340.491 92.3054 340.091 92.7457 339.804C93.1889 339.514 93.706 339.369 94.2969 339.369C94.6378 339.369 94.9744 339.426 95.3068 339.54C95.6392 339.653 95.9418 339.838 96.2145 340.094C96.4872 340.347 96.7045 340.682 96.8665 341.099C97.0284 341.517 97.1094 342.031 97.1094 342.642V343.068H92.0639V342.199H96.0866C96.0866 341.83 96.0128 341.5 95.8651 341.21C95.7202 340.92 95.5128 340.692 95.2429 340.524C94.9759 340.357 94.6605 340.273 94.2969 340.273C93.8963 340.273 93.5497 340.372 93.2571 340.571C92.9673 340.767 92.7443 341.023 92.5881 341.338C92.4318 341.653 92.3537 341.991 92.3537 342.352V342.932C92.3537 343.426 92.4389 343.845 92.6094 344.189C92.7827 344.53 93.0227 344.79 93.3295 344.969C93.6364 345.145 93.9929 345.233 94.3991 345.233C94.6634 345.233 94.902 345.196 95.1151 345.122C95.331 345.045 95.517 344.932 95.6733 344.781C95.8295 344.628 95.9503 344.437 96.0355 344.21L97.0071 344.483C96.9048 344.812 96.733 345.102 96.4915 345.352C96.25 345.599 95.9517 345.793 95.5966 345.932C95.2415 346.068 94.8423 346.136 94.3991 346.136ZM98.6392 346V339.455H99.6108V340.477H99.696C99.8324 340.128 100.053 339.857 100.357 339.663C100.661 339.467 101.026 339.369 101.452 339.369C101.884 339.369 102.243 339.467 102.53 339.663C102.82 339.857 103.045 340.128 103.207 340.477H103.276C103.443 340.139 103.695 339.871 104.03 339.672C104.365 339.47 104.767 339.369 105.236 339.369C105.821 339.369 106.3 339.553 106.672 339.919C107.044 340.283 107.23 340.849 107.23 341.619V346H106.224V341.619C106.224 341.136 106.092 340.791 105.828 340.584C105.564 340.376 105.253 340.273 104.895 340.273C104.435 340.273 104.078 340.412 103.825 340.69C103.572 340.966 103.446 341.315 103.446 341.739V346H102.423V341.517C102.423 341.145 102.303 340.845 102.061 340.618C101.82 340.388 101.509 340.273 101.128 340.273C100.866 340.273 100.622 340.342 100.395 340.482C100.17 340.621 99.9886 340.814 99.8494 341.061C99.7131 341.305 99.6449 341.588 99.6449 341.909V346H98.6392ZM110.995 346.153C110.58 346.153 110.204 346.075 109.866 345.919C109.528 345.76 109.259 345.531 109.06 345.233C108.862 344.932 108.762 344.568 108.762 344.142C108.762 343.767 108.836 343.463 108.984 343.23C109.131 342.994 109.329 342.81 109.576 342.676C109.823 342.543 110.096 342.443 110.394 342.378C110.695 342.31 110.998 342.256 111.302 342.216C111.7 342.165 112.022 342.126 112.269 342.101C112.519 342.072 112.701 342.026 112.815 341.96C112.931 341.895 112.989 341.781 112.989 341.619V341.585C112.989 341.165 112.874 340.838 112.644 340.605C112.417 340.372 112.072 340.256 111.609 340.256C111.129 340.256 110.752 340.361 110.479 340.571C110.207 340.781 110.015 341.006 109.904 341.244L108.95 340.903C109.12 340.506 109.347 340.196 109.631 339.974C109.918 339.75 110.231 339.594 110.569 339.506C110.91 339.415 111.245 339.369 111.575 339.369C111.785 339.369 112.026 339.395 112.299 339.446C112.575 339.494 112.84 339.595 113.096 339.749C113.354 339.902 113.569 340.134 113.739 340.443C113.91 340.753 113.995 341.168 113.995 341.688V346H112.989V345.114H112.938C112.87 345.256 112.756 345.408 112.597 345.57C112.438 345.732 112.227 345.869 111.962 345.983C111.698 346.097 111.376 346.153 110.995 346.153ZM111.148 345.25C111.546 345.25 111.881 345.172 112.154 345.016C112.43 344.859 112.637 344.658 112.776 344.411C112.918 344.163 112.989 343.903 112.989 343.631V342.71C112.947 342.761 112.853 342.808 112.708 342.851C112.566 342.891 112.401 342.926 112.214 342.957C112.029 342.986 111.849 343.011 111.673 343.034C111.499 343.054 111.359 343.071 111.251 343.085C110.989 343.119 110.745 343.175 110.518 343.251C110.293 343.325 110.112 343.437 109.972 343.588C109.836 343.736 109.768 343.937 109.768 344.193C109.768 344.543 109.897 344.807 110.156 344.986C110.417 345.162 110.748 345.25 111.148 345.25ZM115.831 348.455V339.455H116.802V340.494H116.922C116.995 340.381 117.098 340.236 117.228 340.06C117.362 339.881 117.552 339.722 117.799 339.582C118.049 339.44 118.387 339.369 118.814 339.369C119.365 339.369 119.85 339.507 120.271 339.783C120.691 340.058 121.02 340.449 121.255 340.955C121.491 341.46 121.609 342.057 121.609 342.744C121.609 343.438 121.491 344.038 121.255 344.547C121.02 345.053 120.693 345.445 120.275 345.723C119.858 345.999 119.376 346.136 118.831 346.136C118.41 346.136 118.074 346.067 117.821 345.928C117.568 345.786 117.373 345.625 117.237 345.446C117.1 345.264 116.995 345.114 116.922 344.994H116.836V348.455H115.831ZM116.819 342.727C116.819 343.222 116.892 343.658 117.037 344.036C117.181 344.411 117.393 344.705 117.672 344.918C117.95 345.128 118.291 345.233 118.694 345.233C119.115 345.233 119.466 345.122 119.747 344.901C120.031 344.676 120.244 344.375 120.386 343.997C120.531 343.616 120.603 343.193 120.603 342.727C120.603 342.267 120.532 341.852 120.39 341.483C120.251 341.111 120.039 340.817 119.755 340.601C119.474 340.382 119.12 340.273 118.694 340.273C118.285 340.273 117.941 340.376 117.663 340.584C117.385 340.788 117.174 341.075 117.032 341.445C116.89 341.811 116.819 342.239 116.819 342.727ZM129.16 348.591C128.674 348.591 128.257 348.528 127.907 348.403C127.558 348.281 127.267 348.119 127.034 347.918C126.804 347.719 126.62 347.506 126.484 347.278L127.285 346.716C127.376 346.835 127.491 346.972 127.63 347.125C127.77 347.281 127.96 347.416 128.201 347.53C128.446 347.646 128.765 347.705 129.16 347.705C129.689 347.705 130.125 347.577 130.468 347.321C130.812 347.065 130.984 346.665 130.984 346.119V344.79H130.899C130.825 344.909 130.72 345.057 130.583 345.233C130.45 345.406 130.257 345.561 130.004 345.697C129.754 345.831 129.416 345.898 128.99 345.898C128.461 345.898 127.987 345.773 127.566 345.523C127.149 345.273 126.818 344.909 126.574 344.432C126.332 343.955 126.211 343.375 126.211 342.693C126.211 342.023 126.329 341.439 126.565 340.942C126.801 340.442 127.129 340.055 127.549 339.783C127.97 339.507 128.456 339.369 129.007 339.369C129.433 339.369 129.771 339.44 130.021 339.582C130.274 339.722 130.467 339.881 130.6 340.06C130.737 340.236 130.842 340.381 130.916 340.494H131.018V339.455H131.99V346.188C131.99 346.75 131.862 347.207 131.606 347.56C131.353 347.915 131.012 348.175 130.583 348.339C130.157 348.507 129.683 348.591 129.16 348.591ZM129.126 344.994C129.529 344.994 129.87 344.902 130.149 344.717C130.427 344.533 130.639 344.267 130.784 343.92C130.929 343.574 131.001 343.159 131.001 342.676C131.001 342.205 130.93 341.788 130.788 341.428C130.646 341.067 130.436 340.784 130.157 340.58C129.879 340.375 129.535 340.273 129.126 340.273C128.7 340.273 128.345 340.381 128.061 340.597C127.779 340.812 127.568 341.102 127.426 341.466C127.287 341.83 127.217 342.233 127.217 342.676C127.217 343.131 127.288 343.533 127.43 343.882C127.575 344.229 127.788 344.501 128.069 344.7C128.353 344.896 128.706 344.994 129.126 344.994ZM136.575 346.136C135.944 346.136 135.4 345.997 134.943 345.719C134.488 345.438 134.137 345.045 133.89 344.543C133.646 344.037 133.524 343.449 133.524 342.778C133.524 342.108 133.646 341.517 133.89 341.006C134.137 340.491 134.481 340.091 134.922 339.804C135.365 339.514 135.882 339.369 136.473 339.369C136.814 339.369 137.15 339.426 137.483 339.54C137.815 339.653 138.118 339.838 138.39 340.094C138.663 340.347 138.88 340.682 139.042 341.099C139.204 341.517 139.285 342.031 139.285 342.642V343.068H134.24V342.199H138.262C138.262 341.83 138.189 341.5 138.041 341.21C137.896 340.92 137.689 340.692 137.419 340.524C137.152 340.357 136.836 340.273 136.473 340.273C136.072 340.273 135.725 340.372 135.433 340.571C135.143 340.767 134.92 341.023 134.764 341.338C134.608 341.653 134.529 341.991 134.529 342.352V342.932C134.529 343.426 134.615 343.845 134.785 344.189C134.958 344.53 135.199 344.79 135.505 344.969C135.812 345.145 136.169 345.233 136.575 345.233C136.839 345.233 137.078 345.196 137.291 345.122C137.507 345.045 137.693 344.932 137.849 344.781C138.005 344.628 138.126 344.437 138.211 344.21L139.183 344.483C139.081 344.812 138.909 345.102 138.667 345.352C138.426 345.599 138.127 345.793 137.772 345.932C137.417 346.068 137.018 346.136 136.575 346.136ZM141.821 342.062V346H140.815V339.455H141.787V340.477H141.872C142.025 340.145 142.258 339.878 142.571 339.676C142.883 339.472 143.287 339.369 143.781 339.369C144.224 339.369 144.612 339.46 144.944 339.642C145.277 339.821 145.535 340.094 145.72 340.46C145.904 340.824 145.997 341.284 145.997 341.841V346H144.991V341.909C144.991 341.395 144.858 340.994 144.591 340.707C144.324 340.418 143.957 340.273 143.491 340.273C143.17 340.273 142.883 340.342 142.63 340.482C142.38 340.621 142.183 340.824 142.038 341.091C141.893 341.358 141.821 341.682 141.821 342.062ZM150.579 346.136C149.948 346.136 149.404 345.997 148.947 345.719C148.492 345.438 148.141 345.045 147.894 344.543C147.65 344.037 147.528 343.449 147.528 342.778C147.528 342.108 147.65 341.517 147.894 341.006C148.141 340.491 148.485 340.091 148.925 339.804C149.369 339.514 149.886 339.369 150.477 339.369C150.817 339.369 151.154 339.426 151.487 339.54C151.819 339.653 152.121 339.838 152.394 340.094C152.667 340.347 152.884 340.682 153.046 341.099C153.208 341.517 153.289 342.031 153.289 342.642V343.068H148.244V342.199H152.266C152.266 341.83 152.192 341.5 152.045 341.21C151.9 340.92 151.692 340.692 151.423 340.524C151.156 340.357 150.84 340.273 150.477 340.273C150.076 340.273 149.729 340.372 149.437 340.571C149.147 340.767 148.924 341.023 148.768 341.338C148.612 341.653 148.533 341.991 148.533 342.352V342.932C148.533 343.426 148.619 343.845 148.789 344.189C148.962 344.53 149.202 344.79 149.509 344.969C149.816 345.145 150.173 345.233 150.579 345.233C150.843 345.233 151.082 345.196 151.295 345.122C151.511 345.045 151.697 344.932 151.853 344.781C152.009 344.628 152.13 344.437 152.215 344.21L153.187 344.483C153.085 344.812 152.913 345.102 152.671 345.352C152.43 345.599 152.131 345.793 151.776 345.932C151.421 346.068 151.022 346.136 150.579 346.136ZM154.819 346V339.455H155.79V340.443H155.859C155.978 340.119 156.194 339.857 156.506 339.655C156.819 339.453 157.171 339.352 157.563 339.352C157.637 339.352 157.729 339.354 157.84 339.357C157.951 339.359 158.035 339.364 158.092 339.369V340.392C158.058 340.384 157.979 340.371 157.857 340.354C157.738 340.334 157.612 340.324 157.478 340.324C157.16 340.324 156.876 340.391 156.626 340.524C156.379 340.655 156.183 340.837 156.038 341.07C155.896 341.3 155.825 341.562 155.825 341.858V346H154.819ZM159.284 346V339.455H160.289V346H159.284ZM159.795 338.364C159.599 338.364 159.43 338.297 159.288 338.163C159.149 338.03 159.079 337.869 159.079 337.682C159.079 337.494 159.149 337.334 159.288 337.2C159.43 337.067 159.599 337 159.795 337C159.991 337 160.159 337.067 160.298 337.2C160.44 337.334 160.511 337.494 160.511 337.682C160.511 337.869 160.44 338.03 160.298 338.163C160.159 338.297 159.991 338.364 159.795 338.364ZM164.876 346.136C164.245 346.136 163.701 345.997 163.244 345.719C162.789 345.438 162.438 345.045 162.191 344.543C161.947 344.037 161.825 343.449 161.825 342.778C161.825 342.108 161.947 341.517 162.191 341.006C162.438 340.491 162.782 340.091 163.222 339.804C163.665 339.514 164.183 339.369 164.773 339.369C165.114 339.369 165.451 339.426 165.783 339.54C166.116 339.653 166.418 339.838 166.691 340.094C166.964 340.347 167.181 340.682 167.343 341.099C167.505 341.517 167.586 342.031 167.586 342.642V343.068H162.54V342.199H166.563C166.563 341.83 166.489 341.5 166.342 341.21C166.197 340.92 165.989 340.692 165.719 340.524C165.452 340.357 165.137 340.273 164.773 340.273C164.373 340.273 164.026 340.372 163.734 340.571C163.444 340.767 163.221 341.023 163.065 341.338C162.908 341.653 162.83 341.991 162.83 342.352V342.932C162.83 343.426 162.915 343.845 163.086 344.189C163.259 344.53 163.499 344.79 163.806 344.969C164.113 345.145 164.469 345.233 164.876 345.233C165.14 345.233 165.379 345.196 165.592 345.122C165.808 345.045 165.994 344.932 166.15 344.781C166.306 344.628 166.427 344.437 166.512 344.21L167.484 344.483C167.381 344.812 167.21 345.102 166.968 345.352C166.727 345.599 166.428 345.793 166.073 345.932C165.718 346.068 165.319 346.136 164.876 346.136ZM169.116 346V339.455H170.087V340.443H170.156C170.275 340.119 170.491 339.857 170.803 339.655C171.116 339.453 171.468 339.352 171.86 339.352C171.934 339.352 172.026 339.354 172.137 339.357C172.248 339.359 172.332 339.364 172.388 339.369V340.392C172.354 340.384 172.276 340.371 172.154 340.354C172.035 340.334 171.908 340.324 171.775 340.324C171.457 340.324 171.173 340.391 170.923 340.524C170.675 340.655 170.479 340.837 170.335 341.07C170.192 341.3 170.121 341.562 170.121 341.858V346H169.116ZM176.837 339.455V340.307H173.445V339.455H176.837ZM174.434 337.886H175.44V344.125C175.44 344.409 175.481 344.622 175.563 344.764C175.648 344.903 175.756 344.997 175.887 345.045C176.021 345.091 176.161 345.114 176.309 345.114C176.42 345.114 176.511 345.108 176.582 345.097C176.653 345.082 176.71 345.071 176.752 345.062L176.957 345.966C176.888 345.991 176.793 346.017 176.671 346.043C176.549 346.071 176.394 346.085 176.207 346.085C175.923 346.085 175.644 346.024 175.371 345.902C175.102 345.78 174.877 345.594 174.698 345.344C174.522 345.094 174.434 344.778 174.434 344.398V337.886Z" fill="#4A5565"/>
</g>
</g>
<defs>
<filter id="filter0_d_5_947" x="0" y="0" width="524" height="437" filterUnits="userSpaceOnUse" color-interpolation-filters="sRGB">
<feFlood flood-opacity="0" result="BackgroundImageFix"/>
<feColorMatrix in="SourceAlpha" type="matrix" values="0 0 0 0 0 0 0 0 0 0 0 0 0 0 0 0 0 0 127 0" result="hardAlpha"/>
<feMorphology radius="12" operator="erode" in="SourceAlpha" result="effect1_dropShadow_5_947"/>
<feOffset dy="25"/>
<feGaussianBlur stdDeviation="25"/>
<feComposite in2="hardAlpha" operator="out"/>
<feColorMatrix type="matrix" values="0 0 0 0 0 0 0 0 0 0 0 0 0 0 0 0 0 0 0.25 0"/>
<feBlend mode="normal" in2="BackgroundImageFix" result="effect1_dropShadow_5_947"/>
<feBlend mode="normal" in="SourceGraphic" in2="effect1_dropShadow_5_947" result="shape"/>
</filter>
<linearGradient id="paint0_linear_5_947" x1="54" y1="70" x2="210.203" y2="394.902" gradientUnits="userSpaceOnUse">
<stop stop-color="#EFF6FF"/>
<stop offset="1" stop-color="#F0FDF4"/>
</linearGradient>
<clipPath id="clip0_5_947">
<path d="M38 23C38 17.4772 42.4772 13 48 13H476C481.523 13 486 17.4772 486 23V364C486 369.523 481.523 374 476 374H48C42.4771 374 38 369.523 38 364V23Z" fill="white"/>
</clipPath>
</defs>
</svg>
