<svg width="524" height="473" viewBox="0 0 524 473" fill="none" xmlns="http://www.w3.org/2000/svg">
<g filter="url(#filter0_d_5_794)">
<g clip-path="url(#clip0_5_794)">
<path d="M38 23C38 17.4772 42.4772 13 48 13H476C481.523 13 486 17.4772 486 23V400C486 405.523 481.523 410 476 410H48C42.4771 410 38 405.523 38 400V23Z" fill="white"/>
<mask id="path-2-inside-1_5_794" fill="white">
<path d="M38 13H486V54H38V13Z"/>
</mask>
<path d="M38 13H486V54H38V13Z" fill="#F3F4F6"/>
<path d="M486 54V53H38V54V55H486V54Z" fill="#E5E7EB" mask="url(#path-2-inside-1_5_794)"/>
<path d="M50 33C50 29.6863 52.6863 27 56 27C59.3137 27 62 29.6863 62 33C62 36.3137 59.3137 39 56 39C52.6863 39 50 36.3137 50 33Z" fill="#FF6467"/>
<path d="M68 33C68 29.6863 70.6863 27 74 27C77.3137 27 80 29.6863 80 33C80 36.3137 77.3137 39 74 39C70.6863 39 68 36.3137 68 33Z" fill="#FDC700"/>
<path d="M86 33C86 29.6863 88.6863 27 92 27C95.3137 27 98 29.6863 98 33C98 36.3137 95.3137 39 92 39C88.6863 39 86 36.3137 86 33Z" fill="#05DF72"/>
<path d="M106 25C106 22.7909 107.791 21 110 21H470C472.209 21 474 22.7909 474 25V41C474 43.2091 472.209 45 470 45H110C107.791 45 106 43.2091 106 41V25Z" fill="white"/>
<path d="M119.926 33.0625V37H118.92V30.4545H119.892V31.4773H119.977C120.131 31.1449 120.364 30.8778 120.676 30.6761C120.989 30.4716 121.392 30.3693 121.886 30.3693C122.33 30.3693 122.717 30.4602 123.05 30.642C123.382 30.821 123.641 31.0938 123.825 31.4602C124.01 31.8239 124.102 32.2841 124.102 32.8409V37H123.097V32.9091C123.097 32.3949 122.963 31.9943 122.696 31.7074C122.429 31.4176 122.063 31.2727 121.597 31.2727C121.276 31.2727 120.989 31.3423 120.736 31.4815C120.486 31.6207 120.288 31.8239 120.143 32.0909C119.999 32.358 119.926 32.6818 119.926 33.0625ZM125.94 37V30.4545H126.946V37H125.94ZM126.451 29.3636C126.255 29.3636 126.086 29.2969 125.944 29.1634C125.805 29.0298 125.735 28.8693 125.735 28.6818C125.735 28.4943 125.805 28.3338 125.944 28.2003C126.086 28.0668 126.255 28 126.451 28C126.647 28 126.815 28.0668 126.954 28.2003C127.096 28.3338 127.167 28.4943 127.167 28.6818C127.167 28.8693 127.096 29.0298 126.954 29.1634C126.815 29.2969 126.647 29.3636 126.451 29.3636ZM131.447 37.1364C130.856 37.1364 130.337 36.9957 129.891 36.7145C129.448 36.4332 129.102 36.0398 128.852 35.5341C128.604 35.0284 128.481 34.4375 128.481 33.7614C128.481 33.0795 128.604 32.4844 128.852 31.9759C129.102 31.4673 129.448 31.0724 129.891 30.7912C130.337 30.5099 130.856 30.3693 131.447 30.3693C132.038 30.3693 132.555 30.5099 132.998 30.7912C133.444 31.0724 133.79 31.4673 134.038 31.9759C134.288 32.4844 134.413 33.0795 134.413 33.7614C134.413 34.4375 134.288 35.0284 134.038 35.5341C133.79 36.0398 133.444 36.4332 132.998 36.7145C132.555 36.9957 132.038 37.1364 131.447 37.1364ZM131.447 36.233C131.896 36.233 132.265 36.1179 132.555 35.8878C132.844 35.6577 133.059 35.3551 133.198 34.9801C133.337 34.6051 133.407 34.1989 133.407 33.7614C133.407 33.3239 133.337 32.9162 133.198 32.5384C133.059 32.1605 132.844 31.8551 132.555 31.6222C132.265 31.3892 131.896 31.2727 131.447 31.2727C130.998 31.2727 130.629 31.3892 130.339 31.6222C130.049 31.8551 129.835 32.1605 129.695 32.5384C129.556 32.9162 129.487 33.3239 129.487 33.7614C129.487 34.1989 129.556 34.6051 129.695 34.9801C129.835 35.3551 130.049 35.6577 130.339 35.8878C130.629 36.1179 130.998 36.233 131.447 36.233ZM135.948 37V30.4545H136.919V31.4432H136.988C137.107 31.1193 137.323 30.8565 137.635 30.6548C137.948 30.4531 138.3 30.3523 138.692 30.3523C138.766 30.3523 138.858 30.3537 138.969 30.3565C139.08 30.3594 139.164 30.3636 139.221 30.3693V31.392C139.186 31.3835 139.108 31.3707 138.986 31.3537C138.867 31.3338 138.74 31.3239 138.607 31.3239C138.289 31.3239 138.005 31.3906 137.755 31.5241C137.507 31.6548 137.311 31.8366 137.167 32.0696C137.025 32.2997 136.953 32.5625 136.953 32.858V37H135.948ZM142.339 37.1534C141.924 37.1534 141.548 37.0753 141.21 36.919C140.871 36.7599 140.603 36.5312 140.404 36.233C140.205 35.9318 140.106 35.5682 140.106 35.142C140.106 34.767 140.18 34.4631 140.327 34.2301C140.475 33.9943 140.673 33.8097 140.92 33.6761C141.167 33.5426 141.44 33.4432 141.738 33.3778C142.039 33.3097 142.342 33.2557 142.646 33.2159C143.043 33.1648 143.366 33.1264 143.613 33.1009C143.863 33.0724 144.045 33.0256 144.158 32.9602C144.275 32.8949 144.333 32.7812 144.333 32.6193V32.5852C144.333 32.1648 144.218 31.8381 143.988 31.6051C143.761 31.3722 143.415 31.2557 142.952 31.2557C142.472 31.2557 142.096 31.3608 141.823 31.571C141.55 31.7812 141.359 32.0057 141.248 32.2443L140.293 31.9034C140.464 31.5057 140.691 31.196 140.975 30.9744C141.262 30.75 141.575 30.5937 141.913 30.5057C142.254 30.4148 142.589 30.3693 142.918 30.3693C143.129 30.3693 143.37 30.3949 143.643 30.446C143.918 30.4943 144.184 30.5952 144.44 30.7486C144.698 30.902 144.913 31.1335 145.083 31.4432C145.254 31.7528 145.339 32.1676 145.339 32.6875V37H144.333V36.1136H144.282C144.214 36.2557 144.1 36.4077 143.941 36.5696C143.782 36.7315 143.57 36.8693 143.306 36.983C143.042 37.0966 142.719 37.1534 142.339 37.1534ZM142.492 36.25C142.89 36.25 143.225 36.1719 143.498 36.0156C143.773 35.8594 143.981 35.6577 144.12 35.4105C144.262 35.1634 144.333 34.9034 144.333 34.6307V33.7102C144.29 33.7614 144.197 33.8082 144.052 33.8509C143.91 33.8906 143.745 33.9261 143.558 33.9574C143.373 33.9858 143.192 34.0114 143.016 34.0341C142.843 34.054 142.702 34.071 142.594 34.0852C142.333 34.1193 142.089 34.1747 141.862 34.2514C141.637 34.3253 141.455 34.4375 141.316 34.5881C141.18 34.7358 141.112 34.9375 141.112 35.1932C141.112 35.5426 141.241 35.8068 141.499 35.9858C141.761 36.1619 142.092 36.25 142.492 36.25ZM147.907 37.0682C147.697 37.0682 147.517 36.9929 147.366 36.8423C147.216 36.6918 147.14 36.5114 147.14 36.3011C147.14 36.0909 147.216 35.9105 147.366 35.7599C147.517 35.6094 147.697 35.5341 147.907 35.5341C148.118 35.5341 148.298 35.6094 148.449 35.7599C148.599 35.9105 148.674 36.0909 148.674 36.3011C148.674 36.4403 148.639 36.5682 148.568 36.6847C148.5 36.8011 148.407 36.8949 148.291 36.9659C148.177 37.0341 148.049 37.0682 147.907 37.0682ZM152.951 37.1364C152.405 37.1364 151.924 36.9986 151.506 36.723C151.088 36.4446 150.762 36.0526 150.526 35.5469C150.29 35.0384 150.172 34.4375 150.172 33.7443C150.172 33.0568 150.29 32.4602 150.526 31.9545C150.762 31.4489 151.09 31.0582 151.51 30.7827C151.931 30.5071 152.417 30.3693 152.968 30.3693C153.394 30.3693 153.73 30.4403 153.978 30.5824C154.228 30.7216 154.418 30.8807 154.549 31.0597C154.682 31.2358 154.786 31.3807 154.86 31.4943H154.945V28.2727H155.951V37H154.979V35.9943H154.86C154.786 36.1136 154.681 36.2642 154.544 36.446C154.408 36.625 154.213 36.7855 153.961 36.9276C153.708 37.0668 153.371 37.1364 152.951 37.1364ZM153.087 36.233C153.49 36.233 153.831 36.1278 154.11 35.9176C154.388 35.7045 154.6 35.4105 154.745 35.0355C154.89 34.6577 154.962 34.2216 154.962 33.7273C154.962 33.2386 154.891 32.8111 154.749 32.4446C154.607 32.0753 154.397 31.7884 154.118 31.5838C153.84 31.3764 153.496 31.2727 153.087 31.2727C152.661 31.2727 152.306 31.3821 152.022 31.6009C151.74 31.8168 151.529 32.1108 151.387 32.483C151.248 32.8523 151.178 33.267 151.178 33.7273C151.178 34.1932 151.249 34.6165 151.391 34.9972C151.536 35.375 151.749 35.6761 152.03 35.9006C152.314 36.1222 152.667 36.233 153.087 36.233ZM160.676 37.1364C160.046 37.1364 159.502 36.9972 159.044 36.7188C158.59 36.4375 158.239 36.0455 157.992 35.5426C157.748 35.0369 157.625 34.4489 157.625 33.7784C157.625 33.108 157.748 32.517 157.992 32.0057C158.239 31.4915 158.583 31.0909 159.023 30.804C159.466 30.5142 159.983 30.3693 160.574 30.3693C160.915 30.3693 161.252 30.4261 161.584 30.5398C161.917 30.6534 162.219 30.8381 162.492 31.0938C162.765 31.3466 162.982 31.6818 163.144 32.0994C163.306 32.517 163.387 33.0312 163.387 33.642V34.0682H158.341V33.1989H162.364C162.364 32.8295 162.29 32.5 162.142 32.2102C161.998 31.9205 161.79 31.6918 161.52 31.5241C161.253 31.3565 160.938 31.2727 160.574 31.2727C160.174 31.2727 159.827 31.3722 159.534 31.571C159.245 31.767 159.022 32.0227 158.865 32.3381C158.709 32.6534 158.631 32.9915 158.631 33.3523V33.9318C158.631 34.4261 158.716 34.8452 158.887 35.1889C159.06 35.5298 159.3 35.7898 159.607 35.9688C159.914 36.1449 160.27 36.233 160.676 36.233C160.941 36.233 161.179 36.196 161.392 36.1222C161.608 36.0455 161.794 35.9318 161.951 35.7812C162.107 35.6278 162.228 35.4375 162.313 35.2102L163.284 35.483C163.182 35.8125 163.01 36.1023 162.769 36.3523C162.527 36.5994 162.229 36.7926 161.874 36.9318C161.519 37.0682 161.12 37.1364 160.676 37.1364ZM169.553 31.9205L168.65 32.1761C168.593 32.0256 168.509 31.8793 168.398 31.7372C168.29 31.5923 168.142 31.473 167.955 31.3793C167.767 31.2855 167.527 31.2386 167.235 31.2386C166.834 31.2386 166.5 31.331 166.233 31.5156C165.969 31.6974 165.837 31.929 165.837 32.2102C165.837 32.4602 165.928 32.6577 166.11 32.8026C166.292 32.9474 166.576 33.0682 166.962 33.1648L167.934 33.4034C168.519 33.5455 168.955 33.7628 169.242 34.0554C169.529 34.3452 169.672 34.7187 169.672 35.1761C169.672 35.5511 169.564 35.8864 169.348 36.1818C169.135 36.4773 168.837 36.7102 168.453 36.8807C168.07 37.0511 167.624 37.1364 167.115 37.1364C166.448 37.1364 165.895 36.9915 165.458 36.7017C165.02 36.4119 164.743 35.9886 164.627 35.4318L165.581 35.1932C165.672 35.5455 165.844 35.8097 166.097 35.9858C166.353 36.1619 166.686 36.25 167.098 36.25C167.567 36.25 167.939 36.1506 168.215 35.9517C168.493 35.75 168.632 35.5085 168.632 35.2273C168.632 35 168.553 34.8097 168.394 34.6562C168.235 34.5 167.99 34.3835 167.661 34.3068L166.57 34.0511C165.971 33.9091 165.53 33.6889 165.249 33.3906C164.971 33.0895 164.831 32.7131 164.831 32.2614C164.831 31.892 164.935 31.5653 165.142 31.2812C165.353 30.9972 165.638 30.7741 165.999 30.6122C166.363 30.4503 166.775 30.3693 167.235 30.3693C167.882 30.3693 168.391 30.5114 168.76 30.7955C169.132 31.0795 169.397 31.4545 169.553 31.9205ZM171.186 37V30.4545H172.192V37H171.186ZM171.697 29.3636C171.501 29.3636 171.332 29.2969 171.19 29.1634C171.051 29.0298 170.982 28.8693 170.982 28.6818C170.982 28.4943 171.051 28.3338 171.19 28.2003C171.332 28.0668 171.501 28 171.697 28C171.893 28 172.061 28.0668 172.2 28.2003C172.342 28.3338 172.413 28.4943 172.413 28.6818C172.413 28.8693 172.342 29.0298 172.2 29.1634C172.061 29.2969 171.893 29.3636 171.697 29.3636ZM176.676 39.5909C176.19 39.5909 175.772 39.5284 175.423 39.4034C175.074 39.2812 174.782 39.1193 174.549 38.9176C174.319 38.7188 174.136 38.5057 174 38.2784L174.801 37.7159C174.892 37.8352 175.007 37.9716 175.146 38.125C175.285 38.2812 175.475 38.4162 175.717 38.5298C175.961 38.6463 176.281 38.7045 176.676 38.7045C177.204 38.7045 177.64 38.5767 177.984 38.321C178.328 38.0653 178.5 37.6648 178.5 37.1193V35.7898H178.414C178.341 35.9091 178.235 36.0568 178.099 36.233C177.966 36.4062 177.772 36.5611 177.52 36.6974C177.27 36.831 176.931 36.8977 176.505 36.8977C175.977 36.8977 175.502 36.7727 175.082 36.5227C174.664 36.2727 174.333 35.9091 174.089 35.4318C173.848 34.9545 173.727 34.375 173.727 33.6932C173.727 33.0227 173.845 32.4389 174.081 31.9418C174.316 31.4418 174.645 31.0554 175.065 30.7827C175.485 30.5071 175.971 30.3693 176.522 30.3693C176.949 30.3693 177.287 30.4403 177.537 30.5824C177.789 30.7216 177.983 30.8807 178.116 31.0597C178.252 31.2358 178.358 31.3807 178.431 31.4943H178.534V30.4545H179.505V37.1875C179.505 37.75 179.377 38.2074 179.122 38.5597C178.869 38.9148 178.528 39.1747 178.099 39.3395C177.673 39.5071 177.199 39.5909 176.676 39.5909ZM176.642 35.9943C177.045 35.9943 177.386 35.902 177.664 35.7173C177.943 35.5327 178.154 35.267 178.299 34.9205C178.444 34.5739 178.517 34.1591 178.517 33.6761C178.517 33.2045 178.446 32.7884 178.304 32.4276C178.162 32.0668 177.951 31.7841 177.673 31.5795C177.395 31.375 177.051 31.2727 176.642 31.2727C176.216 31.2727 175.86 31.3807 175.576 31.5966C175.295 31.8125 175.083 32.1023 174.941 32.4659C174.802 32.8295 174.733 33.233 174.733 33.6761C174.733 34.1307 174.804 34.5327 174.946 34.8821C175.091 35.2287 175.304 35.5014 175.585 35.7003C175.869 35.8963 176.221 35.9943 176.642 35.9943ZM182.352 33.0625V37H181.346V30.4545H182.318V31.4773H182.403C182.556 31.1449 182.789 30.8778 183.102 30.6761C183.414 30.4716 183.818 30.3693 184.312 30.3693C184.755 30.3693 185.143 30.4602 185.475 30.642C185.808 30.821 186.066 31.0938 186.251 31.4602C186.436 31.8239 186.528 32.2841 186.528 32.8409V37H185.522V32.9091C185.522 32.3949 185.389 31.9943 185.122 31.7074C184.855 31.4176 184.488 31.2727 184.022 31.2727C183.701 31.2727 183.414 31.3423 183.162 31.4815C182.912 31.6207 182.714 31.8239 182.569 32.0909C182.424 32.358 182.352 32.6818 182.352 33.0625Z" fill="#99A1AF"/>
<path d="M54 80C54 74.4771 58.4772 70 64 70H460C465.523 70 470 74.4772 470 80V252C470 257.523 465.523 262 460 262H64C58.4771 262 54 257.523 54 252V80Z" fill="url(#paint0_linear_5_794)"/>
<path d="M285.333 136H238.667C234.985 136 232 138.985 232 142.667V189.333C232 193.015 234.985 196 238.667 196H285.333C289.015 196 292 193.015 292 189.333V142.667C292 138.985 289.015 136 285.333 136Z" stroke="#F6339A" stroke-width="6.66667" stroke-linecap="round" stroke-linejoin="round"/>
<path d="M232 156H292" stroke="#F6339A" stroke-width="6.66667" stroke-linecap="round" stroke-linejoin="round"/>
<path d="M252 196V156" stroke="#F6339A" stroke-width="6.66667" stroke-linecap="round" stroke-linejoin="round"/>
<path d="M54 282C54 279.791 55.7909 278 58 278H183.328C185.537 278 187.328 279.791 187.328 282V322C187.328 324.209 185.537 326 183.328 326H58C55.7909 326 54 324.209 54 322V282Z" fill="#E5E7EB"/>
<path d="M195.328 282C195.328 279.791 197.119 278 199.328 278H324.664C326.873 278 328.664 279.791 328.664 282V322C328.664 324.209 326.873 326 324.664 326H199.328C197.119 326 195.328 324.209 195.328 322V282Z" fill="#E5E7EB"/>
<path d="M336.664 282C336.664 279.791 338.455 278 340.664 278H465.992C468.201 278 469.992 279.791 469.992 282V322C469.992 324.209 468.201 326 465.992 326H340.664C338.455 326 336.664 324.209 336.664 322V282Z" fill="#E5E7EB"/>
<path d="M54 346C54 343.791 55.7909 342 58 342H466C468.209 342 470 343.791 470 346V350C470 352.209 468.209 354 466 354H58C55.7909 354 54 352.209 54 350V346Z" fill="#F3F4F6"/>
<path d="M54 366C54 363.791 55.7909 362 58 362H382.797C385.006 362 386.797 363.791 386.797 366V370C386.797 372.209 385.006 374 382.797 374H58C55.7909 374 54 372.209 54 370V366Z" fill="#F3F4F6"/>
<path d="M54 386C54 383.791 55.7909 382 58 382H299.594C301.803 382 303.594 383.791 303.594 386V390C303.594 392.209 301.803 394 299.594 394H58C55.7909 394 54 392.209 54 390V386Z" fill="#F3F4F6"/>
</g>
</g>
<defs>
<filter id="filter0_d_5_794" x="0" y="0" width="524" height="473" filterUnits="userSpaceOnUse" color-interpolation-filters="sRGB">
<feFlood flood-opacity="0" result="BackgroundImageFix"/>
<feColorMatrix in="SourceAlpha" type="matrix" values="0 0 0 0 0 0 0 0 0 0 0 0 0 0 0 0 0 0 127 0" result="hardAlpha"/>
<feMorphology radius="12" operator="erode" in="SourceAlpha" result="effect1_dropShadow_5_794"/>
<feOffset dy="25"/>
<feGaussianBlur stdDeviation="25"/>
<feComposite in2="hardAlpha" operator="out"/>
<feColorMatrix type="matrix" values="0 0 0 0 0 0 0 0 0 0 0 0 0 0 0 0 0 0 0.25 0"/>
<feBlend mode="normal" in2="BackgroundImageFix" result="effect1_dropShadow_5_794"/>
<feBlend mode="normal" in="SourceGraphic" in2="effect1_dropShadow_5_794" result="shape"/>
</filter>
<linearGradient id="paint0_linear_5_794" x1="54" y1="70" x2="200.107" y2="386.566" gradientUnits="userSpaceOnUse">
<stop stop-color="#FCE7F3"/>
<stop offset="1" stop-color="#F3E8FF"/>
</linearGradient>
<clipPath id="clip0_5_794">
<path d="M38 23C38 17.4772 42.4772 13 48 13H476C481.523 13 486 17.4772 486 23V400C486 405.523 481.523 410 476 410H48C42.4771 410 38 405.523 38 400V23Z" fill="white"/>
</clipPath>
</defs>
</svg>
